<?xml version="1.0" encoding="utf-8"?>
<!-- Generator: Adobe Illustrator 23.0.1, SVG Export Plug-In . SVG Version: 6.00 Build 0)  -->
<svg version="1.1" xmlns="http://www.w3.org/2000/svg" xmlns:xlink="http://www.w3.org/1999/xlink" x="0px" y="0px"
	 viewBox="0 0 654.06 268.5" style="enable-background:new 0 0 654.06 268.5;" xml:space="preserve">
<style type="text/css">
	.st0{fill:#99CCFF;}
	.st1{fill:#333333;}
	.st2{fill:none;}
	.st3{fill:#FFFFFF;}
	.st4{fill:#FF6666;}
</style>
<g id="Ebene_3">
	<rect class="st0" width="654" height="269"/>
</g>
<g id="Ebene_2">
	<rect x="491" y="23" class="st0" width="144" height="83"/>
	<rect x="20" y="160" class="st0" width="617" height="87"/>
	<rect x="20" y="23" class="st0" width="285" height="83"/>
	<rect x="426" y="117" class="st1" width="211" height="32"/>
	<g>
		<rect x="33" y="47" class="st2" width="304" height="85"/>
		<path class="st3" d="M38.58,47h10.25v34.11c0,1.97,0.09,3.96,0.29,5.99c0.19,2.02,0.74,3.84,1.64,5.45
			c0.9,1.61,2.27,2.94,4.1,3.98c1.83,1.04,4.41,1.56,7.75,1.56c3.33,0,5.92-0.52,7.75-1.56c1.83-1.04,3.2-2.36,4.1-3.98
			c0.9-1.61,1.45-3.43,1.64-5.45c0.19-2.02,0.29-4.02,0.29-5.99V47h10.25v37.47c0,3.77-0.57,7.05-1.72,9.84
			c-1.15,2.79-2.77,5.12-4.88,7.01c-2.1,1.89-4.63,3.29-7.58,4.22c-2.95,0.93-6.23,1.39-9.84,1.39s-6.89-0.47-9.84-1.39
			c-2.95-0.93-5.48-2.34-7.59-4.22c-2.1-1.89-3.73-4.22-4.88-7.01s-1.72-6.07-1.72-9.84V47z"/>
		<path class="st3" d="M97.12,63.15h8.77v8.2h0.16c0.27-1.15,0.81-2.27,1.6-3.36c0.79-1.09,1.75-2.09,2.87-2.99
			c1.12-0.9,2.36-1.63,3.73-2.17c1.37-0.55,2.76-0.82,4.18-0.82c1.09,0,1.84,0.03,2.25,0.08c0.41,0.06,0.83,0.11,1.27,0.16v9.02
			c-0.66-0.11-1.33-0.21-2.01-0.29c-0.68-0.08-1.35-0.12-2.01-0.12c-1.59,0-3.08,0.32-4.47,0.94c-1.39,0.63-2.61,1.56-3.65,2.79
			c-1.04,1.23-1.86,2.75-2.46,4.55c-0.6,1.8-0.9,3.88-0.9,6.23v20.17h-9.35V63.15z"/>
		<path class="st3" d="M133.04,91.94c0.27,2.73,1.31,4.65,3.12,5.74c1.8,1.09,3.96,1.64,6.48,1.64c0.87,0,1.87-0.07,2.99-0.21
			c1.12-0.14,2.17-0.4,3.16-0.78c0.98-0.38,1.79-0.94,2.42-1.68c0.63-0.74,0.92-1.71,0.86-2.91c-0.06-1.2-0.49-2.19-1.31-2.95
			c-0.82-0.77-1.87-1.38-3.16-1.85c-1.29-0.46-2.75-0.86-4.39-1.19c-1.64-0.33-3.31-0.68-5-1.07c-1.75-0.38-3.43-0.85-5.04-1.39
			c-1.61-0.55-3.06-1.28-4.35-2.21c-1.29-0.93-2.31-2.12-3.08-3.57c-0.77-1.45-1.15-3.24-1.15-5.37c0-2.3,0.56-4.22,1.68-5.78
			c1.12-1.56,2.54-2.81,4.26-3.77c1.72-0.96,3.63-1.63,5.74-2.01c2.1-0.38,4.11-0.57,6.03-0.57c2.19,0,4.28,0.23,6.27,0.7
			c1.99,0.47,3.8,1.22,5.41,2.26c1.61,1.04,2.95,2.39,4.02,4.06c1.07,1.67,1.73,3.68,2.01,6.03h-9.76
			c-0.44-2.24-1.46-3.74-3.07-4.51c-1.61-0.76-3.46-1.15-5.54-1.15c-0.66,0-1.44,0.06-2.34,0.16c-0.9,0.11-1.75,0.32-2.54,0.62
			c-0.79,0.3-1.46,0.74-2.01,1.31c-0.55,0.57-0.82,1.33-0.82,2.25c0,1.15,0.4,2.08,1.19,2.79c0.79,0.71,1.83,1.3,3.12,1.76
			c1.28,0.47,2.75,0.86,4.39,1.19c1.64,0.33,3.33,0.68,5.08,1.07c1.69,0.38,3.36,0.85,5,1.39c1.64,0.55,3.1,1.29,4.39,2.21
			c1.28,0.93,2.32,2.1,3.12,3.53c0.79,1.42,1.19,3.17,1.19,5.25c0,2.52-0.57,4.65-1.72,6.4c-1.15,1.75-2.64,3.17-4.47,4.26
			c-1.83,1.09-3.87,1.89-6.11,2.38c-2.24,0.49-4.46,0.74-6.64,0.74c-2.68,0-5.15-0.3-7.42-0.9c-2.27-0.6-4.24-1.52-5.9-2.75
			c-1.67-1.23-2.98-2.76-3.94-4.59c-0.96-1.83-1.46-4-1.52-6.52H133.04z"/>
		<path class="st3" d="M205.77,105.55h-9.18v-5.9h-0.16c-1.15,2.13-2.86,3.84-5.12,5.12c-2.27,1.28-4.58,1.93-6.93,1.93
			c-5.58,0-9.61-1.38-12.1-4.14c-2.49-2.76-3.73-6.93-3.73-12.5v-26.9h9.35v25.99c0,3.72,0.71,6.34,2.13,7.87
			c1.42,1.53,3.42,2.3,5.99,2.3c1.97,0,3.61-0.3,4.92-0.9c1.31-0.6,2.38-1.41,3.2-2.42c0.82-1.01,1.41-2.23,1.76-3.65
			c0.35-1.42,0.53-2.95,0.53-4.59v-24.6h9.35V105.55z"/>
		<path class="st3" d="M215.86,47h9.35v58.55h-9.35V47z"/>
		<path class="st3" d="M270.88,96.12c0,1.15,0.15,1.97,0.45,2.46c0.3,0.49,0.89,0.74,1.76,0.74c0.27,0,0.6,0,0.98,0
			c0.38,0,0.82-0.05,1.31-0.16v6.48c-0.33,0.11-0.75,0.23-1.27,0.37c-0.52,0.14-1.05,0.26-1.6,0.37c-0.55,0.11-1.09,0.19-1.64,0.25
			c-0.55,0.05-1.01,0.08-1.39,0.08c-1.91,0-3.5-0.38-4.76-1.15c-1.26-0.77-2.08-2.1-2.46-4.02c-1.86,1.8-4.14,3.12-6.85,3.94
			c-2.71,0.82-5.32,1.23-7.83,1.23c-1.91,0-3.75-0.26-5.49-0.78c-1.75-0.52-3.29-1.28-4.63-2.3c-1.34-1.01-2.41-2.3-3.2-3.85
			c-0.79-1.56-1.19-3.38-1.19-5.45c0-2.62,0.48-4.76,1.44-6.4c0.96-1.64,2.21-2.92,3.77-3.85c1.56-0.93,3.31-1.6,5.25-2.01
			c1.94-0.41,3.9-0.72,5.86-0.94c1.69-0.33,3.31-0.56,4.84-0.7c1.53-0.14,2.88-0.37,4.06-0.7c1.17-0.33,2.1-0.83,2.79-1.52
			c0.68-0.68,1.02-1.71,1.02-3.07c0-1.2-0.29-2.19-0.86-2.95c-0.57-0.76-1.29-1.35-2.13-1.76c-0.85-0.41-1.79-0.68-2.83-0.82
			c-1.04-0.14-2.02-0.21-2.95-0.21c-2.62,0-4.78,0.55-6.48,1.64c-1.69,1.09-2.65,2.79-2.87,5.08h-9.35c0.16-2.73,0.82-5,1.97-6.81
			c1.15-1.8,2.61-3.25,4.39-4.35c1.78-1.09,3.78-1.86,6.03-2.3c2.24-0.44,4.54-0.66,6.89-0.66c2.08,0,4.13,0.22,6.15,0.66
			c2.02,0.44,3.84,1.15,5.45,2.13c1.61,0.98,2.91,2.25,3.9,3.81c0.98,1.56,1.48,3.46,1.48,5.7V96.12z M261.53,84.31
			c-1.42,0.93-3.17,1.49-5.25,1.68c-2.08,0.19-4.16,0.48-6.23,0.86c-0.98,0.16-1.94,0.4-2.87,0.7c-0.93,0.3-1.75,0.71-2.46,1.23
			c-0.71,0.52-1.27,1.2-1.68,2.05c-0.41,0.85-0.61,1.87-0.61,3.08c0,1.04,0.3,1.91,0.9,2.62c0.6,0.71,1.32,1.27,2.17,1.68
			c0.85,0.41,1.78,0.7,2.79,0.86c1.01,0.16,1.93,0.25,2.75,0.25c1.04,0,2.16-0.14,3.36-0.41c1.2-0.27,2.34-0.74,3.4-1.39
			c1.07-0.66,1.95-1.49,2.67-2.5c0.71-1.01,1.07-2.25,1.07-3.73V84.31z"/>
	</g>
	<g>
		<g>
			<path class="st3" d="M39.23,152h10.25v26.65L75.56,152h12.63l-23.37,23.37l25.01,35.18H77.03l-19.19-27.96l-8.36,8.28v19.68
				H39.23V152z"/>
			<path class="st3" d="M94.09,168.15h8.77v8.2h0.16c0.27-1.15,0.81-2.27,1.6-3.36c0.79-1.09,1.75-2.09,2.87-2.99
				c1.12-0.9,2.36-1.63,3.73-2.17c1.37-0.54,2.76-0.82,4.18-0.82c1.09,0,1.84,0.03,2.25,0.08c0.41,0.06,0.83,0.11,1.27,0.16v9.02
				c-0.66-0.11-1.33-0.21-2.01-0.29c-0.68-0.08-1.35-0.12-2.01-0.12c-1.59,0-3.08,0.31-4.47,0.94c-1.39,0.63-2.61,1.56-3.65,2.79
				c-1.04,1.23-1.86,2.75-2.46,4.55c-0.6,1.8-0.9,3.88-0.9,6.23v20.17h-9.35V168.15z"/>
			<path class="st3" d="M128.78,191.77c0,1.64,0.23,3.23,0.7,4.76c0.46,1.53,1.16,2.87,2.09,4.02c0.93,1.15,2.1,2.06,3.53,2.75
				c1.42,0.68,3.12,1.02,5.08,1.02c2.73,0,4.93-0.59,6.6-1.76c1.67-1.17,2.91-2.94,3.73-5.29h8.86c-0.49,2.3-1.34,4.35-2.54,6.15
				c-1.2,1.8-2.65,3.32-4.35,4.55c-1.7,1.23-3.6,2.16-5.7,2.79c-2.1,0.63-4.3,0.94-6.6,0.94c-3.34,0-6.29-0.55-8.86-1.64
				c-2.57-1.09-4.74-2.62-6.52-4.59c-1.78-1.97-3.12-4.32-4.02-7.05c-0.9-2.73-1.35-5.74-1.35-9.02c0-3.01,0.48-5.86,1.44-8.57
				c0.96-2.71,2.32-5.08,4.1-7.13c1.78-2.05,3.92-3.68,6.44-4.88c2.51-1.2,5.36-1.8,8.53-1.8c3.33,0,6.33,0.7,8.98,2.09
				c2.65,1.39,4.85,3.24,6.6,5.54c1.75,2.3,3.02,4.93,3.81,7.91c0.79,2.98,1,6.06,0.61,9.23H128.78z M150.59,185.62
				c-0.11-1.48-0.42-2.9-0.94-4.26c-0.52-1.37-1.23-2.55-2.13-3.57c-0.9-1.01-2-1.83-3.28-2.46c-1.28-0.63-2.72-0.94-4.3-0.94
				c-1.64,0-3.13,0.29-4.47,0.86c-1.34,0.57-2.49,1.37-3.44,2.38c-0.96,1.01-1.72,2.2-2.3,3.57c-0.57,1.37-0.89,2.84-0.94,4.43
				H150.59z"/>
			<path class="st3" d="M204.3,210.55h-9.18v-5.9h-0.16c-1.15,2.13-2.86,3.84-5.12,5.12c-2.27,1.28-4.58,1.93-6.93,1.93
				c-5.58,0-9.61-1.38-12.1-4.14c-2.49-2.76-3.73-6.93-3.73-12.5v-26.9h9.35v25.99c0,3.72,0.71,6.34,2.13,7.87
				c1.42,1.53,3.42,2.29,5.99,2.29c1.97,0,3.61-0.3,4.92-0.9c1.31-0.6,2.38-1.41,3.2-2.42c0.82-1.01,1.41-2.23,1.76-3.65
				c0.35-1.42,0.53-2.95,0.53-4.59v-24.6h9.35V210.55z"/>
			<path class="st3" d="M212.66,168.15h34.44v6.56l-24.27,28.45h25.5v7.38h-37.31v-6.56l23.45-28.45h-21.81V168.15z"/>
			<path class="st3" d="M255.38,168.15h8.86v5.74h0.16c1.31-2.46,3.14-4.22,5.49-5.29c2.35-1.07,4.89-1.6,7.63-1.6
				c3.33,0,6.24,0.59,8.73,1.76c2.49,1.18,4.55,2.79,6.19,4.84c1.64,2.05,2.87,4.44,3.69,7.18c0.82,2.73,1.23,5.66,1.23,8.77
				c0,2.84-0.37,5.6-1.11,8.28c-0.74,2.68-1.86,5.04-3.36,7.09c-1.5,2.05-3.4,3.69-5.7,4.92c-2.3,1.23-5,1.85-8.12,1.85
				c-1.37,0-2.73-0.12-4.1-0.37c-1.37-0.25-2.68-0.64-3.94-1.19c-1.26-0.55-2.42-1.24-3.49-2.09c-1.07-0.85-1.96-1.84-2.66-2.99
				h-0.16v21.16h-9.35V168.15z M288.02,189.39c0-1.91-0.25-3.77-0.74-5.58c-0.49-1.8-1.23-3.4-2.21-4.8
				c-0.98-1.39-2.21-2.51-3.69-3.36s-3.17-1.27-5.08-1.27c-3.94,0-6.9,1.37-8.9,4.1c-2,2.73-2.99,6.37-2.99,10.91
				c0,2.13,0.26,4.11,0.78,5.95c0.52,1.83,1.3,3.4,2.34,4.71c1.04,1.31,2.28,2.35,3.73,3.12c1.45,0.77,3.13,1.15,5.04,1.15
				c2.13,0,3.94-0.44,5.41-1.31c1.48-0.87,2.69-2.01,3.65-3.4c0.96-1.39,1.64-2.98,2.05-4.76
				C287.81,193.07,288.02,191.25,288.02,189.39z"/>
			<path class="st3" d="M340.74,201.12c0,1.15,0.15,1.97,0.45,2.46c0.3,0.49,0.89,0.74,1.76,0.74c0.27,0,0.6,0,0.98,0
				c0.38,0,0.82-0.05,1.31-0.16v6.48c-0.33,0.11-0.75,0.23-1.27,0.37c-0.52,0.14-1.05,0.26-1.6,0.37c-0.55,0.11-1.09,0.19-1.64,0.25
				c-0.55,0.05-1.01,0.08-1.39,0.08c-1.92,0-3.5-0.38-4.76-1.15c-1.26-0.77-2.08-2.1-2.46-4.02c-1.86,1.8-4.14,3.12-6.85,3.94
				c-2.71,0.82-5.32,1.23-7.83,1.23c-1.91,0-3.75-0.26-5.49-0.78c-1.75-0.52-3.29-1.28-4.63-2.3c-1.34-1.01-2.41-2.3-3.2-3.85
				c-0.79-1.56-1.19-3.38-1.19-5.45c0-2.62,0.48-4.76,1.44-6.4c0.96-1.64,2.21-2.92,3.77-3.85c1.56-0.93,3.31-1.6,5.25-2.01
				c1.94-0.41,3.9-0.72,5.86-0.94c1.69-0.33,3.31-0.56,4.84-0.7c1.53-0.14,2.88-0.37,4.06-0.7c1.17-0.33,2.1-0.83,2.79-1.52
				c0.68-0.68,1.03-1.71,1.03-3.07c0-1.2-0.29-2.19-0.86-2.95c-0.57-0.76-1.29-1.35-2.13-1.76c-0.85-0.41-1.79-0.68-2.83-0.82
				c-1.04-0.14-2.02-0.21-2.95-0.21c-2.62,0-4.78,0.55-6.48,1.64c-1.69,1.09-2.65,2.79-2.87,5.08h-9.35c0.16-2.73,0.82-5,1.97-6.81
				c1.15-1.8,2.61-3.25,4.39-4.35c1.78-1.09,3.78-1.86,6.03-2.3c2.24-0.44,4.54-0.66,6.89-0.66c2.08,0,4.13,0.22,6.15,0.66
				c2.02,0.44,3.84,1.15,5.45,2.13c1.61,0.98,2.91,2.25,3.9,3.81c0.98,1.56,1.47,3.46,1.47,5.7V201.12z M331.4,189.31
				c-1.42,0.93-3.17,1.49-5.25,1.68c-2.08,0.19-4.16,0.48-6.23,0.86c-0.98,0.16-1.94,0.4-2.87,0.7c-0.93,0.3-1.75,0.71-2.46,1.23
				c-0.71,0.52-1.27,1.2-1.68,2.05s-0.61,1.87-0.61,3.07c0,1.04,0.3,1.91,0.9,2.62c0.6,0.71,1.32,1.27,2.17,1.68
				c0.85,0.41,1.78,0.7,2.79,0.86c1.01,0.16,1.93,0.25,2.75,0.25c1.04,0,2.16-0.13,3.36-0.41c1.2-0.27,2.34-0.74,3.4-1.39
				c1.07-0.66,1.95-1.49,2.67-2.5c0.71-1.01,1.07-2.25,1.07-3.73V189.31z"/>
			<path class="st3" d="M351.08,152h9.35v8.86h-9.35V152z M351.08,168.15h9.35v42.39h-9.35V168.15z"/>
			<path class="st3" d="M370.59,168.15h8.86v6.23l0.16,0.16c1.42-2.35,3.28-4.2,5.58-5.54c2.3-1.34,4.84-2.01,7.63-2.01
				c4.65,0,8.31,1.2,10.99,3.61c2.68,2.41,4.02,6.01,4.02,10.82v29.11h-9.35V183.9c-0.11-3.33-0.82-5.75-2.13-7.26
				c-1.31-1.5-3.36-2.25-6.15-2.25c-1.59,0-3.01,0.29-4.26,0.86s-2.32,1.37-3.2,2.38c-0.88,1.01-1.56,2.2-2.05,3.57
				c-0.49,1.37-0.74,2.82-0.74,4.35v25.01h-9.35V168.15z"/>
			<path class="st3" d="M413.4,168.15h7.05v-12.71h9.35v12.71h8.45v6.97h-8.45v22.63c0,0.98,0.04,1.83,0.12,2.54
				c0.08,0.71,0.27,1.31,0.57,1.8c0.3,0.49,0.75,0.86,1.35,1.11s1.42,0.37,2.46,0.37c0.66,0,1.31-0.01,1.97-0.04
				c0.66-0.03,1.31-0.12,1.97-0.29v7.22c-1.04,0.11-2.05,0.22-3.04,0.33c-0.98,0.11-2,0.16-3.03,0.16c-2.46,0-4.44-0.23-5.95-0.7
				c-1.5-0.46-2.68-1.15-3.53-2.05c-0.85-0.9-1.42-2.04-1.72-3.4c-0.3-1.37-0.48-2.92-0.53-4.67v-25.01h-7.05V168.15z"/>
			<path class="st3" d="M444.96,168.15h8.86v6.23l0.16,0.16c1.42-2.35,3.28-4.2,5.58-5.54c2.3-1.34,4.84-2.01,7.63-2.01
				c4.64,0,8.31,1.2,10.99,3.61c2.68,2.41,4.02,6.01,4.02,10.82v29.11h-9.35V183.9c-0.11-3.33-0.82-5.75-2.13-7.26
				c-1.31-1.5-3.36-2.25-6.15-2.25c-1.59,0-3.01,0.29-4.26,0.86c-1.26,0.57-2.32,1.37-3.2,2.38c-0.88,1.01-1.56,2.2-2.05,3.57
				c-0.49,1.37-0.74,2.82-0.74,4.35v25.01h-9.35V168.15z"/>
			<path class="st3" d="M499.33,191.77c0,1.64,0.23,3.23,0.7,4.76c0.46,1.53,1.16,2.87,2.09,4.02c0.93,1.15,2.1,2.06,3.53,2.75
				c1.42,0.68,3.12,1.02,5.08,1.02c2.73,0,4.93-0.59,6.6-1.76c1.67-1.17,2.91-2.94,3.73-5.29h8.86c-0.49,2.3-1.34,4.35-2.54,6.15
				c-1.2,1.8-2.65,3.32-4.35,4.55c-1.7,1.23-3.59,2.16-5.7,2.79s-4.3,0.94-6.6,0.94c-3.33,0-6.29-0.55-8.86-1.64
				c-2.57-1.09-4.74-2.62-6.52-4.59c-1.78-1.97-3.12-4.32-4.02-7.05c-0.9-2.73-1.35-5.74-1.35-9.02c0-3.01,0.48-5.86,1.44-8.57
				c0.96-2.71,2.32-5.08,4.1-7.13c1.78-2.05,3.92-3.68,6.44-4.88c2.51-1.2,5.36-1.8,8.53-1.8c3.33,0,6.33,0.7,8.98,2.09
				s4.85,3.24,6.6,5.54c1.75,2.3,3.02,4.93,3.81,7.91c0.79,2.98,1,6.06,0.62,9.23H499.33z M521.14,185.62
				c-0.11-1.48-0.42-2.9-0.94-4.26c-0.52-1.37-1.23-2.55-2.13-3.57c-0.9-1.01-2-1.83-3.28-2.46c-1.29-0.63-2.72-0.94-4.3-0.94
				c-1.64,0-3.13,0.29-4.47,0.86c-1.34,0.57-2.49,1.37-3.44,2.38c-0.96,1.01-1.72,2.2-2.3,3.57c-0.57,1.37-0.89,2.84-0.94,4.43
				H521.14z"/>
			<path class="st3" d="M537.62,168.15h8.77v8.2h0.16c0.27-1.15,0.81-2.27,1.6-3.36c0.79-1.09,1.75-2.09,2.87-2.99
				c1.12-0.9,2.36-1.63,3.73-2.17c1.37-0.54,2.76-0.82,4.18-0.82c1.09,0,1.84,0.03,2.25,0.08c0.41,0.06,0.83,0.11,1.27,0.16v9.02
				c-0.66-0.11-1.33-0.21-2.01-0.29c-0.68-0.08-1.35-0.12-2.01-0.12c-1.59,0-3.08,0.31-4.47,0.94c-1.39,0.63-2.61,1.56-3.65,2.79
				c-1.04,1.23-1.86,2.75-2.46,4.55c-0.6,1.8-0.9,3.88-0.9,6.23v20.17h-9.35V168.15z"/>
		</g>
	</g>
	<g>
		<rect x="399" y="53" class="st2" width="239" height="99"/>
		<path class="st1" d="M495.15,70.14c0,0.98,0.17,1.82,0.5,2.52c0.33,0.7,0.8,1.27,1.4,1.71c0.6,0.44,1.29,0.77,2.07,0.97
			c0.78,0.2,1.63,0.31,2.54,0.31c0.98,0,1.82-0.11,2.52-0.34s1.26-0.52,1.69-0.88c0.43-0.36,0.74-0.77,0.94-1.24
			c0.19-0.47,0.29-0.94,0.29-1.42c0-0.98-0.22-1.71-0.67-2.18c-0.44-0.47-0.93-0.8-1.46-0.99c-0.91-0.34-1.97-0.65-3.19-0.95
			c-1.21-0.3-2.71-0.69-4.48-1.17c-1.1-0.29-2.02-0.67-2.75-1.13c-0.73-0.47-1.31-0.99-1.75-1.57c-0.43-0.58-0.74-1.19-0.92-1.84
			c-0.18-0.65-0.27-1.31-0.27-1.98c0-1.3,0.27-2.42,0.81-3.37c0.54-0.95,1.25-1.73,2.14-2.36c0.89-0.62,1.9-1.09,3.02-1.39
			c1.13-0.3,2.27-0.45,3.42-0.45c1.34,0,2.61,0.17,3.8,0.52c1.19,0.35,2.23,0.87,3.13,1.57c0.9,0.7,1.61,1.55,2.14,2.57
			c0.53,1.02,0.79,2.2,0.79,3.55h-4.5c-0.12-1.66-0.68-2.83-1.69-3.51c-1.01-0.68-2.29-1.03-3.85-1.03c-0.53,0-1.07,0.05-1.62,0.16
			s-1.06,0.29-1.51,0.54c-0.46,0.25-0.83,0.59-1.13,1.03c-0.3,0.43-0.45,0.97-0.45,1.62c0,0.91,0.28,1.63,0.85,2.14
			c0.56,0.52,1.3,0.91,2.21,1.17c0.1,0.02,0.47,0.13,1.13,0.31c0.66,0.18,1.4,0.38,2.21,0.59c0.82,0.22,1.61,0.43,2.39,0.63
			c0.78,0.2,1.34,0.35,1.67,0.45c0.84,0.26,1.57,0.62,2.2,1.08c0.62,0.46,1.15,0.98,1.57,1.57c0.42,0.59,0.73,1.22,0.94,1.89
			s0.31,1.34,0.31,2.02c0,1.44-0.29,2.67-0.88,3.69c-0.59,1.02-1.36,1.85-2.32,2.5c-0.96,0.65-2.05,1.12-3.28,1.42
			c-1.22,0.3-2.47,0.45-3.74,0.45c-1.46,0-2.84-0.18-4.14-0.54c-1.3-0.36-2.42-0.91-3.38-1.66c-0.96-0.74-1.73-1.7-2.3-2.86
			s-0.88-2.54-0.9-4.12H495.15z"/>
		<path class="st1" d="M513.48,60.09h3.1v-5.58h4.1v5.58h3.71v3.06h-3.71v9.94c0,0.43,0.02,0.8,0.05,1.12
			c0.04,0.31,0.12,0.58,0.25,0.79s0.33,0.38,0.59,0.49c0.26,0.11,0.62,0.16,1.08,0.16c0.29,0,0.58-0.01,0.86-0.02
			c0.29-0.01,0.58-0.05,0.86-0.13v3.17c-0.46,0.05-0.9,0.1-1.33,0.14c-0.43,0.05-0.88,0.07-1.33,0.07c-1.08,0-1.95-0.1-2.61-0.31
			s-1.18-0.5-1.55-0.9s-0.62-0.89-0.76-1.49c-0.13-0.6-0.21-1.28-0.23-2.05V63.15h-3.1V60.09z"/>
		<path class="st1" d="M543.32,74.56c0,0.5,0.07,0.86,0.2,1.08c0.13,0.22,0.39,0.32,0.77,0.32c0.12,0,0.26,0,0.43,0
			c0.17,0,0.36-0.02,0.58-0.07v2.84c-0.14,0.05-0.33,0.1-0.56,0.16c-0.23,0.06-0.46,0.11-0.7,0.16c-0.24,0.05-0.48,0.08-0.72,0.11
			c-0.24,0.02-0.44,0.04-0.61,0.04c-0.84,0-1.54-0.17-2.09-0.5s-0.91-0.92-1.08-1.76c-0.82,0.79-1.82,1.37-3.01,1.73
			c-1.19,0.36-2.33,0.54-3.44,0.54c-0.84,0-1.64-0.11-2.41-0.34c-0.77-0.23-1.45-0.56-2.03-1.01c-0.59-0.44-1.06-1.01-1.4-1.69
			s-0.52-1.48-0.52-2.39c0-1.15,0.21-2.09,0.63-2.81c0.42-0.72,0.97-1.28,1.66-1.69c0.68-0.41,1.45-0.7,2.3-0.88
			c0.85-0.18,1.71-0.32,2.57-0.41c0.74-0.14,1.45-0.25,2.12-0.31c0.67-0.06,1.27-0.16,1.78-0.31c0.52-0.14,0.92-0.37,1.22-0.67
			c0.3-0.3,0.45-0.75,0.45-1.35c0-0.53-0.13-0.96-0.38-1.3c-0.25-0.34-0.56-0.59-0.94-0.77c-0.37-0.18-0.79-0.3-1.24-0.36
			c-0.46-0.06-0.89-0.09-1.3-0.09c-1.15,0-2.1,0.24-2.84,0.72c-0.74,0.48-1.17,1.22-1.26,2.23h-4.1c0.07-1.2,0.36-2.2,0.86-2.99
			s1.15-1.43,1.93-1.91c0.78-0.48,1.66-0.82,2.65-1.01c0.98-0.19,1.99-0.29,3.02-0.29c0.91,0,1.81,0.1,2.7,0.29
			c0.89,0.19,1.69,0.5,2.39,0.94s1.28,0.99,1.71,1.67c0.43,0.68,0.65,1.52,0.65,2.5V74.56z M539.22,69.38
			c-0.62,0.41-1.39,0.65-2.3,0.74c-0.91,0.08-1.82,0.21-2.74,0.38c-0.43,0.07-0.85,0.17-1.26,0.31s-0.77,0.31-1.08,0.54
			s-0.56,0.53-0.74,0.9c-0.18,0.37-0.27,0.82-0.27,1.35c0,0.46,0.13,0.84,0.4,1.15c0.26,0.31,0.58,0.56,0.95,0.74
			c0.37,0.18,0.78,0.31,1.22,0.38c0.44,0.07,0.85,0.11,1.21,0.11c0.46,0,0.95-0.06,1.48-0.18c0.53-0.12,1.03-0.32,1.49-0.61
			c0.47-0.29,0.86-0.65,1.17-1.1c0.31-0.44,0.47-0.99,0.47-1.64V69.38z"/>
		<path class="st1" d="M563.73,74.56c0,0.5,0.07,0.86,0.2,1.08c0.13,0.22,0.39,0.32,0.77,0.32c0.12,0,0.26,0,0.43,0
			c0.17,0,0.36-0.02,0.58-0.07v2.84c-0.14,0.05-0.33,0.1-0.56,0.16c-0.23,0.06-0.46,0.11-0.7,0.16c-0.24,0.05-0.48,0.08-0.72,0.11
			c-0.24,0.02-0.44,0.04-0.61,0.04c-0.84,0-1.54-0.17-2.09-0.5s-0.91-0.92-1.08-1.76c-0.82,0.79-1.82,1.37-3.01,1.73
			c-1.19,0.36-2.33,0.54-3.44,0.54c-0.84,0-1.64-0.11-2.41-0.34c-0.77-0.23-1.45-0.56-2.03-1.01c-0.59-0.44-1.06-1.01-1.4-1.69
			s-0.52-1.48-0.52-2.39c0-1.15,0.21-2.09,0.63-2.81c0.42-0.72,0.97-1.28,1.66-1.69c0.68-0.41,1.45-0.7,2.3-0.88
			c0.85-0.18,1.71-0.32,2.57-0.41c0.74-0.14,1.45-0.25,2.12-0.31c0.67-0.06,1.27-0.16,1.78-0.31c0.52-0.14,0.92-0.37,1.22-0.67
			c0.3-0.3,0.45-0.75,0.45-1.35c0-0.53-0.13-0.96-0.38-1.3c-0.25-0.34-0.56-0.59-0.94-0.77c-0.37-0.18-0.79-0.3-1.24-0.36
			c-0.46-0.06-0.89-0.09-1.3-0.09c-1.15,0-2.1,0.24-2.84,0.72c-0.74,0.48-1.17,1.22-1.26,2.23h-4.1c0.07-1.2,0.36-2.2,0.86-2.99
			s1.15-1.43,1.93-1.91c0.78-0.48,1.66-0.82,2.65-1.01c0.98-0.19,1.99-0.29,3.02-0.29c0.91,0,1.81,0.1,2.7,0.29
			c0.89,0.19,1.69,0.5,2.39,0.94s1.28,0.99,1.71,1.67c0.43,0.68,0.65,1.52,0.65,2.5V74.56z M559.63,69.38
			c-0.62,0.41-1.39,0.65-2.3,0.74c-0.91,0.08-1.82,0.21-2.74,0.38c-0.43,0.07-0.85,0.17-1.26,0.31s-0.77,0.31-1.08,0.54
			s-0.56,0.53-0.74,0.9c-0.18,0.37-0.27,0.82-0.27,1.35c0,0.46,0.13,0.84,0.4,1.15c0.26,0.31,0.58,0.56,0.95,0.74
			c0.37,0.18,0.78,0.31,1.22,0.38c0.44,0.07,0.85,0.11,1.21,0.11c0.46,0,0.95-0.06,1.48-0.18c0.53-0.12,1.03-0.32,1.49-0.61
			c0.47-0.29,0.86-0.65,1.17-1.1c0.31-0.44,0.47-0.99,0.47-1.64V69.38z"/>
		<path class="st1" d="M566.68,60.09h3.1v-5.58h4.1v5.58h3.71v3.06h-3.71v9.94c0,0.43,0.02,0.8,0.05,1.12
			c0.04,0.31,0.12,0.58,0.25,0.79s0.33,0.38,0.59,0.49c0.26,0.11,0.62,0.16,1.08,0.16c0.29,0,0.58-0.01,0.86-0.02
			c0.29-0.01,0.58-0.05,0.86-0.13v3.17c-0.46,0.05-0.9,0.1-1.33,0.14c-0.43,0.05-0.88,0.07-1.33,0.07c-1.08,0-1.95-0.1-2.61-0.31
			s-1.18-0.5-1.55-0.9s-0.62-0.89-0.76-1.49c-0.13-0.6-0.21-1.28-0.23-2.05V63.15h-3.1V60.09z"/>
		<path class="st1" d="M581.05,53h4.1v25.7h-4.1V53z"/>
		<path class="st1" d="M590.12,53h4.1v3.89h-4.1V53z M590.12,60.09h4.1V78.7h-4.1V60.09z"/>
		<path class="st1" d="M611.65,66.32c-0.17-1.15-0.63-2.02-1.39-2.61c-0.76-0.59-1.71-0.88-2.86-0.88c-0.53,0-1.09,0.09-1.69,0.27
			c-0.6,0.18-1.15,0.52-1.66,1.01c-0.5,0.49-0.92,1.18-1.26,2.05c-0.34,0.88-0.5,2.02-0.5,3.44c0,0.77,0.09,1.54,0.27,2.3
			c0.18,0.77,0.47,1.45,0.86,2.05c0.4,0.6,0.91,1.09,1.53,1.46c0.62,0.37,1.38,0.56,2.27,0.56c1.2,0,2.19-0.37,2.97-1.12
			c0.78-0.74,1.27-1.79,1.46-3.13h4.1c-0.38,2.42-1.3,4.28-2.75,5.56c-1.45,1.28-3.38,1.93-5.78,1.93c-1.46,0-2.75-0.25-3.87-0.74
			s-2.06-1.16-2.83-2.02c-0.77-0.85-1.35-1.87-1.75-3.04c-0.4-1.18-0.59-2.45-0.59-3.82c0-1.39,0.19-2.7,0.58-3.92
			c0.38-1.22,0.96-2.29,1.73-3.19c0.77-0.9,1.72-1.61,2.86-2.12s2.48-0.77,4.01-0.77c1.08,0,2.11,0.14,3.08,0.41
			c0.97,0.28,1.84,0.69,2.59,1.24c0.76,0.55,1.37,1.25,1.85,2.09c0.48,0.84,0.77,1.84,0.86,2.99H611.65z"/>
		<path class="st1" d="M619.49,53h4.1v9.54h0.07c0.5-0.84,1.25-1.54,2.25-2.11c1-0.56,2.11-0.85,3.33-0.85
			c2.04,0,3.65,0.53,4.82,1.58c1.18,1.06,1.76,2.64,1.76,4.75V78.7h-4.1V67c-0.05-1.46-0.36-2.53-0.94-3.19
			c-0.58-0.66-1.48-0.99-2.7-0.99c-0.7,0-1.32,0.13-1.87,0.38s-1.02,0.6-1.4,1.04c-0.38,0.44-0.68,0.97-0.9,1.57
			c-0.22,0.6-0.32,1.24-0.32,1.91V78.7h-4.1V53z"/>
		<path class="st1" d="M514.56,111.73c0,2.81-0.79,4.9-2.36,6.28c-1.57,1.38-3.83,2.07-6.79,2.07c-0.94,0-1.88-0.1-2.83-0.29
			c-0.95-0.19-1.81-0.52-2.59-0.97c-0.78-0.46-1.43-1.06-1.96-1.8c-0.53-0.74-0.84-1.66-0.94-2.74h4.1c0.12,0.58,0.32,1.04,0.61,1.4
			c0.29,0.36,0.63,0.64,1.03,0.85c0.4,0.2,0.83,0.34,1.31,0.4c0.48,0.06,0.98,0.09,1.51,0.09c1.66,0,2.87-0.41,3.64-1.22
			c0.77-0.82,1.15-1.99,1.15-3.53v-2.84h-0.07c-0.58,1.03-1.36,1.84-2.36,2.41c-1,0.58-2.07,0.86-3.22,0.86
			c-1.49,0-2.75-0.26-3.8-0.77c-1.04-0.52-1.91-1.22-2.59-2.12c-0.68-0.9-1.18-1.94-1.49-3.11c-0.31-1.18-0.47-2.44-0.47-3.78
			c0-1.25,0.19-2.44,0.58-3.56c0.38-1.13,0.94-2.12,1.66-2.97c0.72-0.85,1.6-1.53,2.65-2.03s2.23-0.76,3.55-0.76
			c1.18,0,2.26,0.25,3.24,0.74c0.98,0.49,1.74,1.27,2.27,2.32h0.07v-2.56h4.1V111.73z M505.45,109.46c0.91,0,1.69-0.19,2.32-0.56
			s1.15-0.86,1.55-1.48c0.4-0.61,0.68-1.31,0.86-2.09s0.27-1.57,0.27-2.36s-0.1-1.56-0.29-2.3c-0.19-0.74-0.49-1.4-0.88-1.98
			c-0.4-0.58-0.91-1.03-1.55-1.37c-0.64-0.34-1.4-0.5-2.29-0.5c-0.91,0-1.68,0.19-2.3,0.58s-1.13,0.88-1.51,1.49
			c-0.38,0.61-0.66,1.31-0.83,2.09c-0.17,0.78-0.25,1.55-0.25,2.32c0,0.77,0.1,1.52,0.29,2.25c0.19,0.73,0.49,1.39,0.88,1.96
			c0.4,0.58,0.9,1.04,1.51,1.4C503.85,109.28,504.59,109.46,505.45,109.46z"/>
		<path class="st1" d="M522.3,104.46c0,0.72,0.1,1.42,0.31,2.09s0.51,1.26,0.92,1.76s0.92,0.91,1.55,1.21
			c0.62,0.3,1.37,0.45,2.23,0.45c1.2,0,2.17-0.26,2.9-0.77s1.28-1.29,1.64-2.32h3.89c-0.22,1.01-0.59,1.91-1.12,2.7
			s-1.16,1.46-1.91,2c-0.74,0.54-1.58,0.95-2.5,1.22c-0.92,0.28-1.89,0.41-2.9,0.41c-1.46,0-2.76-0.24-3.89-0.72
			c-1.13-0.48-2.08-1.15-2.86-2.02c-0.78-0.86-1.37-1.9-1.76-3.1c-0.4-1.2-0.59-2.52-0.59-3.96c0-1.32,0.21-2.57,0.63-3.76
			s1.02-2.23,1.8-3.13c0.78-0.9,1.72-1.61,2.83-2.14c1.1-0.53,2.35-0.79,3.74-0.79c1.46,0,2.78,0.31,3.94,0.92
			c1.16,0.61,2.13,1.42,2.9,2.43c0.77,1.01,1.33,2.17,1.67,3.47c0.35,1.31,0.44,2.66,0.27,4.05H522.3z M531.88,101.76
			c-0.05-0.65-0.19-1.27-0.41-1.87c-0.23-0.6-0.54-1.12-0.94-1.57c-0.4-0.44-0.88-0.8-1.44-1.08c-0.56-0.28-1.19-0.41-1.89-0.41
			c-0.72,0-1.37,0.13-1.96,0.38s-1.09,0.6-1.51,1.04c-0.42,0.44-0.76,0.97-1.01,1.57c-0.25,0.6-0.39,1.25-0.41,1.94H531.88z"/>
		<path class="st1" d="M539.61,94.09h3.89v2.52h0.07c0.58-1.08,1.38-1.85,2.41-2.32c1.03-0.47,2.15-0.7,3.35-0.7
			c1.46,0,2.74,0.26,3.83,0.77c1.09,0.52,2,1.22,2.72,2.12c0.72,0.9,1.26,1.95,1.62,3.15c0.36,1.2,0.54,2.48,0.54,3.85
			c0,1.25-0.16,2.46-0.49,3.64c-0.32,1.18-0.82,2.21-1.48,3.11c-0.66,0.9-1.49,1.62-2.5,2.16c-1.01,0.54-2.2,0.81-3.56,0.81
			c-0.6,0-1.2-0.05-1.8-0.16c-0.6-0.11-1.18-0.28-1.73-0.52c-0.55-0.24-1.06-0.55-1.53-0.92c-0.47-0.37-0.86-0.81-1.17-1.31h-0.07
			v9.29h-4.1V94.09z M553.94,103.42c0-0.84-0.11-1.66-0.32-2.45c-0.22-0.79-0.54-1.49-0.97-2.11c-0.43-0.61-0.97-1.1-1.62-1.48
			c-0.65-0.37-1.39-0.56-2.23-0.56c-1.73,0-3.03,0.6-3.91,1.8c-0.88,1.2-1.31,2.8-1.31,4.79c0,0.94,0.11,1.81,0.34,2.61
			c0.23,0.8,0.57,1.49,1.03,2.07c0.46,0.58,1,1.03,1.64,1.37c0.63,0.34,1.37,0.5,2.21,0.5c0.94,0,1.73-0.19,2.38-0.58
			c0.65-0.38,1.18-0.88,1.6-1.49c0.42-0.61,0.72-1.31,0.9-2.09C553.85,105.03,553.94,104.23,553.94,103.42z"/>
		<path class="st1" d="M561.9,94.09h3.85v3.6h0.07c0.12-0.5,0.35-1,0.7-1.48c0.35-0.48,0.77-0.92,1.26-1.31
			c0.49-0.4,1.04-0.71,1.64-0.95c0.6-0.24,1.21-0.36,1.84-0.36c0.48,0,0.81,0.01,0.99,0.04c0.18,0.02,0.37,0.05,0.56,0.07v3.96
			c-0.29-0.05-0.58-0.09-0.88-0.13c-0.3-0.04-0.59-0.05-0.88-0.05c-0.7,0-1.35,0.14-1.96,0.41c-0.61,0.28-1.15,0.68-1.6,1.22
			c-0.46,0.54-0.82,1.21-1.08,2c-0.26,0.79-0.4,1.7-0.4,2.74v8.86h-4.1V94.09z"/>
		<path class="st1" d="M591.31,112.7h-4.03v-2.59h-0.07c-0.5,0.94-1.25,1.69-2.25,2.25c-1,0.56-2.01,0.85-3.04,0.85
			c-2.45,0-4.22-0.61-5.31-1.82c-1.09-1.21-1.64-3.04-1.64-5.49V94.09h4.1v11.41c0,1.63,0.31,2.78,0.94,3.46
			c0.62,0.67,1.5,1.01,2.63,1.01c0.86,0,1.58-0.13,2.16-0.4s1.04-0.62,1.4-1.06c0.36-0.44,0.62-0.98,0.77-1.6
			c0.16-0.62,0.23-1.3,0.23-2.02v-10.8h4.1V112.7z M577.95,91.03v-3.89h4.1v3.89H577.95z M588.25,87.14v3.89h-4.1v-3.89H588.25z"/>
		<path class="st1" d="M594.19,94.09h3.06v-1.55c0-1.18,0.14-2.13,0.43-2.86c0.29-0.73,0.67-1.3,1.15-1.69s1.03-0.66,1.64-0.79
			c0.61-0.13,1.25-0.2,1.93-0.2c1.32,0,2.28,0.08,2.88,0.25v3.2c-0.26-0.07-0.55-0.13-0.85-0.16c-0.3-0.04-0.65-0.05-1.06-0.05
			c-0.55,0-1.03,0.13-1.42,0.4c-0.4,0.26-0.59,0.78-0.59,1.55v1.91h3.49v3.06h-3.49v15.55h-4.1V97.15h-3.06V94.09z"/>
		<path class="st1" d="M605.89,94.09h3.1v-5.58h4.1v5.58h3.71v3.06h-3.71v9.94c0,0.43,0.02,0.8,0.05,1.12
			c0.04,0.31,0.12,0.58,0.25,0.79s0.33,0.38,0.59,0.49c0.26,0.11,0.62,0.16,1.08,0.16c0.29,0,0.58-0.01,0.86-0.02
			c0.29-0.01,0.58-0.05,0.86-0.13v3.17c-0.46,0.05-0.9,0.1-1.33,0.14c-0.43,0.05-0.88,0.07-1.33,0.07c-1.08,0-1.95-0.1-2.61-0.31
			s-1.18-0.5-1.55-0.9s-0.62-0.89-0.76-1.49c-0.13-0.6-0.21-1.28-0.23-2.05V97.15h-3.1V94.09z"/>
		<path class="st1" d="M623.35,104.46c0,0.72,0.1,1.42,0.31,2.09s0.51,1.26,0.92,1.76s0.92,0.91,1.55,1.21
			c0.62,0.3,1.37,0.45,2.23,0.45c1.2,0,2.17-0.26,2.9-0.77s1.28-1.29,1.64-2.32h3.89c-0.22,1.01-0.59,1.91-1.12,2.7
			s-1.16,1.46-1.91,2c-0.74,0.54-1.58,0.95-2.5,1.22c-0.92,0.28-1.89,0.41-2.9,0.41c-1.46,0-2.76-0.24-3.89-0.72
			c-1.13-0.48-2.08-1.15-2.86-2.02c-0.78-0.86-1.37-1.9-1.76-3.1c-0.4-1.2-0.59-2.52-0.59-3.96c0-1.32,0.21-2.57,0.63-3.76
			s1.02-2.23,1.8-3.13c0.78-0.9,1.72-1.61,2.83-2.14c1.1-0.53,2.35-0.79,3.74-0.79c1.46,0,2.78,0.31,3.94,0.92
			c1.16,0.61,2.13,1.42,2.9,2.43c0.77,1.01,1.33,2.17,1.67,3.47c0.35,1.31,0.44,2.66,0.27,4.05H623.35z M632.93,101.76
			c-0.05-0.65-0.19-1.27-0.41-1.87c-0.23-0.6-0.54-1.12-0.94-1.57c-0.4-0.44-0.88-0.8-1.44-1.08c-0.56-0.28-1.19-0.41-1.89-0.41
			c-0.72,0-1.37,0.13-1.96,0.38s-1.09,0.6-1.51,1.04c-0.42,0.44-0.76,0.97-1.01,1.57c-0.25,0.6-0.39,1.25-0.41,1.94H632.93z"/>
		<path class="st4" d="M424.7,121h4.5v14.98c0,0.86,0.04,1.74,0.13,2.63c0.08,0.89,0.32,1.69,0.72,2.39c0.4,0.71,1,1.29,1.8,1.75
			c0.8,0.46,1.94,0.68,3.4,0.68s2.6-0.23,3.4-0.68c0.8-0.46,1.4-1.04,1.8-1.75c0.4-0.71,0.64-1.51,0.72-2.39
			c0.08-0.89,0.13-1.76,0.13-2.63V121h4.5v16.45c0,1.66-0.25,3.1-0.76,4.32c-0.5,1.22-1.22,2.25-2.14,3.08
			c-0.92,0.83-2.03,1.45-3.33,1.85c-1.3,0.41-2.74,0.61-4.32,0.61s-3.02-0.2-4.32-0.61c-1.3-0.41-2.41-1.03-3.33-1.85
			s-1.64-1.85-2.14-3.08c-0.5-1.22-0.76-2.66-0.76-4.32V121z"/>
		<path class="st4" d="M450.91,121h4.1v9.5h0.07c0.29-0.46,0.64-0.86,1.04-1.22c0.41-0.36,0.86-0.67,1.35-0.92
			c0.49-0.25,1.01-0.44,1.55-0.58c0.54-0.13,1.07-0.2,1.6-0.2c1.46,0,2.74,0.26,3.83,0.77c1.09,0.52,2,1.22,2.72,2.12
			c0.72,0.9,1.26,1.95,1.62,3.15c0.36,1.2,0.54,2.48,0.54,3.85c0,1.25-0.16,2.46-0.49,3.63c-0.32,1.18-0.82,2.21-1.48,3.12
			c-0.66,0.9-1.49,1.62-2.5,2.16c-1.01,0.54-2.2,0.81-3.56,0.81c-0.62,0-1.25-0.04-1.89-0.12c-0.64-0.08-1.24-0.25-1.82-0.49
			s-1.1-0.55-1.57-0.94c-0.47-0.38-0.86-0.89-1.17-1.51h-0.07v2.56h-3.89V121z M465.24,137.42c0-0.84-0.11-1.66-0.32-2.45
			c-0.22-0.79-0.54-1.49-0.97-2.11c-0.43-0.61-0.97-1.1-1.62-1.48c-0.65-0.37-1.39-0.56-2.23-0.56c-1.73,0-3.03,0.6-3.91,1.8
			c-0.88,1.2-1.31,2.8-1.31,4.79c0,0.94,0.11,1.81,0.34,2.61c0.23,0.8,0.57,1.49,1.03,2.07s1,1.03,1.64,1.37
			c0.63,0.34,1.37,0.5,2.21,0.5c0.94,0,1.73-0.19,2.38-0.58c0.65-0.38,1.18-0.88,1.6-1.49s0.72-1.31,0.9-2.09
			S465.24,138.23,465.24,137.42z"/>
		<path class="st4" d="M476.4,138.46c0,0.72,0.1,1.42,0.31,2.09s0.51,1.26,0.92,1.76s0.92,0.91,1.55,1.21
			c0.62,0.3,1.37,0.45,2.23,0.45c1.2,0,2.17-0.26,2.9-0.77c0.73-0.52,1.28-1.29,1.64-2.32h3.89c-0.22,1.01-0.59,1.91-1.12,2.7
			c-0.53,0.79-1.16,1.46-1.91,2c-0.74,0.54-1.58,0.95-2.5,1.22c-0.92,0.28-1.89,0.41-2.9,0.41c-1.46,0-2.76-0.24-3.89-0.72
			c-1.13-0.48-2.08-1.15-2.86-2.02c-0.78-0.86-1.37-1.9-1.76-3.1c-0.4-1.2-0.59-2.52-0.59-3.96c0-1.32,0.21-2.57,0.63-3.76
			s1.02-2.23,1.8-3.13c0.78-0.9,1.72-1.61,2.83-2.14c1.1-0.53,2.35-0.79,3.74-0.79c1.46,0,2.78,0.31,3.94,0.92
			c1.16,0.61,2.13,1.42,2.9,2.43c0.77,1.01,1.33,2.17,1.67,3.47c0.35,1.31,0.44,2.66,0.27,4.05H476.4z M485.97,135.76
			c-0.05-0.65-0.19-1.27-0.41-1.87c-0.23-0.6-0.54-1.12-0.94-1.57c-0.4-0.44-0.88-0.8-1.44-1.08c-0.56-0.28-1.19-0.41-1.89-0.41
			c-0.72,0-1.37,0.13-1.96,0.38s-1.09,0.6-1.51,1.04c-0.42,0.44-0.76,0.97-1.01,1.57c-0.25,0.6-0.39,1.25-0.41,1.94H485.97z"/>
		<path class="st4" d="M493.61,128.09h3.85v3.6h0.07c0.12-0.5,0.35-1,0.7-1.48c0.35-0.48,0.77-0.92,1.26-1.31
			c0.49-0.4,1.04-0.71,1.64-0.95c0.6-0.24,1.21-0.36,1.84-0.36c0.48,0,0.81,0.01,0.99,0.04c0.18,0.02,0.37,0.05,0.56,0.07v3.96
			c-0.29-0.05-0.58-0.09-0.88-0.13c-0.3-0.04-0.59-0.05-0.88-0.05c-0.7,0-1.35,0.14-1.96,0.41c-0.61,0.28-1.15,0.68-1.6,1.22
			c-0.46,0.54-0.82,1.21-1.08,2c-0.26,0.79-0.4,1.71-0.4,2.74v8.86h-4.1V128.09z"/>
		<path class="st4" d="M509.77,140.73c0.12,1.2,0.58,2.04,1.37,2.52s1.74,0.72,2.84,0.72c0.38,0,0.82-0.03,1.31-0.09
			c0.49-0.06,0.95-0.17,1.39-0.34c0.43-0.17,0.79-0.41,1.06-0.74c0.28-0.32,0.4-0.75,0.38-1.28c-0.02-0.53-0.22-0.96-0.58-1.3
			c-0.36-0.34-0.82-0.61-1.39-0.81c-0.56-0.2-1.21-0.38-1.93-0.52c-0.72-0.14-1.45-0.3-2.2-0.47c-0.77-0.17-1.51-0.37-2.21-0.61
			c-0.71-0.24-1.34-0.56-1.91-0.97c-0.56-0.41-1.01-0.93-1.35-1.57c-0.34-0.64-0.5-1.42-0.5-2.36c0-1.01,0.25-1.85,0.74-2.54
			c0.49-0.68,1.12-1.24,1.87-1.66s1.6-0.71,2.52-0.88s1.81-0.25,2.65-0.25c0.96,0,1.88,0.1,2.75,0.31c0.88,0.2,1.67,0.53,2.38,0.99
			c0.71,0.46,1.3,1.05,1.76,1.78c0.47,0.73,0.76,1.61,0.88,2.65h-4.28c-0.19-0.98-0.64-1.64-1.35-1.98c-0.71-0.34-1.52-0.5-2.43-0.5
			c-0.29,0-0.63,0.02-1.03,0.07c-0.4,0.05-0.77,0.14-1.12,0.27c-0.35,0.13-0.64,0.32-0.88,0.58s-0.36,0.58-0.36,0.99
			c0,0.5,0.17,0.91,0.52,1.22c0.35,0.31,0.8,0.57,1.37,0.77c0.56,0.2,1.21,0.38,1.93,0.52c0.72,0.14,1.46,0.3,2.23,0.47
			c0.74,0.17,1.48,0.37,2.2,0.61c0.72,0.24,1.36,0.56,1.93,0.97c0.56,0.41,1.02,0.92,1.37,1.55c0.35,0.62,0.52,1.39,0.52,2.3
			c0,1.1-0.25,2.04-0.76,2.81s-1.16,1.39-1.96,1.87c-0.8,0.48-1.7,0.83-2.68,1.04s-1.96,0.32-2.92,0.32c-1.18,0-2.26-0.13-3.26-0.4
			s-1.86-0.67-2.59-1.21c-0.73-0.54-1.31-1.21-1.73-2.02c-0.42-0.8-0.64-1.76-0.67-2.86H509.77z"/>
		<path class="st4" d="M528.96,138.46c0,0.72,0.1,1.42,0.31,2.09s0.51,1.26,0.92,1.76s0.92,0.91,1.55,1.21
			c0.62,0.3,1.37,0.45,2.23,0.45c1.2,0,2.17-0.26,2.9-0.77c0.73-0.52,1.28-1.29,1.64-2.32h3.89c-0.22,1.01-0.59,1.91-1.12,2.7
			c-0.53,0.79-1.16,1.46-1.91,2c-0.74,0.54-1.58,0.95-2.5,1.22c-0.92,0.28-1.89,0.41-2.9,0.41c-1.46,0-2.76-0.24-3.89-0.72
			c-1.13-0.48-2.08-1.15-2.86-2.02c-0.78-0.86-1.37-1.9-1.76-3.1c-0.4-1.2-0.59-2.52-0.59-3.96c0-1.32,0.21-2.57,0.63-3.76
			s1.02-2.23,1.8-3.13c0.78-0.9,1.72-1.61,2.83-2.14c1.1-0.53,2.35-0.79,3.74-0.79c1.46,0,2.78,0.31,3.94,0.92
			c1.16,0.61,2.13,1.42,2.9,2.43c0.77,1.01,1.33,2.17,1.67,3.47c0.35,1.31,0.44,2.66,0.27,4.05H528.96z M538.53,135.76
			c-0.05-0.65-0.19-1.27-0.41-1.87c-0.23-0.6-0.54-1.12-0.94-1.57c-0.4-0.44-0.88-0.8-1.44-1.08c-0.56-0.28-1.19-0.41-1.89-0.41
			c-0.72,0-1.37,0.13-1.96,0.38s-1.09,0.6-1.51,1.04c-0.42,0.44-0.76,0.97-1.01,1.57c-0.25,0.6-0.39,1.25-0.41,1.94H538.53z"/>
		<path class="st4" d="M544.29,128.09h3.1v-5.58h4.1v5.58h3.71v3.06h-3.71v9.94c0,0.43,0.02,0.8,0.05,1.12
			c0.04,0.31,0.12,0.58,0.25,0.79c0.13,0.21,0.33,0.38,0.59,0.49s0.62,0.16,1.08,0.16c0.29,0,0.58,0,0.86-0.02
			c0.29-0.01,0.58-0.05,0.86-0.12v3.17c-0.46,0.05-0.9,0.1-1.33,0.14c-0.43,0.05-0.88,0.07-1.33,0.07c-1.08,0-1.95-0.1-2.61-0.31
			c-0.66-0.2-1.18-0.5-1.55-0.9s-0.62-0.89-0.76-1.49c-0.13-0.6-0.21-1.28-0.23-2.05v-10.98h-3.1V128.09z"/>
		<path class="st4" d="M557.9,128.09h15.12v2.88l-10.66,12.49h11.2v3.24h-16.38v-2.88l10.3-12.49h-9.58V128.09z"/>
		<path class="st4" d="M580.15,138.46c0,0.72,0.1,1.42,0.31,2.09s0.51,1.26,0.92,1.76s0.92,0.91,1.55,1.21
			c0.62,0.3,1.37,0.45,2.23,0.45c1.2,0,2.17-0.26,2.9-0.77c0.73-0.52,1.28-1.29,1.64-2.32h3.89c-0.22,1.01-0.59,1.91-1.12,2.7
			c-0.53,0.79-1.16,1.46-1.91,2c-0.74,0.54-1.58,0.95-2.5,1.22c-0.92,0.28-1.89,0.41-2.9,0.41c-1.46,0-2.76-0.24-3.89-0.72
			c-1.13-0.48-2.08-1.15-2.86-2.02c-0.78-0.86-1.37-1.9-1.76-3.1c-0.4-1.2-0.59-2.52-0.59-3.96c0-1.32,0.21-2.57,0.63-3.76
			s1.02-2.23,1.8-3.13c0.78-0.9,1.72-1.61,2.83-2.14c1.1-0.53,2.35-0.79,3.74-0.79c1.46,0,2.78,0.31,3.94,0.92
			c1.16,0.61,2.13,1.42,2.9,2.43c0.77,1.01,1.33,2.17,1.67,3.47c0.35,1.31,0.44,2.66,0.27,4.05H580.15z M589.72,135.76
			c-0.05-0.65-0.19-1.27-0.41-1.87c-0.23-0.6-0.54-1.12-0.94-1.57c-0.4-0.44-0.88-0.8-1.44-1.08c-0.56-0.28-1.19-0.41-1.89-0.41
			c-0.72,0-1.37,0.13-1.96,0.38s-1.09,0.6-1.51,1.04c-0.42,0.44-0.76,0.97-1.01,1.57c-0.25,0.6-0.39,1.25-0.41,1.94H589.72z"/>
		<path class="st4" d="M597.36,128.09h3.85v3.6h0.07c0.12-0.5,0.35-1,0.7-1.48c0.35-0.48,0.77-0.92,1.26-1.31
			c0.49-0.4,1.04-0.71,1.64-0.95c0.6-0.24,1.21-0.36,1.84-0.36c0.48,0,0.81,0.01,0.99,0.04c0.18,0.02,0.37,0.05,0.56,0.07v3.96
			c-0.29-0.05-0.58-0.09-0.88-0.13c-0.3-0.04-0.59-0.05-0.88-0.05c-0.7,0-1.35,0.14-1.96,0.41c-0.61,0.28-1.15,0.68-1.6,1.22
			c-0.46,0.54-0.82,1.21-1.08,2c-0.26,0.79-0.4,1.71-0.4,2.74v8.86h-4.1V128.09z"/>
		<path class="st4" d="M610.53,121h4.1v3.89h-4.1V121z M610.53,128.09h4.1v18.61h-4.1V128.09z"/>
		<path class="st4" d="M619.5,128.09h3.89v2.74l0.07,0.07c0.62-1.03,1.44-1.84,2.45-2.43c1.01-0.59,2.12-0.88,3.35-0.88
			c2.04,0,3.65,0.53,4.82,1.58c1.18,1.06,1.76,2.64,1.76,4.75v12.78h-4.1V135c-0.05-1.46-0.36-2.53-0.94-3.19
			c-0.58-0.66-1.48-0.99-2.7-0.99c-0.7,0-1.32,0.13-1.87,0.38s-1.02,0.6-1.4,1.04c-0.38,0.44-0.68,0.97-0.9,1.57
			c-0.22,0.6-0.32,1.24-0.32,1.91v10.98h-4.1V128.09z"/>
	</g>
	<g>
		<rect x="79.07" y="120" class="st2" width="342.93" height="29"/>
		<path class="st1" d="M100.27,128.63c-0.2-0.79-0.48-1.51-0.84-2.17c-0.36-0.66-0.81-1.23-1.37-1.71
			c-0.56-0.48-1.21-0.85-1.96-1.12c-0.75-0.27-1.61-0.4-2.6-0.4c-1.44,0-2.69,0.29-3.74,0.87c-1.05,0.58-1.91,1.36-2.56,2.34
			c-0.66,0.98-1.15,2.08-1.46,3.32c-0.32,1.24-0.48,2.51-0.48,3.8s0.16,2.56,0.48,3.8c0.32,1.24,0.8,2.35,1.46,3.33
			c0.66,0.97,1.51,1.75,2.56,2.34c1.05,0.58,2.3,0.88,3.74,0.88c1.06,0,2-0.18,2.81-0.55c0.81-0.37,1.51-0.88,2.09-1.52
			c0.58-0.65,1.04-1.4,1.37-2.26c0.33-0.86,0.54-1.79,0.65-2.77h4.64c-0.1,1.62-0.45,3.1-1.05,4.45s-1.4,2.5-2.41,3.48
			c-1.01,0.98-2.2,1.73-3.57,2.26c-1.37,0.53-2.88,0.8-4.52,0.8c-2.03,0-3.84-0.37-5.45-1.12c-1.61-0.75-2.97-1.77-4.08-3.06
			s-1.97-2.8-2.56-4.52s-0.89-3.56-0.89-5.51c0-1.92,0.3-3.75,0.89-5.47c0.6-1.72,1.45-3.23,2.56-4.52s2.48-2.32,4.08-3.08
			c1.61-0.76,3.43-1.14,5.45-1.14c1.52,0,2.95,0.21,4.29,0.63s2.53,1.03,3.55,1.82c1.03,0.8,1.86,1.77,2.49,2.91
			s1.03,2.44,1.18,3.91H100.27z"/>
		<path class="st1" d="M112.58,138.43c0,0.76,0.11,1.5,0.32,2.2c0.21,0.71,0.54,1.33,0.97,1.86c0.43,0.53,0.97,0.96,1.63,1.27
			c0.66,0.32,1.44,0.47,2.36,0.47c1.27,0,2.29-0.27,3.06-0.82c0.77-0.54,1.35-1.36,1.73-2.45h4.1c-0.23,1.06-0.62,2.01-1.18,2.85
			c-0.56,0.84-1.23,1.54-2.01,2.11c-0.79,0.57-1.67,1-2.64,1.29c-0.98,0.29-2,0.44-3.06,0.44c-1.55,0-2.91-0.25-4.1-0.76
			c-1.19-0.51-2.2-1.22-3.02-2.13s-1.44-2-1.86-3.27c-0.42-1.27-0.63-2.66-0.63-4.18c0-1.39,0.22-2.72,0.67-3.97
			c0.44-1.25,1.08-2.36,1.9-3.31c0.82-0.95,1.82-1.7,2.98-2.26c1.17-0.56,2.48-0.84,3.95-0.84c1.54,0,2.93,0.32,4.16,0.97
			c1.23,0.65,2.25,1.5,3.06,2.56c0.81,1.06,1.4,2.29,1.77,3.67c0.37,1.38,0.46,2.81,0.29,4.27H112.58z M122.69,135.58
			c-0.05-0.68-0.2-1.34-0.44-1.98c-0.24-0.63-0.57-1.18-0.99-1.65c-0.42-0.47-0.93-0.85-1.52-1.14c-0.6-0.29-1.26-0.44-2-0.44
			c-0.76,0-1.45,0.13-2.07,0.4c-0.62,0.27-1.15,0.63-1.6,1.1c-0.44,0.47-0.8,1.02-1.06,1.65c-0.27,0.63-0.41,1.32-0.44,2.05H122.69z
			"/>
		<path class="st1" d="M130.75,127.49h4.07v3.8h0.08c0.13-0.53,0.37-1.05,0.74-1.56c0.37-0.51,0.81-0.97,1.33-1.39
			c0.52-0.42,1.1-0.75,1.73-1.01c0.63-0.25,1.28-0.38,1.94-0.38c0.51,0,0.85,0.01,1.04,0.04c0.19,0.03,0.39,0.05,0.59,0.08v4.18
			c-0.3-0.05-0.61-0.1-0.93-0.13s-0.63-0.06-0.93-0.06c-0.74,0-1.43,0.15-2.07,0.44c-0.65,0.29-1.21,0.72-1.69,1.29
			c-0.48,0.57-0.86,1.27-1.14,2.11c-0.28,0.84-0.42,1.8-0.42,2.89v9.35h-4.33V127.49z"/>
		<path class="st1" d="M142.56,127.49h3.27v-5.89h4.33v5.89h3.91v3.23h-3.91v10.49c0,0.46,0.02,0.85,0.06,1.18s0.13,0.61,0.27,0.84
			c0.14,0.23,0.35,0.4,0.63,0.51c0.28,0.11,0.66,0.17,1.14,0.17c0.3,0,0.61-0.01,0.91-0.02c0.3-0.01,0.61-0.06,0.91-0.13v3.34
			c-0.48,0.05-0.95,0.1-1.41,0.15s-0.92,0.08-1.41,0.08c-1.14,0-2.06-0.11-2.75-0.32c-0.7-0.22-1.24-0.53-1.63-0.95
			c-0.39-0.42-0.66-0.94-0.8-1.58c-0.14-0.63-0.22-1.35-0.25-2.17v-11.59h-3.27V127.49z"/>
		<path class="st1" d="M157.72,120h4.33v4.1h-4.33V120z M157.72,127.49h4.33v19.65h-4.33V127.49z"/>
		<path class="st1" d="M165.25,127.49h3.23v-1.63c0-1.24,0.15-2.25,0.46-3.02c0.3-0.77,0.71-1.37,1.22-1.79
			c0.51-0.42,1.08-0.7,1.73-0.84c0.65-0.14,1.32-0.21,2.03-0.21c1.39,0,2.41,0.09,3.04,0.27v3.38c-0.28-0.08-0.58-0.13-0.89-0.17
			c-0.32-0.04-0.69-0.06-1.12-0.06c-0.58,0-1.08,0.14-1.5,0.42c-0.42,0.28-0.63,0.82-0.63,1.63v2.01h3.69v3.23h-3.69v16.42h-4.33
			v-16.42h-3.23V127.49z"/>
		<path class="st1" d="M179.69,120h4.33v4.1h-4.33V120z M179.69,127.49h4.33v19.65h-4.33V127.49z"/>
		<path class="st1" d="M192.53,138.43c0,0.76,0.11,1.5,0.32,2.2c0.21,0.71,0.54,1.33,0.97,1.86c0.43,0.53,0.97,0.96,1.63,1.27
			c0.66,0.32,1.44,0.47,2.36,0.47c1.27,0,2.29-0.27,3.06-0.82c0.77-0.54,1.35-1.36,1.73-2.45h4.1c-0.23,1.06-0.62,2.01-1.18,2.85
			c-0.56,0.84-1.23,1.54-2.01,2.11c-0.79,0.57-1.67,1-2.64,1.29c-0.98,0.29-2,0.44-3.06,0.44c-1.55,0-2.91-0.25-4.1-0.76
			c-1.19-0.51-2.2-1.22-3.02-2.13c-0.82-0.91-1.44-2-1.86-3.27c-0.42-1.27-0.63-2.66-0.63-4.18c0-1.39,0.22-2.72,0.67-3.97
			c0.44-1.25,1.08-2.36,1.9-3.31c0.82-0.95,1.82-1.7,2.98-2.26s2.48-0.84,3.95-0.84c1.54,0,2.93,0.32,4.16,0.97
			c1.23,0.65,2.25,1.5,3.06,2.56s1.4,2.29,1.77,3.67c0.37,1.38,0.46,2.81,0.28,4.27H192.53z M202.64,135.58
			c-0.05-0.68-0.2-1.34-0.44-1.98c-0.24-0.63-0.57-1.18-0.99-1.65c-0.42-0.47-0.92-0.85-1.52-1.14c-0.6-0.29-1.26-0.44-2-0.44
			c-0.76,0-1.45,0.13-2.07,0.4s-1.15,0.63-1.6,1.1c-0.44,0.47-0.8,1.02-1.06,1.65c-0.27,0.63-0.41,1.32-0.44,2.05H202.64z"/>
		<path class="st1" d="M229.2,147.13h-4.1v-2.66h-0.08c-0.58,1.14-1.43,1.96-2.55,2.45c-1.11,0.49-2.29,0.74-3.53,0.74
			c-1.55,0-2.89-0.27-4.05-0.82c-1.15-0.54-2.11-1.29-2.87-2.22c-0.76-0.94-1.33-2.05-1.71-3.33c-0.38-1.28-0.57-2.65-0.57-4.12
			c0-1.77,0.24-3.31,0.72-4.6s1.12-2.36,1.92-3.19s1.71-1.45,2.74-1.84c1.03-0.39,2.07-0.59,3.13-0.59c0.61,0,1.23,0.06,1.86,0.17
			c0.63,0.11,1.24,0.3,1.82,0.55c0.58,0.25,1.12,0.58,1.61,0.97c0.49,0.39,0.91,0.85,1.24,1.39h0.08V120h4.33V147.13z
			 M214.08,137.52c0,0.84,0.11,1.66,0.32,2.47c0.21,0.81,0.54,1.53,0.99,2.17s1.01,1.14,1.69,1.52s1.49,0.57,2.43,0.57
			c0.96,0,1.79-0.2,2.49-0.61c0.7-0.41,1.27-0.94,1.71-1.6s0.77-1.4,0.99-2.22c0.21-0.82,0.32-1.67,0.32-2.53
			c0-2.18-0.49-3.88-1.46-5.09c-0.98-1.22-2.3-1.82-3.97-1.82c-1.01,0-1.87,0.21-2.56,0.63c-0.7,0.42-1.27,0.96-1.71,1.63
			c-0.44,0.67-0.76,1.43-0.95,2.28C214.17,135.76,214.08,136.63,214.08,137.52z"/>
		<path class="st4" d="M243.34,127.49h3.27v-5.89h4.33v5.89h3.91v3.23h-3.91v10.49c0,0.46,0.02,0.85,0.06,1.18s0.13,0.61,0.27,0.84
			c0.14,0.23,0.35,0.4,0.63,0.51c0.28,0.11,0.66,0.17,1.14,0.17c0.3,0,0.61-0.01,0.91-0.02c0.3-0.01,0.61-0.06,0.91-0.13v3.34
			c-0.48,0.05-0.95,0.1-1.41,0.15s-0.92,0.08-1.41,0.08c-1.14,0-2.06-0.11-2.75-0.32c-0.7-0.22-1.24-0.53-1.63-0.95
			c-0.39-0.42-0.66-0.94-0.8-1.58c-0.14-0.63-0.22-1.35-0.25-2.17v-11.59h-3.27V127.49z"/>
		<path class="st4" d="M258.39,127.49h4.07v3.8h0.08c0.13-0.53,0.37-1.05,0.74-1.56s0.81-0.97,1.33-1.39
			c0.52-0.42,1.1-0.75,1.73-1.01c0.63-0.25,1.28-0.38,1.94-0.38c0.51,0,0.85,0.01,1.04,0.04c0.19,0.03,0.39,0.05,0.59,0.08v4.18
			c-0.3-0.05-0.61-0.1-0.93-0.13c-0.32-0.04-0.63-0.06-0.93-0.06c-0.73,0-1.42,0.15-2.07,0.44c-0.65,0.29-1.21,0.72-1.69,1.29
			c-0.48,0.57-0.86,1.27-1.14,2.11c-0.28,0.84-0.42,1.8-0.42,2.89v9.35h-4.33V127.49z"/>
		<path class="st4" d="M288.63,142.76c0,0.53,0.07,0.91,0.21,1.14c0.14,0.23,0.41,0.34,0.82,0.34c0.13,0,0.28,0,0.46,0
			c0.18,0,0.38-0.03,0.61-0.08v3c-0.15,0.05-0.35,0.11-0.59,0.17c-0.24,0.06-0.49,0.12-0.74,0.17c-0.25,0.05-0.51,0.09-0.76,0.11
			c-0.25,0.02-0.47,0.04-0.65,0.04c-0.89,0-1.62-0.18-2.2-0.53s-0.96-0.98-1.14-1.86c-0.86,0.84-1.92,1.44-3.17,1.82
			s-2.46,0.57-3.63,0.57c-0.89,0-1.74-0.12-2.55-0.36c-0.81-0.24-1.53-0.59-2.15-1.06c-0.62-0.47-1.12-1.06-1.48-1.79
			c-0.37-0.72-0.55-1.56-0.55-2.53c0-1.22,0.22-2.2,0.67-2.96c0.44-0.76,1.03-1.35,1.75-1.79c0.72-0.43,1.53-0.74,2.43-0.93
			c0.9-0.19,1.81-0.33,2.72-0.44c0.78-0.15,1.53-0.26,2.24-0.32c0.71-0.06,1.34-0.17,1.88-0.32c0.54-0.15,0.97-0.39,1.29-0.7
			c0.32-0.32,0.47-0.79,0.47-1.43c0-0.56-0.13-1.01-0.4-1.37c-0.27-0.35-0.59-0.63-0.99-0.82c-0.39-0.19-0.83-0.32-1.31-0.38
			c-0.48-0.06-0.94-0.09-1.37-0.09c-1.22,0-2.22,0.25-3,0.76c-0.79,0.51-1.23,1.29-1.33,2.36h-4.33c0.08-1.27,0.38-2.32,0.91-3.15
			c0.53-0.84,1.21-1.51,2.03-2.01c0.82-0.51,1.75-0.86,2.79-1.06c1.04-0.2,2.1-0.3,3.19-0.3c0.96,0,1.91,0.1,2.85,0.3
			c0.94,0.2,1.78,0.53,2.53,0.99c0.75,0.46,1.35,1.05,1.8,1.77c0.46,0.72,0.68,1.6,0.68,2.64V142.76z M284.3,137.29
			c-0.66,0.43-1.47,0.69-2.43,0.78c-0.96,0.09-1.92,0.22-2.89,0.4c-0.46,0.08-0.9,0.18-1.33,0.32s-0.81,0.33-1.14,0.57
			c-0.33,0.24-0.59,0.56-0.78,0.95c-0.19,0.39-0.29,0.87-0.29,1.43c0,0.48,0.14,0.89,0.42,1.21c0.28,0.33,0.61,0.59,1.01,0.78
			c0.39,0.19,0.82,0.32,1.29,0.4s0.89,0.11,1.27,0.11c0.48,0,1-0.06,1.56-0.19c0.56-0.13,1.08-0.34,1.58-0.65
			c0.49-0.3,0.91-0.69,1.24-1.16c0.33-0.47,0.49-1.05,0.49-1.73V137.29z"/>
		<path class="st4" d="M293.73,127.49h4.1v2.89l0.08,0.08c0.66-1.09,1.52-1.94,2.58-2.56c1.06-0.62,2.24-0.93,3.53-0.93
			c2.15,0,3.85,0.56,5.09,1.67s1.86,2.79,1.86,5.02v13.49h-4.33v-12.35c-0.05-1.54-0.38-2.67-0.99-3.36s-1.56-1.04-2.85-1.04
			c-0.74,0-1.39,0.13-1.98,0.4s-1.08,0.63-1.48,1.1c-0.41,0.47-0.72,1.02-0.95,1.65c-0.23,0.63-0.34,1.31-0.34,2.01v11.59h-4.33
			V127.49z"/>
		<path class="st4" d="M319.22,140.82c0.13,1.27,0.61,2.15,1.44,2.66c0.84,0.51,1.84,0.76,3,0.76c0.41,0,0.87-0.03,1.39-0.1
			c0.52-0.06,1.01-0.18,1.46-0.36c0.46-0.18,0.83-0.44,1.12-0.78c0.29-0.34,0.42-0.79,0.4-1.35c-0.03-0.56-0.23-1.01-0.61-1.37
			s-0.87-0.64-1.46-0.85c-0.6-0.22-1.27-0.4-2.03-0.55s-1.53-0.32-2.32-0.49c-0.81-0.18-1.59-0.39-2.34-0.65
			c-0.75-0.25-1.42-0.6-2.01-1.03c-0.6-0.43-1.07-0.98-1.42-1.65c-0.36-0.67-0.53-1.5-0.53-2.49c0-1.06,0.26-1.96,0.78-2.68
			c0.52-0.72,1.18-1.3,1.98-1.75c0.8-0.44,1.68-0.75,2.66-0.93c0.98-0.18,1.91-0.27,2.79-0.27c1.01,0,1.98,0.11,2.91,0.32
			c0.92,0.22,1.76,0.56,2.51,1.04c0.75,0.48,1.37,1.11,1.86,1.88c0.49,0.77,0.8,1.7,0.93,2.79h-4.52c-0.2-1.04-0.68-1.73-1.43-2.09
			c-0.75-0.35-1.6-0.53-2.56-0.53c-0.3,0-0.67,0.03-1.08,0.08c-0.42,0.05-0.81,0.15-1.18,0.29c-0.37,0.14-0.68,0.34-0.93,0.61
			s-0.38,0.61-0.38,1.04c0,0.53,0.18,0.96,0.55,1.29c0.37,0.33,0.85,0.6,1.44,0.82c0.59,0.22,1.27,0.4,2.03,0.55
			c0.76,0.15,1.54,0.32,2.36,0.49c0.79,0.18,1.56,0.39,2.32,0.65c0.76,0.25,1.44,0.6,2.03,1.03c0.59,0.43,1.08,0.98,1.44,1.63
			c0.37,0.66,0.55,1.47,0.55,2.43c0,1.17-0.27,2.15-0.8,2.96c-0.53,0.81-1.22,1.47-2.07,1.98c-0.85,0.51-1.79,0.87-2.83,1.1
			c-1.04,0.23-2.07,0.34-3.08,0.34c-1.24,0-2.39-0.14-3.44-0.42c-1.05-0.28-1.96-0.7-2.74-1.27c-0.77-0.57-1.38-1.28-1.82-2.13
			s-0.68-1.86-0.7-3.02H319.22z"/>
		<path class="st4" d="M336.21,120h4.33v27.13h-4.33V120z"/>
		<path class="st4" d="M362.13,142.76c0,0.53,0.07,0.91,0.21,1.14c0.14,0.23,0.41,0.34,0.82,0.34c0.13,0,0.28,0,0.46,0
			c0.18,0,0.38-0.03,0.61-0.08v3c-0.15,0.05-0.35,0.11-0.59,0.17c-0.24,0.06-0.49,0.12-0.74,0.17c-0.25,0.05-0.51,0.09-0.76,0.11
			c-0.25,0.02-0.47,0.04-0.65,0.04c-0.89,0-1.62-0.18-2.2-0.53s-0.96-0.98-1.14-1.86c-0.86,0.84-1.92,1.44-3.17,1.82
			s-2.46,0.57-3.63,0.57c-0.89,0-1.74-0.12-2.55-0.36c-0.81-0.24-1.53-0.59-2.15-1.06c-0.62-0.47-1.12-1.06-1.48-1.79
			c-0.37-0.72-0.55-1.56-0.55-2.53c0-1.22,0.22-2.2,0.67-2.96c0.44-0.76,1.03-1.35,1.75-1.79c0.72-0.43,1.53-0.74,2.43-0.93
			c0.9-0.19,1.81-0.33,2.72-0.44c0.78-0.15,1.53-0.26,2.24-0.32c0.71-0.06,1.34-0.17,1.88-0.32c0.54-0.15,0.97-0.39,1.29-0.7
			c0.32-0.32,0.47-0.79,0.47-1.43c0-0.56-0.13-1.01-0.4-1.37c-0.27-0.35-0.59-0.63-0.99-0.82c-0.39-0.19-0.83-0.32-1.31-0.38
			c-0.48-0.06-0.94-0.09-1.37-0.09c-1.22,0-2.22,0.25-3,0.76c-0.79,0.51-1.23,1.29-1.33,2.36h-4.33c0.08-1.27,0.38-2.32,0.91-3.15
			c0.53-0.84,1.21-1.51,2.03-2.01c0.82-0.51,1.75-0.86,2.79-1.06c1.04-0.2,2.1-0.3,3.19-0.3c0.96,0,1.91,0.1,2.85,0.3
			c0.94,0.2,1.78,0.53,2.53,0.99c0.75,0.46,1.35,1.05,1.8,1.77c0.46,0.72,0.68,1.6,0.68,2.64V142.76z M357.79,137.29
			c-0.66,0.43-1.47,0.69-2.43,0.78c-0.96,0.09-1.92,0.22-2.89,0.4c-0.46,0.08-0.9,0.18-1.33,0.32s-0.81,0.33-1.14,0.57
			c-0.33,0.24-0.59,0.56-0.78,0.95c-0.19,0.39-0.29,0.87-0.29,1.43c0,0.48,0.14,0.89,0.42,1.21c0.28,0.33,0.61,0.59,1.01,0.78
			c0.39,0.19,0.82,0.32,1.29,0.4s0.89,0.11,1.27,0.11c0.48,0,1-0.06,1.56-0.19c0.56-0.13,1.08-0.34,1.58-0.65
			c0.49-0.3,0.91-0.69,1.24-1.16c0.33-0.47,0.49-1.05,0.49-1.73V137.29z"/>
		<path class="st4" d="M365.24,127.49h3.27v-5.89h4.33v5.89h3.91v3.23h-3.91v10.49c0,0.46,0.02,0.85,0.06,1.18s0.13,0.61,0.27,0.84
			c0.14,0.23,0.35,0.4,0.63,0.51c0.28,0.11,0.66,0.17,1.14,0.17c0.3,0,0.61-0.01,0.91-0.02c0.3-0.01,0.61-0.06,0.91-0.13v3.34
			c-0.48,0.05-0.95,0.1-1.41,0.15s-0.92,0.08-1.41,0.08c-1.14,0-2.06-0.11-2.75-0.32c-0.7-0.22-1.24-0.53-1.63-0.95
			c-0.39-0.42-0.66-0.94-0.8-1.58c-0.14-0.63-0.22-1.35-0.25-2.17v-11.59h-3.27V127.49z"/>
		<path class="st4" d="M389.3,147.66c-1.57,0-2.97-0.26-4.2-0.78s-2.27-1.23-3.12-2.15s-1.5-2-1.94-3.27
			c-0.44-1.27-0.67-2.66-0.67-4.18c0-1.5,0.22-2.88,0.67-4.14c0.44-1.27,1.09-2.36,1.94-3.27s1.89-1.63,3.12-2.15
			c1.23-0.52,2.63-0.78,4.2-0.78c1.57,0,2.97,0.26,4.2,0.78c1.23,0.52,2.27,1.23,3.12,2.15s1.5,2,1.94,3.27
			c0.44,1.27,0.67,2.65,0.67,4.14c0,1.52-0.22,2.91-0.67,4.18s-1.09,2.36-1.94,3.27s-1.89,1.63-3.12,2.15
			C392.27,147.4,390.87,147.66,389.3,147.66z M389.3,144.24c0.96,0,1.8-0.2,2.51-0.61c0.71-0.41,1.29-0.94,1.75-1.6
			s0.79-1.4,1.01-2.22c0.21-0.82,0.32-1.67,0.32-2.53c0-0.84-0.11-1.67-0.32-2.51c-0.22-0.84-0.55-1.58-1.01-2.22
			c-0.46-0.65-1.04-1.17-1.75-1.58c-0.71-0.41-1.55-0.61-2.51-0.61c-0.96,0-1.8,0.2-2.51,0.61c-0.71,0.41-1.29,0.93-1.75,1.58
			c-0.46,0.65-0.79,1.39-1.01,2.22c-0.22,0.84-0.32,1.67-0.32,2.51c0,0.86,0.11,1.7,0.32,2.53c0.21,0.82,0.55,1.56,1.01,2.22
			s1.04,1.19,1.75,1.6C387.5,144.04,388.33,144.24,389.3,144.24z"/>
		<path class="st4" d="M403.24,127.49h4.07v3.8h0.08c0.13-0.53,0.37-1.05,0.74-1.56s0.81-0.97,1.33-1.39
			c0.52-0.42,1.1-0.75,1.73-1.01c0.63-0.25,1.28-0.38,1.94-0.38c0.51,0,0.85,0.01,1.04,0.04c0.19,0.03,0.39,0.05,0.59,0.08v4.18
			c-0.3-0.05-0.61-0.1-0.93-0.13c-0.32-0.04-0.63-0.06-0.93-0.06c-0.73,0-1.42,0.15-2.07,0.44c-0.65,0.29-1.21,0.72-1.69,1.29
			c-0.48,0.57-0.86,1.27-1.14,2.11c-0.28,0.84-0.42,1.8-0.42,2.89v9.35h-4.33V127.49z"/>
	</g>
	<rect x="635" y="116" class="st0" width="15" height="36"/>
	<rect x="418" y="101" class="st0" width="8" height="49"/>
	<rect x="431" y="119" class="st3" width="2" height="4"/>
	<rect x="437" y="119" class="st3" width="2" height="4"/>
	<g>
	</g>
	<g>
	</g>
	<g>
	</g>
	<g>
	</g>
	<g>
	</g>
	<g>
	</g>
	<g>
	</g>
	<g>
	</g>
	<g>
	</g>
	<g>
	</g>
	<g>
	</g>
	<g>
	</g>
	<g>
	</g>
	<g>
	</g>
	<g>
	</g>
</g>
</svg>
