<?xml version="1.0" encoding="utf-8"?>
<!-- Generator: Adobe Illustrator 23.0.1, SVG Export Plug-In . SVG Version: 6.00 Build 0)  -->
<svg version="1.1" xmlns="http://www.w3.org/2000/svg" xmlns:xlink="http://www.w3.org/1999/xlink" x="0px" y="0px"
	 viewBox="0 0 307.06 134.5" style="enable-background:new 0 0 307.06 134.5;" xml:space="preserve">
<style type="text/css">
	.st0{fill:#99CCFF;}
	.st1{fill:#FF6666;}
	.st2{fill:none;}
	.st3{fill:#FFFFFF;}
</style>
<g id="Ebene_2">
	<rect class="st0" width="307.06" height="135"/>
</g>
<g id="Ebene_1">
	<rect x="10.02" y="11.54" class="st0" width="142.85" height="41.65"/>
	<g>
		<g>
			<path class="st1" d="M151.48,61.98h6c0.96,0,1.75,0.14,2.36,0.42s1.08,0.63,1.41,1.05s0.56,0.88,0.68,1.37
				c0.12,0.5,0.18,0.95,0.18,1.37s-0.06,0.87-0.18,1.36c-0.12,0.49-0.35,0.94-0.68,1.36c-0.33,0.42-0.8,0.77-1.41,1.04
				s-1.4,0.41-2.36,0.41h-3.62v5.23h-2.38V61.98z M153.87,68.43h3.49c0.27,0,0.54-0.04,0.82-0.11s0.54-0.2,0.77-0.37
				c0.23-0.17,0.42-0.4,0.57-0.69c0.15-0.29,0.22-0.65,0.22-1.08c0-0.44-0.06-0.81-0.19-1.11s-0.3-0.52-0.51-0.7
				c-0.22-0.17-0.46-0.29-0.74-0.35s-0.58-0.1-0.9-0.1h-3.52V68.43z"/>
			<path class="st1" d="M172.13,73.41c0,0.27,0.04,0.46,0.1,0.57c0.07,0.11,0.21,0.17,0.41,0.17c0.06,0,0.14,0,0.23,0
				s0.19-0.01,0.3-0.04v1.51c-0.08,0.03-0.17,0.05-0.29,0.09c-0.12,0.03-0.25,0.06-0.37,0.09s-0.25,0.04-0.38,0.06
				c-0.13,0.01-0.24,0.02-0.32,0.02c-0.45,0-0.81-0.09-1.11-0.27s-0.48-0.49-0.57-0.93c-0.43,0.42-0.96,0.72-1.59,0.92
				c-0.63,0.19-1.24,0.29-1.82,0.29c-0.44,0-0.87-0.06-1.28-0.18c-0.41-0.12-0.76-0.3-1.08-0.53c-0.31-0.24-0.56-0.53-0.74-0.9
				c-0.18-0.36-0.28-0.79-0.28-1.27c0-0.61,0.11-1.11,0.33-1.49c0.22-0.38,0.51-0.68,0.88-0.9c0.36-0.22,0.77-0.37,1.22-0.47
				c0.45-0.1,0.9-0.17,1.36-0.22c0.39-0.08,0.77-0.13,1.12-0.16c0.36-0.03,0.67-0.09,0.94-0.16c0.27-0.08,0.49-0.19,0.65-0.35
				c0.16-0.16,0.24-0.4,0.24-0.71c0-0.28-0.07-0.51-0.2-0.69c-0.13-0.18-0.3-0.31-0.5-0.41c-0.2-0.1-0.42-0.16-0.66-0.19
				c-0.24-0.03-0.47-0.05-0.69-0.05c-0.61,0-1.11,0.13-1.5,0.38c-0.39,0.25-0.62,0.65-0.67,1.18h-2.17
				c0.04-0.64,0.19-1.16,0.46-1.58s0.61-0.76,1.02-1.01c0.41-0.25,0.88-0.43,1.4-0.53c0.52-0.1,1.05-0.15,1.6-0.15
				c0.48,0,0.96,0.05,1.43,0.15c0.47,0.1,0.89,0.27,1.27,0.5c0.37,0.23,0.68,0.52,0.9,0.89s0.34,0.8,0.34,1.32V73.41z M169.96,70.66
				c-0.33,0.22-0.74,0.35-1.22,0.39c-0.48,0.04-0.97,0.11-1.45,0.2c-0.23,0.04-0.45,0.09-0.67,0.16c-0.22,0.07-0.41,0.17-0.57,0.29
				c-0.17,0.12-0.3,0.28-0.39,0.48c-0.1,0.2-0.14,0.44-0.14,0.72c0,0.24,0.07,0.45,0.21,0.61s0.31,0.29,0.5,0.39
				c0.2,0.1,0.41,0.16,0.65,0.2c0.23,0.04,0.45,0.06,0.64,0.06c0.24,0,0.5-0.03,0.78-0.1s0.54-0.17,0.79-0.32
				c0.25-0.15,0.45-0.35,0.62-0.58c0.17-0.23,0.25-0.52,0.25-0.87V70.66z"/>
			<path class="st1" d="M173.48,65.74h1.64v-2.96h2.17v2.96h1.96v1.62h-1.96v5.26c0,0.23,0.01,0.43,0.03,0.59
				c0.02,0.17,0.06,0.3,0.13,0.42c0.07,0.12,0.17,0.2,0.31,0.26s0.33,0.09,0.57,0.09c0.15,0,0.3,0,0.46-0.01
				c0.15-0.01,0.31-0.03,0.46-0.07v1.68c-0.24,0.03-0.48,0.05-0.71,0.08s-0.46,0.04-0.71,0.04c-0.57,0-1.03-0.05-1.38-0.16
				c-0.35-0.11-0.62-0.27-0.82-0.48c-0.2-0.21-0.33-0.47-0.4-0.79c-0.07-0.32-0.11-0.68-0.12-1.09v-5.82h-1.64V65.74z"/>
			<path class="st1" d="M182.51,71.23c0,0.38,0.05,0.75,0.16,1.11c0.11,0.36,0.27,0.67,0.49,0.93c0.22,0.27,0.49,0.48,0.82,0.64
				c0.33,0.16,0.72,0.24,1.18,0.24c0.63,0,1.15-0.14,1.53-0.41c0.39-0.27,0.68-0.68,0.87-1.23h2.06c-0.11,0.53-0.31,1.01-0.59,1.43
				c-0.28,0.42-0.62,0.77-1.01,1.06s-0.83,0.5-1.32,0.65c-0.49,0.15-1,0.22-1.53,0.22c-0.77,0-1.46-0.13-2.06-0.38
				c-0.6-0.25-1.1-0.61-1.51-1.07c-0.41-0.46-0.72-1-0.93-1.64c-0.21-0.64-0.31-1.33-0.31-2.1c0-0.7,0.11-1.36,0.33-1.99
				c0.22-0.63,0.54-1.18,0.95-1.66c0.41-0.48,0.91-0.85,1.5-1.13c0.58-0.28,1.24-0.42,1.98-0.42c0.77,0,1.47,0.16,2.09,0.49
				s1.13,0.75,1.53,1.29c0.41,0.53,0.7,1.15,0.89,1.84c0.18,0.69,0.23,1.41,0.14,2.15H182.51z M187.58,69.8
				c-0.03-0.34-0.1-0.67-0.22-0.99c-0.12-0.32-0.29-0.59-0.5-0.83c-0.21-0.24-0.46-0.43-0.76-0.57c-0.3-0.15-0.63-0.22-1-0.22
				c-0.38,0-0.73,0.07-1.04,0.2c-0.31,0.13-0.58,0.32-0.8,0.55c-0.22,0.23-0.4,0.51-0.53,0.83c-0.13,0.32-0.21,0.66-0.22,1.03
				H187.58z"/>
			<path class="st1" d="M191.41,65.74h2.06v1.45l0.04,0.04c0.33-0.55,0.76-0.98,1.29-1.29s1.12-0.47,1.77-0.47
				c1.08,0,1.93,0.28,2.55,0.84c0.62,0.56,0.93,1.4,0.93,2.52v6.77h-2.17v-6.2c-0.03-0.78-0.19-1.34-0.5-1.69s-0.78-0.52-1.43-0.52
				c-0.37,0-0.7,0.07-0.99,0.2c-0.29,0.13-0.54,0.32-0.74,0.55c-0.2,0.23-0.36,0.51-0.48,0.83c-0.11,0.32-0.17,0.65-0.17,1.01v5.82
				h-2.17V65.74z"/>
			<path class="st1" d="M201.35,65.74h1.64v-2.96h2.17v2.96h1.96v1.62h-1.96v5.26c0,0.23,0.01,0.43,0.03,0.59
				c0.02,0.17,0.06,0.3,0.13,0.42c0.07,0.12,0.17,0.2,0.31,0.26s0.33,0.09,0.57,0.09c0.15,0,0.3,0,0.46-0.01
				c0.15-0.01,0.31-0.03,0.46-0.07v1.68c-0.24,0.03-0.48,0.05-0.71,0.08s-0.46,0.04-0.71,0.04c-0.57,0-1.03-0.05-1.38-0.16
				c-0.35-0.11-0.62-0.27-0.82-0.48c-0.2-0.21-0.33-0.47-0.4-0.79c-0.07-0.32-0.11-0.68-0.12-1.09v-5.82h-1.64V65.74z"/>
			<path class="st1" d="M208.85,73.02h2.65v2.58c-0.01,0.79-0.25,1.45-0.72,1.98c-0.47,0.53-1.09,0.88-1.85,1.03v-1.16
				c0.42-0.1,0.73-0.33,0.94-0.7c0.21-0.36,0.31-0.75,0.29-1.15h-1.31V73.02z"/>
			<path class="st1" d="M218.28,65.74h1.64v-2.96h2.17v2.96h1.96v1.62h-1.96v5.26c0,0.23,0.01,0.43,0.03,0.59
				c0.02,0.17,0.06,0.3,0.13,0.42c0.07,0.12,0.17,0.2,0.31,0.26s0.33,0.09,0.57,0.09c0.15,0,0.3,0,0.46-0.01
				c0.15-0.01,0.31-0.03,0.46-0.07v1.68c-0.24,0.03-0.48,0.05-0.71,0.08s-0.46,0.04-0.71,0.04c-0.57,0-1.03-0.05-1.38-0.16
				c-0.35-0.11-0.62-0.27-0.82-0.48c-0.2-0.21-0.33-0.47-0.4-0.79c-0.07-0.32-0.11-0.68-0.12-1.09v-5.82h-1.64V65.74z"/>
			<path class="st1" d="M227.31,71.23c0,0.38,0.05,0.75,0.16,1.11c0.11,0.36,0.27,0.67,0.49,0.93c0.22,0.27,0.49,0.48,0.82,0.64
				c0.33,0.16,0.72,0.24,1.18,0.24c0.63,0,1.15-0.14,1.53-0.41c0.39-0.27,0.68-0.68,0.87-1.23h2.06c-0.11,0.53-0.31,1.01-0.59,1.43
				c-0.28,0.42-0.62,0.77-1.01,1.06s-0.83,0.5-1.32,0.65c-0.49,0.15-1,0.22-1.53,0.22c-0.77,0-1.46-0.13-2.06-0.38
				c-0.6-0.25-1.1-0.61-1.51-1.07c-0.41-0.46-0.72-1-0.93-1.64c-0.21-0.64-0.31-1.33-0.31-2.1c0-0.7,0.11-1.36,0.33-1.99
				c0.22-0.63,0.54-1.18,0.95-1.66c0.41-0.48,0.91-0.85,1.5-1.13c0.58-0.28,1.24-0.42,1.98-0.42c0.77,0,1.47,0.16,2.09,0.49
				s1.13,0.75,1.53,1.29c0.41,0.53,0.7,1.15,0.89,1.84c0.18,0.69,0.23,1.41,0.14,2.15H227.31z M232.37,69.8
				c-0.03-0.34-0.1-0.67-0.22-0.99c-0.12-0.32-0.29-0.59-0.5-0.83c-0.21-0.24-0.46-0.43-0.76-0.57c-0.3-0.15-0.63-0.22-1-0.22
				c-0.38,0-0.73,0.07-1.04,0.2c-0.31,0.13-0.58,0.32-0.8,0.55c-0.22,0.23-0.4,0.51-0.53,0.83c-0.13,0.32-0.21,0.66-0.22,1.03
				H232.37z"/>
			<path class="st1" d="M242.85,69.04c-0.09-0.61-0.33-1.07-0.73-1.38s-0.9-0.47-1.51-0.47c-0.28,0-0.58,0.05-0.89,0.14
				s-0.61,0.27-0.88,0.53c-0.27,0.26-0.49,0.62-0.67,1.09c-0.18,0.46-0.27,1.07-0.27,1.82c0,0.41,0.05,0.81,0.14,1.22
				c0.1,0.41,0.25,0.77,0.46,1.09c0.21,0.32,0.48,0.58,0.81,0.77s0.73,0.3,1.2,0.3c0.63,0,1.16-0.2,1.57-0.59
				c0.41-0.39,0.67-0.95,0.77-1.66h2.17c-0.2,1.28-0.69,2.27-1.46,2.95c-0.77,0.68-1.79,1.02-3.06,1.02c-0.77,0-1.46-0.13-2.05-0.39
				c-0.59-0.26-1.09-0.62-1.5-1.07c-0.41-0.45-0.71-0.99-0.92-1.61c-0.21-0.62-0.31-1.3-0.31-2.02c0-0.74,0.1-1.43,0.3-2.08
				c0.2-0.65,0.51-1.21,0.91-1.69s0.91-0.85,1.51-1.12c0.6-0.27,1.31-0.41,2.12-0.41c0.57,0,1.11,0.07,1.63,0.22
				c0.51,0.15,0.97,0.37,1.37,0.66c0.4,0.29,0.73,0.66,0.98,1.11c0.25,0.45,0.41,0.97,0.46,1.58H242.85z"/>
			<path class="st1" d="M246.79,61.98h2.17v5.05H249c0.27-0.45,0.66-0.82,1.19-1.12c0.53-0.3,1.11-0.45,1.76-0.45
				c1.08,0,1.93,0.28,2.55,0.84c0.62,0.56,0.93,1.4,0.93,2.52v6.77h-2.17v-6.2c-0.03-0.78-0.19-1.34-0.5-1.69s-0.78-0.52-1.43-0.52
				c-0.37,0-0.7,0.07-0.99,0.2c-0.29,0.13-0.54,0.32-0.74,0.55c-0.2,0.23-0.36,0.51-0.48,0.83c-0.11,0.32-0.17,0.65-0.17,1.01v5.82
				h-2.17V61.98z"/>
			<path class="st1" d="M257.72,65.74h2.06v1.45l0.04,0.04c0.33-0.55,0.76-0.98,1.29-1.29s1.12-0.47,1.77-0.47
				c1.08,0,1.93,0.28,2.55,0.84c0.62,0.56,0.93,1.4,0.93,2.52v6.77h-2.17v-6.2c-0.03-0.78-0.19-1.34-0.5-1.69s-0.78-0.52-1.43-0.52
				c-0.37,0-0.7,0.07-0.99,0.2c-0.29,0.13-0.54,0.32-0.74,0.55c-0.2,0.23-0.36,0.51-0.48,0.83c-0.11,0.32-0.17,0.65-0.17,1.01v5.82
				h-2.17V65.74z"/>
			<path class="st1" d="M268.71,61.98h2.17v2.06h-2.17V61.98z M268.71,65.74h2.17v9.86h-2.17V65.74z"/>
			<path class="st1" d="M279.89,69.04c-0.09-0.61-0.33-1.07-0.73-1.38s-0.9-0.47-1.51-0.47c-0.28,0-0.58,0.05-0.89,0.14
				s-0.61,0.27-0.88,0.53c-0.27,0.26-0.49,0.62-0.67,1.09c-0.18,0.46-0.27,1.07-0.27,1.82c0,0.41,0.05,0.81,0.14,1.22
				c0.1,0.41,0.25,0.77,0.46,1.09c0.21,0.32,0.48,0.58,0.81,0.77s0.73,0.3,1.2,0.3c0.63,0,1.16-0.2,1.57-0.59
				c0.41-0.39,0.67-0.95,0.77-1.66h2.17c-0.2,1.28-0.69,2.27-1.46,2.95c-0.77,0.68-1.79,1.02-3.06,1.02c-0.77,0-1.46-0.13-2.05-0.39
				c-0.59-0.26-1.09-0.62-1.5-1.07c-0.41-0.45-0.71-0.99-0.92-1.61c-0.21-0.62-0.31-1.3-0.31-2.02c0-0.74,0.1-1.43,0.3-2.08
				c0.2-0.65,0.51-1.21,0.91-1.69s0.91-0.85,1.51-1.12c0.6-0.27,1.31-0.41,2.12-0.41c0.57,0,1.11,0.07,1.63,0.22
				c0.51,0.15,0.97,0.37,1.37,0.66c0.4,0.29,0.73,0.66,0.98,1.11c0.25,0.45,0.41,0.97,0.46,1.58H279.89z"/>
			<path class="st1" d="M292.08,73.41c0,0.27,0.04,0.46,0.1,0.57c0.07,0.11,0.21,0.17,0.41,0.17c0.06,0,0.14,0,0.23,0
				s0.19-0.01,0.3-0.04v1.51c-0.08,0.03-0.17,0.05-0.29,0.09c-0.12,0.03-0.25,0.06-0.37,0.09s-0.25,0.04-0.38,0.06
				c-0.13,0.01-0.24,0.02-0.32,0.02c-0.45,0-0.81-0.09-1.11-0.27s-0.48-0.49-0.57-0.93c-0.43,0.42-0.96,0.72-1.59,0.92
				c-0.63,0.19-1.24,0.29-1.82,0.29c-0.44,0-0.87-0.06-1.28-0.18c-0.41-0.12-0.76-0.3-1.08-0.53c-0.31-0.24-0.56-0.53-0.74-0.9
				c-0.18-0.36-0.28-0.79-0.28-1.27c0-0.61,0.11-1.11,0.33-1.49c0.22-0.38,0.51-0.68,0.88-0.9c0.36-0.22,0.77-0.37,1.22-0.47
				c0.45-0.1,0.9-0.17,1.36-0.22c0.39-0.08,0.77-0.13,1.12-0.16c0.36-0.03,0.67-0.09,0.94-0.16c0.27-0.08,0.49-0.19,0.65-0.35
				c0.16-0.16,0.24-0.4,0.24-0.71c0-0.28-0.07-0.51-0.2-0.69c-0.13-0.18-0.3-0.31-0.5-0.41c-0.2-0.1-0.42-0.16-0.66-0.19
				c-0.24-0.03-0.47-0.05-0.69-0.05c-0.61,0-1.11,0.13-1.5,0.38c-0.39,0.25-0.62,0.65-0.67,1.18h-2.17
				c0.04-0.64,0.19-1.16,0.46-1.58s0.61-0.76,1.02-1.01c0.41-0.25,0.88-0.43,1.4-0.53c0.52-0.1,1.05-0.15,1.6-0.15
				c0.48,0,0.96,0.05,1.43,0.15c0.47,0.1,0.89,0.27,1.27,0.5c0.37,0.23,0.68,0.52,0.9,0.89s0.34,0.8,0.34,1.32V73.41z M289.91,70.66
				c-0.33,0.22-0.74,0.35-1.22,0.39c-0.48,0.04-0.97,0.11-1.45,0.2c-0.23,0.04-0.45,0.09-0.67,0.16c-0.22,0.07-0.41,0.17-0.57,0.29
				c-0.17,0.12-0.3,0.28-0.39,0.48c-0.1,0.2-0.14,0.44-0.14,0.72c0,0.24,0.07,0.45,0.21,0.61s0.31,0.29,0.5,0.39
				c0.2,0.1,0.41,0.16,0.65,0.2c0.23,0.04,0.45,0.06,0.64,0.06c0.24,0,0.5-0.03,0.78-0.1s0.54-0.17,0.79-0.32
				c0.25-0.15,0.45-0.35,0.62-0.58c0.17-0.23,0.25-0.52,0.25-0.87V70.66z"/>
			<path class="st1" d="M294.48,61.98h2.17V75.6h-2.17V61.98z"/>
			<path class="st1" d="M148.5,90.41c0,0.27,0.04,0.46,0.1,0.57c0.07,0.11,0.21,0.17,0.41,0.17c0.06,0,0.14,0,0.23,0
				s0.19-0.01,0.3-0.04v1.51c-0.08,0.03-0.17,0.05-0.29,0.09c-0.12,0.03-0.25,0.06-0.37,0.09s-0.25,0.04-0.38,0.06
				c-0.13,0.01-0.24,0.02-0.32,0.02c-0.45,0-0.81-0.09-1.11-0.27s-0.48-0.49-0.57-0.93c-0.43,0.42-0.96,0.72-1.59,0.92
				c-0.63,0.19-1.24,0.29-1.82,0.29c-0.44,0-0.87-0.06-1.28-0.18c-0.41-0.12-0.76-0.3-1.08-0.53c-0.31-0.24-0.56-0.53-0.74-0.9
				c-0.18-0.36-0.28-0.79-0.28-1.27c0-0.61,0.11-1.11,0.33-1.49c0.22-0.38,0.51-0.68,0.88-0.9c0.36-0.22,0.77-0.37,1.22-0.47
				c0.45-0.1,0.9-0.17,1.36-0.22c0.39-0.08,0.77-0.13,1.12-0.16c0.36-0.03,0.67-0.09,0.94-0.16c0.27-0.08,0.49-0.19,0.65-0.35
				c0.16-0.16,0.24-0.4,0.24-0.71c0-0.28-0.07-0.51-0.2-0.69c-0.13-0.18-0.3-0.31-0.5-0.41c-0.2-0.1-0.42-0.16-0.66-0.19
				c-0.24-0.03-0.47-0.05-0.69-0.05c-0.61,0-1.11,0.13-1.5,0.38c-0.39,0.25-0.62,0.65-0.67,1.18h-2.17
				c0.04-0.64,0.19-1.16,0.46-1.58c0.27-0.42,0.61-0.76,1.02-1.01c0.41-0.25,0.88-0.43,1.4-0.53c0.52-0.1,1.05-0.15,1.6-0.15
				c0.48,0,0.96,0.05,1.43,0.15c0.47,0.1,0.89,0.27,1.27,0.5c0.37,0.23,0.68,0.52,0.9,0.89s0.34,0.8,0.34,1.33V90.41z M146.32,87.66
				c-0.33,0.22-0.74,0.35-1.22,0.39c-0.48,0.04-0.97,0.11-1.45,0.2c-0.23,0.04-0.45,0.09-0.67,0.16c-0.22,0.07-0.41,0.17-0.57,0.29
				c-0.17,0.12-0.3,0.28-0.39,0.48c-0.1,0.2-0.14,0.44-0.14,0.72c0,0.24,0.07,0.45,0.21,0.61s0.31,0.29,0.5,0.39
				c0.2,0.1,0.41,0.16,0.65,0.2c0.23,0.04,0.45,0.06,0.64,0.06c0.24,0,0.5-0.03,0.78-0.1s0.54-0.17,0.79-0.32
				c0.25-0.15,0.45-0.35,0.62-0.58c0.17-0.23,0.25-0.52,0.25-0.87V87.66z"/>
			<path class="st1" d="M150.84,82.74h2.06v1.45l0.04,0.04c0.33-0.55,0.76-0.98,1.29-1.29s1.12-0.47,1.77-0.47
				c1.08,0,1.93,0.28,2.55,0.84c0.62,0.56,0.93,1.4,0.93,2.52v6.77h-2.17v-6.2c-0.03-0.78-0.19-1.34-0.5-1.69s-0.78-0.52-1.43-0.52
				c-0.37,0-0.7,0.07-0.99,0.2s-0.54,0.32-0.74,0.55s-0.36,0.51-0.48,0.83c-0.11,0.32-0.17,0.65-0.17,1.01v5.82h-2.17V82.74z"/>
			<path class="st1" d="M171.05,92.6h-2.06v-1.33h-0.04c-0.29,0.57-0.72,0.98-1.28,1.23s-1.15,0.37-1.77,0.37
				c-0.77,0-1.45-0.14-2.03-0.41c-0.58-0.27-1.06-0.64-1.44-1.12s-0.67-1.03-0.86-1.67c-0.19-0.64-0.29-1.33-0.29-2.07
				c0-0.89,0.12-1.66,0.36-2.31s0.56-1.18,0.96-1.6c0.4-0.42,0.86-0.73,1.37-0.92c0.51-0.2,1.04-0.3,1.57-0.3
				c0.3,0,0.62,0.03,0.93,0.09c0.32,0.06,0.62,0.15,0.91,0.28c0.29,0.13,0.56,0.29,0.81,0.49c0.25,0.2,0.45,0.43,0.62,0.7h0.04
				v-5.03h2.17V92.6z M163.47,87.77c0,0.42,0.05,0.83,0.16,1.24c0.11,0.41,0.27,0.77,0.5,1.09c0.22,0.32,0.5,0.57,0.85,0.76
				c0.34,0.19,0.75,0.29,1.22,0.29c0.48,0,0.9-0.1,1.25-0.31c0.35-0.2,0.63-0.47,0.86-0.8c0.22-0.33,0.39-0.7,0.5-1.12
				c0.11-0.41,0.16-0.84,0.16-1.27c0-1.09-0.25-1.95-0.73-2.56c-0.49-0.61-1.15-0.92-1.99-0.92c-0.51,0-0.94,0.1-1.29,0.31
				c-0.35,0.21-0.64,0.48-0.86,0.82c-0.22,0.34-0.38,0.72-0.48,1.14C163.51,86.89,163.47,87.33,163.47,87.77z"/>
			<path class="st1" d="M178.7,82.74h2.06v1.45l0.04,0.04c0.33-0.55,0.76-0.98,1.29-1.29s1.12-0.47,1.77-0.47
				c1.08,0,1.93,0.28,2.55,0.84c0.62,0.56,0.93,1.4,0.93,2.52v6.77h-2.17v-6.2c-0.03-0.78-0.19-1.34-0.5-1.69s-0.78-0.52-1.43-0.52
				c-0.37,0-0.7,0.07-0.99,0.2s-0.54,0.32-0.74,0.55s-0.36,0.51-0.48,0.83c-0.11,0.32-0.17,0.65-0.17,1.01v5.82h-2.17V82.74z"/>
			<path class="st1" d="M194.15,92.87c-0.79,0-1.49-0.13-2.1-0.39c-0.62-0.26-1.14-0.62-1.56-1.08c-0.43-0.46-0.75-1-0.97-1.64
				c-0.22-0.64-0.33-1.33-0.33-2.1c0-0.75,0.11-1.44,0.33-2.08c0.22-0.64,0.55-1.18,0.97-1.64s0.95-0.82,1.56-1.08
				c0.62-0.26,1.32-0.39,2.1-0.39c0.79,0,1.49,0.13,2.11,0.39c0.62,0.26,1.14,0.62,1.56,1.08c0.42,0.46,0.75,1,0.97,1.64
				c0.22,0.64,0.33,1.33,0.33,2.08c0,0.76-0.11,1.46-0.33,2.1c-0.22,0.64-0.55,1.18-0.97,1.64c-0.43,0.46-0.95,0.82-1.56,1.08
				C195.64,92.74,194.94,92.87,194.15,92.87z M194.15,91.15c0.48,0,0.9-0.1,1.26-0.31c0.36-0.2,0.65-0.47,0.88-0.8
				c0.23-0.33,0.4-0.7,0.5-1.12c0.11-0.41,0.16-0.84,0.16-1.27c0-0.42-0.05-0.84-0.16-1.26c-0.11-0.42-0.28-0.79-0.5-1.12
				s-0.52-0.59-0.88-0.79c-0.36-0.2-0.78-0.3-1.26-0.3s-0.9,0.1-1.26,0.3c-0.36,0.2-0.65,0.47-0.88,0.79s-0.4,0.7-0.5,1.12
				c-0.11,0.42-0.16,0.84-0.16,1.26c0,0.43,0.05,0.86,0.16,1.27c0.11,0.41,0.28,0.79,0.5,1.12c0.23,0.33,0.52,0.6,0.88,0.8
				C193.25,91.05,193.67,91.15,194.15,91.15z"/>
			<path class="st1" d="M200.93,82.74h2.06v1.45l0.04,0.04c0.33-0.55,0.76-0.98,1.29-1.29s1.12-0.47,1.77-0.47
				c1.08,0,1.93,0.28,2.55,0.84c0.62,0.56,0.93,1.4,0.93,2.52v6.77h-2.17v-6.2c-0.03-0.78-0.19-1.34-0.5-1.69s-0.78-0.52-1.43-0.52
				c-0.37,0-0.7,0.07-0.99,0.2s-0.54,0.32-0.74,0.55s-0.36,0.51-0.48,0.83c-0.11,0.32-0.17,0.65-0.17,1.01v5.82h-2.17V82.74z"/>
			<path class="st1" d="M211.65,86.38h5.54v2.06h-5.54V86.38z"/>
			<path class="st1" d="M218.28,82.74h1.64v-2.96h2.17v2.96h1.96v1.62h-1.96v5.26c0,0.23,0.01,0.43,0.03,0.59
				c0.02,0.17,0.06,0.3,0.13,0.42c0.07,0.12,0.17,0.2,0.31,0.26s0.33,0.09,0.57,0.09c0.15,0,0.3,0,0.46-0.01
				c0.15-0.01,0.31-0.03,0.46-0.07v1.68c-0.24,0.03-0.48,0.05-0.71,0.08s-0.46,0.04-0.71,0.04c-0.57,0-1.03-0.05-1.38-0.16
				c-0.35-0.11-0.62-0.27-0.82-0.48c-0.2-0.21-0.33-0.47-0.4-0.79c-0.07-0.32-0.11-0.68-0.12-1.09v-5.82h-1.64V82.74z"/>
			<path class="st1" d="M227.31,88.23c0,0.38,0.05,0.75,0.16,1.11c0.11,0.36,0.27,0.67,0.49,0.93c0.22,0.27,0.49,0.48,0.82,0.64
				c0.33,0.16,0.72,0.24,1.18,0.24c0.63,0,1.15-0.14,1.53-0.41c0.39-0.27,0.68-0.68,0.87-1.23h2.06c-0.11,0.53-0.31,1.01-0.59,1.43
				c-0.28,0.42-0.62,0.77-1.01,1.06s-0.83,0.5-1.32,0.65c-0.49,0.15-1,0.22-1.53,0.22c-0.77,0-1.46-0.13-2.06-0.38
				c-0.6-0.25-1.1-0.61-1.51-1.07c-0.41-0.46-0.72-1-0.93-1.64c-0.21-0.64-0.31-1.33-0.31-2.1c0-0.7,0.11-1.36,0.33-1.99
				c0.22-0.63,0.54-1.18,0.95-1.66c0.41-0.48,0.91-0.86,1.5-1.13s1.24-0.42,1.98-0.42c0.77,0,1.47,0.16,2.09,0.49
				s1.13,0.75,1.53,1.29c0.41,0.53,0.7,1.15,0.89,1.84c0.18,0.69,0.23,1.41,0.14,2.15H227.31z M232.37,86.8
				c-0.03-0.34-0.1-0.67-0.22-0.99c-0.12-0.32-0.29-0.59-0.5-0.83c-0.21-0.24-0.46-0.43-0.76-0.57c-0.3-0.15-0.63-0.22-1-0.22
				c-0.38,0-0.73,0.07-1.04,0.2c-0.31,0.13-0.58,0.32-0.8,0.55c-0.22,0.24-0.4,0.51-0.53,0.83c-0.13,0.32-0.21,0.66-0.22,1.03
				H232.37z"/>
			<path class="st1" d="M242.85,86.04c-0.09-0.61-0.33-1.07-0.73-1.38s-0.9-0.47-1.51-0.47c-0.28,0-0.58,0.05-0.89,0.14
				c-0.32,0.1-0.61,0.27-0.88,0.53s-0.49,0.62-0.67,1.09c-0.18,0.46-0.27,1.07-0.27,1.82c0,0.41,0.05,0.81,0.14,1.22
				c0.1,0.41,0.25,0.77,0.46,1.09c0.21,0.32,0.48,0.58,0.81,0.77s0.73,0.3,1.2,0.3c0.63,0,1.16-0.2,1.57-0.59
				c0.41-0.39,0.67-0.95,0.77-1.66h2.17c-0.2,1.28-0.69,2.27-1.46,2.95c-0.77,0.68-1.79,1.02-3.06,1.02c-0.77,0-1.46-0.13-2.05-0.39
				c-0.59-0.26-1.09-0.62-1.5-1.07c-0.41-0.45-0.71-0.99-0.92-1.61c-0.21-0.62-0.31-1.3-0.31-2.02c0-0.74,0.1-1.43,0.3-2.08
				c0.2-0.65,0.51-1.21,0.91-1.69s0.91-0.85,1.51-1.12c0.6-0.27,1.31-0.41,2.12-0.41c0.57,0,1.11,0.07,1.63,0.22
				c0.51,0.15,0.97,0.37,1.37,0.66c0.4,0.29,0.73,0.66,0.98,1.11c0.25,0.45,0.41,0.97,0.46,1.58H242.85z"/>
			<path class="st1" d="M246.79,78.98h2.17v5.05H249c0.27-0.45,0.66-0.82,1.19-1.12c0.53-0.3,1.11-0.45,1.76-0.45
				c1.08,0,1.93,0.28,2.55,0.84c0.62,0.56,0.93,1.4,0.93,2.52v6.77h-2.17v-6.2c-0.03-0.78-0.19-1.34-0.5-1.69s-0.78-0.52-1.43-0.52
				c-0.37,0-0.7,0.07-0.99,0.2s-0.54,0.32-0.74,0.55s-0.36,0.51-0.48,0.83c-0.11,0.32-0.17,0.65-0.17,1.01v5.82h-2.17V78.98z"/>
			<path class="st1" d="M257.72,82.74h2.06v1.45l0.04,0.04c0.33-0.55,0.76-0.98,1.29-1.29s1.12-0.47,1.77-0.47
				c1.08,0,1.93,0.28,2.55,0.84c0.62,0.56,0.93,1.4,0.93,2.52v6.77h-2.17v-6.2c-0.03-0.78-0.19-1.34-0.5-1.69s-0.78-0.52-1.43-0.52
				c-0.37,0-0.7,0.07-0.99,0.2s-0.54,0.32-0.74,0.55s-0.36,0.51-0.48,0.83c-0.11,0.32-0.17,0.65-0.17,1.01v5.82h-2.17V82.74z"/>
			<path class="st1" d="M268.71,78.98h2.17v2.06h-2.17V78.98z M268.71,82.74h2.17v9.86h-2.17V82.74z"/>
			<path class="st1" d="M279.89,86.04c-0.09-0.61-0.33-1.07-0.73-1.38s-0.9-0.47-1.51-0.47c-0.28,0-0.58,0.05-0.89,0.14
				c-0.32,0.1-0.61,0.27-0.88,0.53s-0.49,0.62-0.67,1.09c-0.18,0.46-0.27,1.07-0.27,1.82c0,0.41,0.05,0.81,0.14,1.22
				c0.1,0.41,0.25,0.77,0.46,1.09c0.21,0.32,0.48,0.58,0.81,0.77s0.73,0.3,1.2,0.3c0.63,0,1.16-0.2,1.57-0.59
				c0.41-0.39,0.67-0.95,0.77-1.66h2.17c-0.2,1.28-0.69,2.27-1.46,2.95c-0.77,0.68-1.79,1.02-3.06,1.02c-0.77,0-1.46-0.13-2.05-0.39
				c-0.59-0.26-1.09-0.62-1.5-1.07c-0.41-0.45-0.71-0.99-0.92-1.61c-0.21-0.62-0.31-1.3-0.31-2.02c0-0.74,0.1-1.43,0.3-2.08
				c0.2-0.65,0.51-1.21,0.91-1.69s0.91-0.85,1.51-1.12c0.6-0.27,1.31-0.41,2.12-0.41c0.57,0,1.11,0.07,1.63,0.22
				c0.51,0.15,0.97,0.37,1.37,0.66c0.4,0.29,0.73,0.66,0.98,1.11c0.25,0.45,0.41,0.97,0.46,1.58H279.89z"/>
			<path class="st1" d="M292.08,90.41c0,0.27,0.04,0.46,0.1,0.57c0.07,0.11,0.21,0.17,0.41,0.17c0.06,0,0.14,0,0.23,0
				s0.19-0.01,0.3-0.04v1.51c-0.08,0.03-0.17,0.05-0.29,0.09c-0.12,0.03-0.25,0.06-0.37,0.09s-0.25,0.04-0.38,0.06
				c-0.13,0.01-0.24,0.02-0.32,0.02c-0.45,0-0.81-0.09-1.11-0.27s-0.48-0.49-0.57-0.93c-0.43,0.42-0.96,0.72-1.59,0.92
				c-0.63,0.19-1.24,0.29-1.82,0.29c-0.44,0-0.87-0.06-1.28-0.18c-0.41-0.12-0.76-0.3-1.08-0.53c-0.31-0.24-0.56-0.53-0.74-0.9
				c-0.18-0.36-0.28-0.79-0.28-1.27c0-0.61,0.11-1.11,0.33-1.49c0.22-0.38,0.51-0.68,0.88-0.9c0.36-0.22,0.77-0.37,1.22-0.47
				c0.45-0.1,0.9-0.17,1.36-0.22c0.39-0.08,0.77-0.13,1.12-0.16c0.36-0.03,0.67-0.09,0.94-0.16c0.27-0.08,0.49-0.19,0.65-0.35
				c0.16-0.16,0.24-0.4,0.24-0.71c0-0.28-0.07-0.51-0.2-0.69c-0.13-0.18-0.3-0.31-0.5-0.41c-0.2-0.1-0.42-0.16-0.66-0.19
				c-0.24-0.03-0.47-0.05-0.69-0.05c-0.61,0-1.11,0.13-1.5,0.38c-0.39,0.25-0.62,0.65-0.67,1.18h-2.17
				c0.04-0.64,0.19-1.16,0.46-1.58c0.27-0.42,0.61-0.76,1.02-1.01c0.41-0.25,0.88-0.43,1.4-0.53c0.52-0.1,1.05-0.15,1.6-0.15
				c0.48,0,0.96,0.05,1.43,0.15c0.47,0.1,0.89,0.27,1.27,0.5c0.37,0.23,0.68,0.52,0.9,0.89s0.34,0.8,0.34,1.33V90.41z M289.91,87.66
				c-0.33,0.22-0.74,0.35-1.22,0.39c-0.48,0.04-0.97,0.11-1.45,0.2c-0.23,0.04-0.45,0.09-0.67,0.16c-0.22,0.07-0.41,0.17-0.57,0.29
				c-0.17,0.12-0.3,0.28-0.39,0.48c-0.1,0.2-0.14,0.44-0.14,0.72c0,0.24,0.07,0.45,0.21,0.61s0.31,0.29,0.5,0.39
				c0.2,0.1,0.41,0.16,0.65,0.2c0.23,0.04,0.45,0.06,0.64,0.06c0.24,0,0.5-0.03,0.78-0.1s0.54-0.17,0.79-0.32
				c0.25-0.15,0.45-0.35,0.62-0.58c0.17-0.23,0.25-0.52,0.25-0.87V87.66z"/>
			<path class="st1" d="M294.48,78.98h2.17V92.6h-2.17V78.98z"/>
			<path class="st1" d="M254.64,99.74h1.64v-2.96h2.17v2.96h1.96v1.62h-1.96v5.26c0,0.23,0.01,0.43,0.03,0.59
				c0.02,0.17,0.06,0.3,0.13,0.42c0.07,0.12,0.17,0.2,0.31,0.26s0.33,0.09,0.57,0.09c0.15,0,0.3,0,0.46-0.01
				c0.15-0.01,0.31-0.03,0.46-0.07v1.68c-0.24,0.03-0.48,0.05-0.71,0.08s-0.46,0.04-0.71,0.04c-0.57,0-1.03-0.05-1.38-0.16
				c-0.35-0.11-0.62-0.27-0.82-0.48c-0.2-0.21-0.33-0.47-0.4-0.79c-0.07-0.32-0.11-0.68-0.12-1.09v-5.82h-1.64V99.74z"/>
			<path class="st1" d="M263.67,105.23c0,0.38,0.05,0.75,0.16,1.11c0.11,0.36,0.27,0.67,0.49,0.93c0.22,0.27,0.49,0.48,0.82,0.64
				c0.33,0.16,0.72,0.24,1.18,0.24c0.63,0,1.15-0.14,1.53-0.41c0.39-0.27,0.68-0.68,0.87-1.23h2.06c-0.11,0.53-0.31,1.01-0.59,1.43
				c-0.28,0.42-0.62,0.77-1.01,1.06s-0.83,0.5-1.32,0.65c-0.49,0.15-1,0.22-1.53,0.22c-0.77,0-1.46-0.13-2.06-0.38
				c-0.6-0.25-1.1-0.61-1.51-1.07c-0.41-0.46-0.72-1-0.93-1.64c-0.21-0.64-0.31-1.33-0.31-2.1c0-0.7,0.11-1.36,0.33-1.99
				c0.22-0.63,0.54-1.18,0.95-1.66c0.41-0.48,0.91-0.86,1.5-1.13s1.24-0.42,1.98-0.42c0.77,0,1.47,0.16,2.09,0.49
				s1.13,0.75,1.53,1.29c0.41,0.53,0.7,1.15,0.89,1.84c0.18,0.69,0.23,1.41,0.14,2.15H263.67z M268.73,103.8
				c-0.03-0.34-0.1-0.67-0.22-0.99c-0.12-0.32-0.29-0.59-0.5-0.83c-0.21-0.24-0.46-0.43-0.76-0.57c-0.3-0.15-0.63-0.22-1-0.22
				c-0.38,0-0.73,0.07-1.04,0.2c-0.31,0.13-0.58,0.32-0.8,0.55c-0.22,0.24-0.4,0.51-0.53,0.83c-0.13,0.32-0.21,0.66-0.22,1.03
				H268.73z"/>
			<path class="st1" d="M275.21,104.41l-3.41-4.67h2.63l2.06,3.03l2.15-3.03h2.51l-3.35,4.56l3.77,5.3h-2.61l-2.5-3.64l-2.42,3.64
				h-2.55L275.21,104.41z"/>
			<path class="st1" d="M281.8,99.74h1.64v-2.96h2.17v2.96h1.96v1.62h-1.96v5.26c0,0.23,0.01,0.43,0.03,0.59
				c0.02,0.17,0.06,0.3,0.13,0.42c0.07,0.12,0.17,0.2,0.31,0.26s0.33,0.09,0.57,0.09c0.15,0,0.3,0,0.46-0.01
				c0.15-0.01,0.31-0.03,0.46-0.07v1.68c-0.24,0.03-0.48,0.05-0.71,0.08s-0.46,0.04-0.71,0.04c-0.57,0-1.03-0.05-1.38-0.16
				c-0.35-0.11-0.62-0.27-0.82-0.48c-0.2-0.21-0.33-0.47-0.4-0.79c-0.07-0.32-0.11-0.68-0.12-1.09v-5.82h-1.64V99.74z"/>
			<path class="st1" d="M290.77,106.43c0.06,0.64,0.31,1.08,0.72,1.33c0.42,0.25,0.92,0.38,1.5,0.38c0.2,0,0.44-0.02,0.7-0.05
				c0.26-0.03,0.5-0.09,0.73-0.18s0.42-0.22,0.56-0.39c0.15-0.17,0.21-0.4,0.2-0.68c-0.01-0.28-0.11-0.51-0.3-0.69
				c-0.19-0.18-0.43-0.32-0.73-0.43c-0.3-0.11-0.64-0.2-1.02-0.28s-0.77-0.16-1.16-0.25c-0.41-0.09-0.8-0.2-1.17-0.32
				c-0.38-0.13-0.71-0.3-1.01-0.51c-0.3-0.22-0.54-0.49-0.71-0.83c-0.18-0.34-0.27-0.75-0.27-1.25c0-0.53,0.13-0.98,0.39-1.34
				c0.26-0.36,0.59-0.66,0.99-0.88c0.4-0.22,0.84-0.38,1.33-0.47c0.49-0.09,0.96-0.13,1.4-0.13c0.51,0,0.99,0.05,1.46,0.16
				c0.46,0.11,0.88,0.28,1.26,0.52c0.37,0.24,0.69,0.56,0.93,0.94c0.25,0.39,0.4,0.86,0.47,1.4h-2.27c-0.1-0.52-0.34-0.87-0.71-1.05
				c-0.38-0.18-0.8-0.27-1.29-0.27c-0.15,0-0.33,0.01-0.54,0.04c-0.21,0.03-0.41,0.07-0.59,0.14c-0.18,0.07-0.34,0.17-0.47,0.31
				c-0.13,0.13-0.19,0.31-0.19,0.52c0,0.27,0.09,0.48,0.28,0.65c0.18,0.17,0.42,0.3,0.72,0.41c0.3,0.11,0.64,0.2,1.02,0.28
				s0.77,0.16,1.18,0.25c0.39,0.09,0.78,0.2,1.16,0.32s0.72,0.3,1.02,0.51c0.3,0.22,0.54,0.49,0.72,0.82
				c0.18,0.33,0.28,0.74,0.28,1.22c0,0.58-0.13,1.08-0.4,1.49c-0.27,0.41-0.61,0.74-1.04,0.99c-0.43,0.25-0.9,0.44-1.42,0.55
				c-0.52,0.12-1.04,0.17-1.54,0.17c-0.62,0-1.2-0.07-1.72-0.21c-0.53-0.14-0.98-0.35-1.37-0.64s-0.69-0.64-0.91-1.07
				c-0.22-0.43-0.34-0.93-0.35-1.52H290.77z"/>
		</g>
	</g>
	<g>
		<rect x="101.65" y="26.7" class="st2" width="194.22" height="52.29"/>
		<path class="st1" d="M172.07,26.7h6c0.96,0,1.75,0.14,2.36,0.42s1.08,0.63,1.41,1.05s0.56,0.88,0.68,1.37
			c0.12,0.5,0.18,0.95,0.18,1.37s-0.06,0.87-0.18,1.36c-0.12,0.49-0.35,0.94-0.68,1.36s-0.8,0.77-1.41,1.04
			c-0.61,0.27-1.4,0.41-2.36,0.41h-3.62v5.23h-2.38V26.7z M174.46,33.14h3.49c0.27,0,0.54-0.04,0.82-0.11
			c0.28-0.08,0.54-0.2,0.77-0.37c0.23-0.17,0.42-0.4,0.57-0.69c0.15-0.29,0.22-0.65,0.22-1.08c0-0.44-0.06-0.81-0.19-1.11
			s-0.3-0.52-0.51-0.7c-0.22-0.17-0.46-0.29-0.74-0.35s-0.58-0.1-0.9-0.1h-3.52V33.14z"/>
		<path class="st1" d="M188.99,40.58c-0.79,0-1.49-0.13-2.1-0.39c-0.62-0.26-1.14-0.62-1.56-1.08c-0.43-0.46-0.75-1-0.97-1.64
			c-0.22-0.64-0.33-1.33-0.33-2.1c0-0.75,0.11-1.44,0.33-2.08c0.22-0.64,0.55-1.18,0.97-1.64c0.43-0.46,0.95-0.82,1.56-1.08
			c0.62-0.26,1.32-0.39,2.1-0.39c0.79,0,1.49,0.13,2.11,0.39c0.62,0.26,1.14,0.62,1.56,1.08c0.42,0.46,0.75,1,0.97,1.64
			c0.22,0.64,0.33,1.33,0.33,2.08c0,0.76-0.11,1.46-0.33,2.1c-0.22,0.64-0.55,1.18-0.97,1.64c-0.43,0.46-0.95,0.82-1.56,1.08
			C190.48,40.45,189.78,40.58,188.99,40.58z M188.99,38.86c0.48,0,0.9-0.1,1.26-0.31c0.36-0.2,0.65-0.47,0.88-0.8
			c0.23-0.33,0.4-0.7,0.5-1.12c0.11-0.41,0.16-0.84,0.16-1.27c0-0.42-0.05-0.84-0.16-1.26c-0.11-0.42-0.28-0.79-0.5-1.12
			s-0.52-0.59-0.88-0.79c-0.36-0.2-0.78-0.31-1.26-0.31s-0.9,0.1-1.26,0.31c-0.36,0.2-0.65,0.47-0.88,0.79s-0.4,0.7-0.5,1.12
			c-0.11,0.42-0.16,0.84-0.16,1.26c0,0.43,0.05,0.86,0.16,1.27c0.11,0.41,0.28,0.79,0.5,1.12c0.23,0.33,0.52,0.6,0.88,0.8
			C188.09,38.76,188.5,38.86,188.99,38.86z"/>
		<path class="st1" d="M197.41,37.15c0.06,0.64,0.31,1.08,0.72,1.33c0.42,0.25,0.92,0.38,1.5,0.38c0.2,0,0.44-0.02,0.7-0.05
			c0.26-0.03,0.5-0.09,0.73-0.18s0.42-0.22,0.56-0.39c0.15-0.17,0.21-0.4,0.2-0.68s-0.11-0.51-0.3-0.69s-0.43-0.32-0.73-0.43
			c-0.3-0.11-0.64-0.2-1.02-0.28s-0.77-0.16-1.16-0.25c-0.41-0.09-0.8-0.2-1.17-0.32c-0.38-0.13-0.71-0.3-1.01-0.52
			c-0.3-0.22-0.54-0.49-0.71-0.83c-0.18-0.34-0.27-0.75-0.27-1.25c0-0.53,0.13-0.98,0.39-1.34c0.26-0.36,0.59-0.65,0.99-0.88
			c0.4-0.22,0.84-0.38,1.33-0.47c0.49-0.09,0.96-0.13,1.4-0.13c0.51,0,0.99,0.05,1.46,0.16c0.46,0.11,0.88,0.28,1.26,0.52
			c0.37,0.24,0.69,0.56,0.93,0.94c0.25,0.39,0.4,0.86,0.47,1.4h-2.27c-0.1-0.52-0.34-0.87-0.71-1.05c-0.38-0.18-0.8-0.27-1.29-0.27
			c-0.15,0-0.33,0.01-0.54,0.04c-0.21,0.03-0.41,0.07-0.59,0.14c-0.18,0.07-0.34,0.17-0.47,0.31s-0.19,0.31-0.19,0.52
			c0,0.27,0.09,0.48,0.28,0.65c0.18,0.17,0.42,0.3,0.72,0.41c0.3,0.11,0.64,0.2,1.02,0.28s0.77,0.16,1.18,0.25
			c0.39,0.09,0.78,0.2,1.16,0.32s0.72,0.3,1.02,0.51c0.3,0.22,0.54,0.49,0.72,0.82c0.18,0.33,0.28,0.74,0.28,1.22
			c0,0.58-0.13,1.08-0.4,1.49s-0.61,0.74-1.04,0.99c-0.43,0.25-0.9,0.44-1.42,0.55c-0.52,0.11-1.04,0.17-1.54,0.17
			c-0.62,0-1.2-0.07-1.72-0.21c-0.53-0.14-0.98-0.35-1.37-0.64s-0.69-0.64-0.91-1.07c-0.22-0.43-0.34-0.93-0.35-1.52H197.41z"/>
		<path class="st1" d="M204.66,30.45h1.64V27.5h2.17v2.96h1.96v1.62h-1.96v5.26c0,0.23,0.01,0.43,0.03,0.59
			c0.02,0.17,0.06,0.3,0.13,0.42c0.07,0.11,0.17,0.2,0.31,0.26c0.14,0.06,0.33,0.09,0.57,0.09c0.15,0,0.3,0,0.46-0.01
			c0.15-0.01,0.31-0.03,0.46-0.07v1.68c-0.24,0.03-0.48,0.05-0.71,0.08c-0.23,0.03-0.46,0.04-0.71,0.04c-0.57,0-1.03-0.05-1.38-0.16
			c-0.35-0.11-0.62-0.27-0.82-0.48c-0.2-0.21-0.33-0.47-0.4-0.79c-0.07-0.32-0.11-0.68-0.12-1.09v-5.82h-1.64V30.45z"/>
		<path class="st1" d="M211.79,34.1h5.54v2.06h-5.54V34.1z"/>
		<path class="st1" d="M221.1,35.95c0,0.38,0.05,0.75,0.16,1.11c0.11,0.36,0.27,0.67,0.49,0.93c0.22,0.27,0.49,0.48,0.82,0.64
			c0.33,0.16,0.72,0.24,1.18,0.24c0.63,0,1.15-0.14,1.53-0.41c0.39-0.27,0.68-0.68,0.87-1.23h2.06c-0.11,0.53-0.31,1.01-0.59,1.43
			s-0.62,0.77-1.01,1.06s-0.83,0.5-1.32,0.65c-0.49,0.15-1,0.22-1.53,0.22c-0.77,0-1.46-0.13-2.06-0.38
			c-0.6-0.25-1.1-0.61-1.51-1.07c-0.41-0.46-0.72-1-0.93-1.64c-0.21-0.64-0.31-1.33-0.31-2.1c0-0.7,0.11-1.36,0.33-1.99
			c0.22-0.63,0.54-1.18,0.95-1.66c0.41-0.48,0.91-0.85,1.5-1.13c0.58-0.28,1.24-0.42,1.98-0.42c0.77,0,1.47,0.16,2.09,0.49
			s1.13,0.75,1.53,1.29c0.41,0.53,0.7,1.15,0.89,1.84c0.18,0.69,0.23,1.41,0.14,2.15H221.1z M226.17,34.52
			c-0.03-0.34-0.1-0.67-0.22-0.99c-0.12-0.32-0.29-0.59-0.5-0.83c-0.21-0.24-0.46-0.43-0.76-0.57c-0.3-0.15-0.63-0.22-1-0.22
			c-0.38,0-0.73,0.07-1.04,0.2c-0.31,0.13-0.58,0.32-0.8,0.55c-0.22,0.24-0.4,0.51-0.53,0.83c-0.13,0.32-0.21,0.66-0.22,1.03H226.17
			z"/>
		<path class="st1" d="M239.27,40.31h-2.06v-1.33h-0.04c-0.29,0.57-0.72,0.98-1.28,1.23c-0.56,0.25-1.15,0.37-1.77,0.37
			c-0.77,0-1.45-0.14-2.03-0.41c-0.58-0.27-1.06-0.65-1.44-1.12c-0.38-0.47-0.67-1.03-0.86-1.67c-0.19-0.64-0.29-1.33-0.29-2.07
			c0-0.89,0.12-1.66,0.36-2.31s0.56-1.18,0.96-1.6c0.4-0.42,0.86-0.73,1.37-0.93c0.51-0.2,1.04-0.3,1.57-0.3
			c0.3,0,0.62,0.03,0.93,0.09s0.62,0.15,0.91,0.28c0.29,0.13,0.56,0.29,0.81,0.49c0.25,0.2,0.45,0.43,0.62,0.7h0.04V26.7h2.17V40.31
			z M231.69,35.49c0,0.42,0.05,0.83,0.16,1.24c0.11,0.41,0.27,0.77,0.5,1.09c0.22,0.32,0.5,0.57,0.85,0.76s0.75,0.29,1.22,0.29
			c0.48,0,0.9-0.1,1.25-0.31c0.35-0.2,0.63-0.47,0.86-0.8c0.22-0.33,0.39-0.7,0.5-1.12c0.11-0.41,0.16-0.84,0.16-1.27
			c0-1.09-0.25-1.94-0.73-2.56c-0.49-0.61-1.15-0.92-1.99-0.92c-0.51,0-0.94,0.1-1.29,0.31c-0.35,0.21-0.64,0.48-0.86,0.82
			c-0.22,0.34-0.38,0.72-0.48,1.14C231.74,34.61,231.69,35.04,231.69,35.49z"/>
		<path class="st1" d="M241.69,26.7h2.17v2.06h-2.17V26.7z M241.69,30.45h2.17v9.86h-2.17V30.45z"/>
		<path class="st1" d="M245.23,30.45h1.64V27.5h2.17v2.96H251v1.62h-1.96v5.26c0,0.23,0.01,0.43,0.03,0.59
			c0.02,0.17,0.06,0.3,0.13,0.42c0.07,0.11,0.17,0.2,0.31,0.26c0.14,0.06,0.33,0.09,0.57,0.09c0.15,0,0.3,0,0.46-0.01
			c0.15-0.01,0.31-0.03,0.46-0.07v1.68c-0.24,0.03-0.48,0.05-0.71,0.08c-0.23,0.03-0.46,0.04-0.71,0.04c-0.57,0-1.03-0.05-1.38-0.16
			c-0.35-0.11-0.62-0.27-0.82-0.48c-0.2-0.21-0.33-0.47-0.4-0.79c-0.07-0.32-0.11-0.68-0.12-1.09v-5.82h-1.64V30.45z"/>
		<path class="st1" d="M252.62,26.7h2.17v2.06h-2.17V26.7z M252.62,30.45h2.17v9.86h-2.17V30.45z"/>
		<path class="st1" d="M257.15,30.45h2.06v1.45l0.04,0.04c0.33-0.55,0.76-0.98,1.29-1.29s1.12-0.47,1.77-0.47
			c1.08,0,1.93,0.28,2.55,0.84c0.62,0.56,0.93,1.4,0.93,2.52v6.77h-2.17v-6.2c-0.03-0.78-0.19-1.34-0.5-1.69
			c-0.3-0.35-0.78-0.52-1.43-0.52c-0.37,0-0.7,0.07-0.99,0.2c-0.29,0.13-0.54,0.32-0.74,0.55s-0.36,0.51-0.48,0.83
			s-0.17,0.65-0.17,1.01v5.82h-2.17V30.45z"/>
		<path class="st1" d="M277.19,39.8c0,1.49-0.42,2.6-1.25,3.33c-0.83,0.73-2.03,1.1-3.59,1.1c-0.5,0-0.99-0.05-1.5-0.15
			c-0.5-0.1-0.96-0.27-1.37-0.51c-0.41-0.24-0.76-0.56-1.04-0.95c-0.28-0.39-0.45-0.88-0.5-1.45h2.17c0.06,0.31,0.17,0.55,0.32,0.74
			s0.33,0.34,0.54,0.45c0.21,0.11,0.44,0.18,0.7,0.21c0.25,0.03,0.52,0.05,0.8,0.05c0.88,0,1.52-0.22,1.92-0.65
			c0.41-0.43,0.61-1.05,0.61-1.87v-1.51h-0.04c-0.3,0.55-0.72,0.97-1.25,1.28c-0.53,0.31-1.09,0.46-1.71,0.46
			c-0.79,0-1.46-0.14-2.01-0.41c-0.55-0.27-1.01-0.65-1.37-1.12c-0.36-0.48-0.63-1.03-0.79-1.65s-0.25-1.29-0.25-2
			c0-0.66,0.1-1.29,0.3-1.89s0.5-1.12,0.88-1.57s0.85-0.81,1.4-1.08c0.55-0.27,1.18-0.4,1.88-0.4c0.62,0,1.19,0.13,1.71,0.39
			c0.52,0.26,0.92,0.67,1.2,1.23h0.04v-1.35h2.17V39.8z M272.37,38.6c0.48,0,0.89-0.1,1.23-0.29c0.34-0.2,0.61-0.46,0.82-0.78
			c0.21-0.32,0.36-0.69,0.46-1.11c0.1-0.41,0.14-0.83,0.14-1.25c0-0.42-0.05-0.83-0.15-1.22s-0.26-0.74-0.47-1.05
			c-0.21-0.31-0.48-0.55-0.82-0.72c-0.34-0.18-0.74-0.27-1.21-0.27c-0.48,0-0.89,0.1-1.22,0.31c-0.33,0.2-0.6,0.47-0.8,0.79
			s-0.35,0.69-0.44,1.11c-0.09,0.41-0.13,0.82-0.13,1.23s0.05,0.8,0.15,1.19s0.26,0.73,0.47,1.04c0.21,0.3,0.48,0.55,0.8,0.74
			C271.52,38.5,271.91,38.6,272.37,38.6z"/>
		<path class="st1" d="M292.23,38.79c-0.51,0.62-1.07,1.08-1.69,1.36c-0.62,0.29-1.32,0.43-2.12,0.43c-0.62,0-1.2-0.09-1.72-0.28
			c-0.53-0.18-0.98-0.45-1.36-0.79c-0.38-0.34-0.68-0.77-0.89-1.27c-0.21-0.5-0.31-1.07-0.31-1.71c0-0.48,0.09-0.92,0.27-1.32
			s0.41-0.75,0.71-1.08s0.62-0.61,1-0.87c0.37-0.25,0.76-0.48,1.15-0.69c-0.18-0.23-0.35-0.45-0.51-0.68
			c-0.17-0.22-0.31-0.45-0.44-0.7c-0.13-0.24-0.23-0.5-0.3-0.76s-0.11-0.55-0.11-0.84c0-0.5,0.09-0.94,0.26-1.33
			c0.17-0.39,0.41-0.73,0.71-1.02s0.66-0.51,1.07-0.66c0.41-0.15,0.84-0.23,1.3-0.23c0.43,0,0.85,0.07,1.27,0.2
			c0.41,0.13,0.77,0.34,1.09,0.61c0.31,0.27,0.56,0.61,0.75,1.02c0.19,0.41,0.29,0.88,0.29,1.43c0,0.41-0.07,0.78-0.2,1.13
			c-0.13,0.34-0.31,0.66-0.53,0.94c-0.22,0.29-0.48,0.54-0.78,0.77c-0.3,0.23-0.61,0.43-0.94,0.61l2.11,2.56
			c0.08-0.22,0.15-0.46,0.23-0.74s0.14-0.64,0.19-1.09h1.9c-0.06,0.6-0.18,1.18-0.35,1.75c-0.17,0.57-0.41,1.1-0.71,1.58l2.61,3.17
			h-2.67L292.23,38.79z M288.41,34.02c-0.2,0.13-0.43,0.25-0.67,0.38s-0.47,0.29-0.68,0.48c-0.21,0.19-0.39,0.42-0.53,0.69
			c-0.15,0.27-0.22,0.6-0.22,1.01c0,0.74,0.21,1.3,0.62,1.7c0.41,0.39,0.94,0.59,1.57,0.59c0.39,0,0.73-0.05,1.01-0.16
			s0.52-0.24,0.71-0.39c0.2-0.15,0.36-0.32,0.5-0.5c0.13-0.18,0.25-0.34,0.35-0.48L288.41,34.02z M289.28,27.99
			c-0.41,0-0.75,0.14-1.03,0.41c-0.28,0.27-0.42,0.64-0.42,1.1c0,0.23,0.04,0.44,0.12,0.64c0.08,0.2,0.18,0.39,0.3,0.57
			c0.12,0.18,0.25,0.37,0.4,0.54c0.15,0.18,0.28,0.35,0.41,0.52c0.2-0.14,0.4-0.28,0.59-0.43s0.36-0.31,0.51-0.48
			c0.15-0.17,0.27-0.37,0.36-0.58c0.09-0.22,0.13-0.46,0.13-0.72c0-0.44-0.13-0.82-0.38-1.12C290.04,28.14,289.7,27.99,289.28,27.99
			z"/>
		<path class="st1" d="M114.25,47.45h2.06v1.37h0.06c0.17-0.24,0.34-0.46,0.53-0.67c0.19-0.2,0.4-0.37,0.64-0.51
			c0.23-0.14,0.5-0.25,0.81-0.33c0.3-0.08,0.65-0.12,1.05-0.12c0.6,0,1.15,0.13,1.67,0.4c0.51,0.27,0.88,0.68,1.09,1.24
			c0.37-0.51,0.79-0.91,1.28-1.2c0.48-0.29,1.09-0.44,1.81-0.44c1.04,0,1.85,0.25,2.43,0.76c0.58,0.51,0.87,1.36,0.87,2.55v6.81
			h-2.17v-5.76c0-0.39-0.01-0.75-0.04-1.08s-0.1-0.6-0.22-0.84c-0.12-0.24-0.3-0.42-0.54-0.54c-0.24-0.13-0.57-0.19-0.99-0.19
			c-0.74,0-1.27,0.23-1.6,0.69c-0.33,0.46-0.5,1.11-0.5,1.95v5.78h-2.17v-6.33c0-0.69-0.12-1.21-0.37-1.55
			c-0.25-0.35-0.7-0.52-1.36-0.52c-0.28,0-0.55,0.06-0.81,0.17c-0.26,0.11-0.49,0.28-0.69,0.5c-0.2,0.22-0.36,0.48-0.48,0.8
			c-0.12,0.32-0.18,0.68-0.18,1.09v5.85h-2.17V47.45z"/>
		<path class="st1" d="M139.07,55.12c0,0.27,0.04,0.46,0.1,0.57c0.07,0.11,0.21,0.17,0.41,0.17c0.06,0,0.14,0,0.23,0
			s0.19-0.01,0.3-0.04v1.51c-0.08,0.02-0.17,0.05-0.29,0.08c-0.12,0.03-0.25,0.06-0.37,0.09s-0.25,0.04-0.38,0.06
			s-0.24,0.02-0.32,0.02c-0.45,0-0.81-0.09-1.11-0.27s-0.48-0.49-0.57-0.93c-0.43,0.42-0.96,0.72-1.59,0.92
			c-0.63,0.19-1.24,0.29-1.82,0.29c-0.44,0-0.87-0.06-1.28-0.18c-0.41-0.12-0.76-0.3-1.08-0.53c-0.31-0.24-0.56-0.53-0.74-0.9
			c-0.18-0.36-0.28-0.78-0.28-1.27c0-0.61,0.11-1.11,0.33-1.49c0.22-0.38,0.51-0.68,0.88-0.9c0.36-0.22,0.77-0.37,1.22-0.47
			c0.45-0.1,0.9-0.17,1.36-0.22c0.39-0.08,0.77-0.13,1.12-0.16c0.36-0.03,0.67-0.09,0.94-0.16c0.27-0.08,0.49-0.19,0.65-0.35
			c0.16-0.16,0.24-0.4,0.24-0.71c0-0.28-0.07-0.51-0.2-0.69c-0.13-0.18-0.3-0.31-0.5-0.41c-0.2-0.1-0.42-0.16-0.66-0.19
			c-0.24-0.03-0.47-0.05-0.69-0.05c-0.61,0-1.11,0.13-1.5,0.38c-0.39,0.25-0.62,0.65-0.67,1.18h-2.17c0.04-0.64,0.19-1.16,0.46-1.58
			c0.27-0.42,0.61-0.76,1.02-1.01c0.41-0.25,0.88-0.43,1.4-0.53c0.52-0.1,1.05-0.15,1.6-0.15c0.48,0,0.96,0.05,1.43,0.15
			s0.89,0.27,1.27,0.5c0.37,0.23,0.68,0.52,0.9,0.89c0.23,0.36,0.34,0.8,0.34,1.33V55.12z M136.9,52.37
			c-0.33,0.22-0.74,0.35-1.22,0.39c-0.48,0.04-0.97,0.11-1.45,0.2c-0.23,0.04-0.45,0.09-0.67,0.16c-0.22,0.07-0.41,0.17-0.57,0.29
			c-0.17,0.12-0.3,0.28-0.39,0.48c-0.1,0.2-0.14,0.44-0.14,0.71c0,0.24,0.07,0.45,0.21,0.61s0.31,0.3,0.5,0.39
			c0.2,0.1,0.41,0.16,0.65,0.2c0.23,0.04,0.45,0.06,0.64,0.06c0.24,0,0.5-0.03,0.78-0.1c0.28-0.06,0.54-0.17,0.79-0.32
			c0.25-0.15,0.45-0.35,0.62-0.58s0.25-0.52,0.25-0.87V52.37z"/>
		<path class="st1" d="M148.06,50.75c-0.09-0.61-0.33-1.07-0.73-1.38c-0.4-0.31-0.9-0.47-1.51-0.47c-0.28,0-0.58,0.05-0.89,0.14
			c-0.32,0.1-0.61,0.27-0.88,0.53c-0.27,0.26-0.49,0.62-0.67,1.09c-0.18,0.46-0.27,1.07-0.27,1.82c0,0.41,0.05,0.81,0.14,1.22
			c0.1,0.41,0.25,0.77,0.46,1.09c0.21,0.32,0.48,0.58,0.81,0.77s0.73,0.3,1.2,0.3c0.63,0,1.16-0.2,1.57-0.59
			c0.41-0.39,0.67-0.95,0.77-1.66h2.17c-0.2,1.28-0.69,2.27-1.46,2.95c-0.77,0.68-1.79,1.02-3.06,1.02c-0.77,0-1.46-0.13-2.05-0.39
			c-0.59-0.26-1.09-0.62-1.5-1.07c-0.41-0.45-0.71-0.99-0.92-1.61c-0.21-0.62-0.31-1.3-0.31-2.02c0-0.74,0.1-1.43,0.3-2.08
			s0.51-1.21,0.91-1.69c0.41-0.48,0.91-0.85,1.51-1.12c0.6-0.27,1.31-0.41,2.12-0.41c0.57,0,1.11,0.07,1.63,0.22
			c0.51,0.15,0.97,0.37,1.37,0.66c0.4,0.29,0.73,0.66,0.98,1.11c0.25,0.45,0.41,0.97,0.46,1.58H148.06z"/>
		<path class="st1" d="M152,43.7h2.17v5.05h0.04c0.27-0.45,0.66-0.82,1.19-1.12c0.53-0.3,1.11-0.45,1.76-0.45
			c1.08,0,1.93,0.28,2.55,0.84s0.93,1.4,0.93,2.52v6.77h-2.17v-6.2c-0.03-0.78-0.19-1.34-0.5-1.69s-0.78-0.52-1.43-0.52
			c-0.37,0-0.7,0.07-0.99,0.2s-0.54,0.32-0.74,0.55c-0.2,0.24-0.36,0.51-0.48,0.83s-0.17,0.66-0.17,1.01v5.82H152V43.7z"/>
		<path class="st1" d="M162.99,43.7h2.17v2.06h-2.17V43.7z M162.99,47.45h2.17v9.86h-2.17V47.45z"/>
		<path class="st1" d="M167.52,47.45h2.06v1.45l0.04,0.04c0.33-0.55,0.76-0.98,1.29-1.29s1.12-0.47,1.77-0.47
			c1.08,0,1.93,0.28,2.55,0.84s0.93,1.4,0.93,2.52v6.77H174v-6.2c-0.03-0.78-0.19-1.34-0.5-1.69s-0.78-0.52-1.43-0.52
			c-0.37,0-0.7,0.07-0.99,0.2s-0.54,0.32-0.74,0.55c-0.2,0.24-0.36,0.51-0.48,0.83s-0.17,0.66-0.17,1.01v5.82h-2.17V47.45z"/>
		<path class="st1" d="M180.15,52.95c0,0.38,0.05,0.75,0.16,1.11c0.11,0.36,0.27,0.67,0.49,0.93c0.22,0.27,0.49,0.48,0.82,0.64
			c0.33,0.16,0.72,0.24,1.18,0.24c0.63,0,1.15-0.14,1.53-0.41c0.39-0.27,0.68-0.68,0.87-1.23h2.06c-0.11,0.53-0.31,1.01-0.59,1.43
			s-0.62,0.77-1.01,1.06s-0.83,0.5-1.32,0.65c-0.49,0.15-1,0.22-1.53,0.22c-0.77,0-1.46-0.13-2.06-0.38
			c-0.6-0.25-1.1-0.61-1.51-1.07c-0.41-0.46-0.72-1-0.93-1.64c-0.21-0.64-0.31-1.33-0.31-2.1c0-0.7,0.11-1.36,0.33-1.99
			c0.22-0.63,0.54-1.18,0.95-1.66c0.41-0.48,0.91-0.85,1.5-1.13c0.58-0.28,1.24-0.42,1.98-0.42c0.77,0,1.47,0.16,2.09,0.49
			s1.13,0.75,1.53,1.29c0.41,0.53,0.7,1.15,0.89,1.84c0.18,0.69,0.23,1.41,0.14,2.15H180.15z M185.22,51.52
			c-0.03-0.34-0.1-0.67-0.22-0.99c-0.12-0.32-0.29-0.59-0.5-0.83c-0.21-0.23-0.46-0.43-0.76-0.57c-0.3-0.15-0.63-0.22-1-0.22
			c-0.38,0-0.73,0.07-1.04,0.2c-0.31,0.13-0.58,0.32-0.8,0.55c-0.22,0.24-0.4,0.51-0.53,0.83c-0.13,0.32-0.21,0.66-0.22,1.03H185.22
			z"/>
		<path class="st1" d="M193.35,47.45h1.64V44.5h2.17v2.96h1.96v1.62h-1.96v5.26c0,0.23,0.01,0.43,0.03,0.59
			c0.02,0.17,0.06,0.3,0.13,0.42c0.07,0.11,0.17,0.2,0.31,0.26c0.14,0.06,0.33,0.09,0.57,0.09c0.15,0,0.3,0,0.46-0.01
			c0.15-0.01,0.31-0.03,0.46-0.07v1.68c-0.24,0.03-0.48,0.05-0.71,0.08c-0.23,0.03-0.46,0.04-0.71,0.04c-0.57,0-1.03-0.05-1.38-0.16
			c-0.35-0.11-0.62-0.27-0.82-0.48c-0.2-0.21-0.33-0.47-0.4-0.79c-0.07-0.32-0.11-0.68-0.12-1.09v-5.82h-1.64V47.45z"/>
		<path class="st1" d="M200.68,47.45h2.04v1.91h0.04c0.06-0.27,0.19-0.53,0.37-0.78c0.18-0.25,0.41-0.49,0.67-0.7
			c0.26-0.21,0.55-0.38,0.87-0.5s0.64-0.19,0.97-0.19c0.25,0,0.43,0.01,0.52,0.02c0.1,0.01,0.19,0.03,0.3,0.04v2.1
			c-0.15-0.03-0.31-0.05-0.47-0.07c-0.16-0.02-0.31-0.03-0.47-0.03c-0.37,0-0.71,0.07-1.04,0.22c-0.32,0.15-0.61,0.36-0.85,0.65
			s-0.43,0.64-0.57,1.06s-0.21,0.9-0.21,1.45v4.69h-2.17V47.45z"/>
		<path class="st1" d="M215.63,55.12c0,0.27,0.04,0.46,0.1,0.57c0.07,0.11,0.21,0.17,0.41,0.17c0.06,0,0.14,0,0.23,0
			s0.19-0.01,0.3-0.04v1.51c-0.08,0.02-0.17,0.05-0.29,0.08c-0.12,0.03-0.25,0.06-0.37,0.09s-0.25,0.04-0.38,0.06
			s-0.24,0.02-0.32,0.02c-0.45,0-0.81-0.09-1.11-0.27s-0.48-0.49-0.57-0.93c-0.43,0.42-0.96,0.72-1.59,0.92
			c-0.63,0.19-1.24,0.29-1.82,0.29c-0.44,0-0.87-0.06-1.28-0.18c-0.41-0.12-0.76-0.3-1.08-0.53c-0.31-0.24-0.56-0.53-0.74-0.9
			c-0.18-0.36-0.28-0.78-0.28-1.27c0-0.61,0.11-1.11,0.33-1.49c0.22-0.38,0.51-0.68,0.88-0.9c0.36-0.22,0.77-0.37,1.22-0.47
			c0.45-0.1,0.9-0.17,1.36-0.22c0.39-0.08,0.77-0.13,1.12-0.16c0.36-0.03,0.67-0.09,0.94-0.16c0.27-0.08,0.49-0.19,0.65-0.35
			c0.16-0.16,0.24-0.4,0.24-0.71c0-0.28-0.07-0.51-0.2-0.69c-0.13-0.18-0.3-0.31-0.5-0.41c-0.2-0.1-0.42-0.16-0.66-0.19
			c-0.24-0.03-0.47-0.05-0.69-0.05c-0.61,0-1.11,0.13-1.5,0.38c-0.39,0.25-0.62,0.65-0.67,1.18h-2.17c0.04-0.64,0.19-1.16,0.46-1.58
			c0.27-0.42,0.61-0.76,1.02-1.01c0.41-0.25,0.88-0.43,1.4-0.53c0.52-0.1,1.05-0.15,1.6-0.15c0.48,0,0.96,0.05,1.43,0.15
			s0.89,0.27,1.27,0.5c0.37,0.23,0.68,0.52,0.9,0.89c0.23,0.36,0.34,0.8,0.34,1.33V55.12z M213.46,52.37
			c-0.33,0.22-0.74,0.35-1.22,0.39c-0.48,0.04-0.97,0.11-1.45,0.2c-0.23,0.04-0.45,0.09-0.67,0.16c-0.22,0.07-0.41,0.17-0.57,0.29
			c-0.17,0.12-0.3,0.28-0.39,0.48c-0.1,0.2-0.14,0.44-0.14,0.71c0,0.24,0.07,0.45,0.21,0.61s0.31,0.3,0.5,0.39
			c0.2,0.1,0.41,0.16,0.65,0.2c0.23,0.04,0.45,0.06,0.64,0.06c0.24,0,0.5-0.03,0.78-0.1c0.28-0.06,0.54-0.17,0.79-0.32
			c0.25-0.15,0.45-0.35,0.62-0.58s0.25-0.52,0.25-0.87V52.37z"/>
		<path class="st1" d="M217.98,47.45h2.06v1.45l0.04,0.04c0.33-0.55,0.76-0.98,1.29-1.29s1.12-0.47,1.77-0.47
			c1.08,0,1.93,0.28,2.55,0.84s0.93,1.4,0.93,2.52v6.77h-2.17v-6.2c-0.03-0.78-0.19-1.34-0.5-1.69s-0.78-0.52-1.43-0.52
			c-0.37,0-0.7,0.07-0.99,0.2s-0.54,0.32-0.74,0.55c-0.2,0.24-0.36,0.51-0.48,0.83s-0.17,0.66-0.17,1.01v5.82h-2.17V47.45z"/>
		<path class="st1" d="M230.55,54.15c0.06,0.64,0.31,1.08,0.72,1.33c0.42,0.25,0.92,0.38,1.5,0.38c0.2,0,0.44-0.02,0.7-0.05
			c0.26-0.03,0.5-0.09,0.73-0.18s0.42-0.22,0.56-0.39c0.15-0.17,0.21-0.4,0.2-0.68s-0.11-0.51-0.3-0.69s-0.43-0.32-0.73-0.43
			c-0.3-0.11-0.64-0.2-1.02-0.28s-0.77-0.16-1.16-0.25c-0.41-0.09-0.8-0.2-1.17-0.32c-0.38-0.13-0.71-0.3-1.01-0.52
			c-0.3-0.22-0.54-0.49-0.71-0.83c-0.18-0.34-0.27-0.75-0.27-1.25c0-0.53,0.13-0.98,0.39-1.34c0.26-0.36,0.59-0.65,0.99-0.88
			c0.4-0.22,0.84-0.38,1.33-0.47c0.49-0.09,0.96-0.13,1.4-0.13c0.51,0,0.99,0.05,1.46,0.16c0.46,0.11,0.88,0.28,1.26,0.52
			c0.37,0.24,0.69,0.56,0.93,0.94c0.25,0.39,0.4,0.86,0.47,1.4h-2.27c-0.1-0.52-0.34-0.87-0.71-1.05c-0.38-0.18-0.8-0.27-1.29-0.27
			c-0.15,0-0.33,0.01-0.54,0.04c-0.21,0.03-0.41,0.07-0.59,0.14c-0.18,0.07-0.34,0.17-0.47,0.3s-0.19,0.31-0.19,0.52
			c0,0.27,0.09,0.48,0.28,0.65c0.18,0.17,0.42,0.3,0.72,0.41c0.3,0.11,0.64,0.2,1.02,0.28s0.77,0.16,1.18,0.25
			c0.39,0.09,0.78,0.2,1.16,0.32s0.72,0.3,1.02,0.51c0.3,0.22,0.54,0.49,0.72,0.82c0.18,0.33,0.28,0.74,0.28,1.22
			c0,0.58-0.13,1.08-0.4,1.49s-0.61,0.74-1.04,0.99c-0.43,0.25-0.9,0.44-1.42,0.55c-0.52,0.11-1.04,0.17-1.54,0.17
			c-0.62,0-1.2-0.07-1.72-0.21c-0.53-0.14-0.98-0.35-1.37-0.64s-0.69-0.64-0.91-1.07c-0.22-0.43-0.34-0.93-0.35-1.52H230.55z"/>
		<path class="st1" d="M238.85,43.7h2.17v13.62h-2.17V43.7z"/>
		<path class="st1" d="M251.63,55.12c0,0.27,0.04,0.46,0.1,0.57c0.07,0.11,0.21,0.17,0.41,0.17c0.06,0,0.14,0,0.23,0
			s0.19-0.01,0.3-0.04v1.51c-0.08,0.02-0.17,0.05-0.29,0.08c-0.12,0.03-0.25,0.06-0.37,0.09s-0.25,0.04-0.38,0.06
			s-0.24,0.02-0.32,0.02c-0.45,0-0.81-0.09-1.11-0.27s-0.48-0.49-0.57-0.93c-0.43,0.42-0.96,0.72-1.59,0.92
			c-0.63,0.19-1.24,0.29-1.82,0.29c-0.44,0-0.87-0.06-1.28-0.18c-0.41-0.12-0.76-0.3-1.08-0.53c-0.31-0.24-0.56-0.53-0.74-0.9
			c-0.18-0.36-0.28-0.78-0.28-1.27c0-0.61,0.11-1.11,0.33-1.49c0.22-0.38,0.51-0.68,0.88-0.9c0.36-0.22,0.77-0.37,1.22-0.47
			c0.45-0.1,0.9-0.17,1.36-0.22c0.39-0.08,0.77-0.13,1.12-0.16c0.36-0.03,0.67-0.09,0.94-0.16c0.27-0.08,0.49-0.19,0.65-0.35
			c0.16-0.16,0.24-0.4,0.24-0.71c0-0.28-0.07-0.51-0.2-0.69c-0.13-0.18-0.3-0.31-0.5-0.41c-0.2-0.1-0.42-0.16-0.66-0.19
			c-0.24-0.03-0.47-0.05-0.69-0.05c-0.61,0-1.11,0.13-1.5,0.38c-0.39,0.25-0.62,0.65-0.67,1.18h-2.17c0.04-0.64,0.19-1.16,0.46-1.58
			c0.27-0.42,0.61-0.76,1.02-1.01c0.41-0.25,0.88-0.43,1.4-0.53c0.52-0.1,1.05-0.15,1.6-0.15c0.48,0,0.96,0.05,1.43,0.15
			s0.89,0.27,1.27,0.5c0.37,0.23,0.68,0.52,0.9,0.89c0.23,0.36,0.34,0.8,0.34,1.33V55.12z M249.46,52.37
			c-0.33,0.22-0.74,0.35-1.22,0.39c-0.48,0.04-0.97,0.11-1.45,0.2c-0.23,0.04-0.45,0.09-0.67,0.16c-0.22,0.07-0.41,0.17-0.57,0.29
			c-0.17,0.12-0.3,0.28-0.39,0.48c-0.1,0.2-0.14,0.44-0.14,0.71c0,0.24,0.07,0.45,0.21,0.61s0.31,0.3,0.5,0.39
			c0.2,0.1,0.41,0.16,0.65,0.2c0.23,0.04,0.45,0.06,0.64,0.06c0.24,0,0.5-0.03,0.78-0.1c0.28-0.06,0.54-0.17,0.79-0.32
			c0.25-0.15,0.45-0.35,0.62-0.58s0.25-0.52,0.25-0.87V52.37z"/>
		<path class="st1" d="M252.98,47.45h1.64V44.5h2.17v2.96h1.96v1.62h-1.96v5.26c0,0.23,0.01,0.43,0.03,0.59
			c0.02,0.17,0.06,0.3,0.13,0.42c0.07,0.11,0.17,0.2,0.31,0.26c0.14,0.06,0.33,0.09,0.57,0.09c0.15,0,0.3,0,0.46-0.01
			c0.15-0.01,0.31-0.03,0.46-0.07v1.68c-0.24,0.03-0.48,0.05-0.71,0.08c-0.23,0.03-0.46,0.04-0.71,0.04c-0.57,0-1.03-0.05-1.38-0.16
			c-0.35-0.11-0.62-0.27-0.82-0.48c-0.2-0.21-0.33-0.47-0.4-0.79c-0.07-0.32-0.11-0.68-0.12-1.09v-5.82h-1.64V47.45z"/>
		<path class="st1" d="M260.37,43.7h2.17v2.06h-2.17V43.7z M260.37,47.45h2.17v9.86h-2.17V47.45z"/>
		<path class="st1" d="M269.42,57.58c-0.79,0-1.49-0.13-2.1-0.39c-0.62-0.26-1.14-0.62-1.56-1.08c-0.43-0.46-0.75-1-0.97-1.64
			c-0.22-0.64-0.33-1.33-0.33-2.1c0-0.75,0.11-1.44,0.33-2.08c0.22-0.64,0.55-1.18,0.97-1.64s0.95-0.82,1.56-1.08
			c0.62-0.26,1.32-0.39,2.1-0.39c0.79,0,1.49,0.13,2.11,0.39c0.62,0.26,1.14,0.62,1.56,1.08c0.42,0.46,0.75,1,0.97,1.64
			c0.22,0.64,0.33,1.33,0.33,2.08c0,0.76-0.11,1.46-0.33,2.1c-0.22,0.64-0.55,1.18-0.97,1.64c-0.43,0.46-0.95,0.82-1.56,1.08
			C270.91,57.45,270.21,57.58,269.42,57.58z M269.42,55.86c0.48,0,0.9-0.1,1.26-0.31c0.36-0.2,0.65-0.47,0.88-0.8
			c0.23-0.33,0.4-0.7,0.5-1.12c0.11-0.41,0.16-0.84,0.16-1.27c0-0.42-0.05-0.84-0.16-1.26c-0.11-0.42-0.28-0.79-0.5-1.12
			s-0.52-0.59-0.88-0.79c-0.36-0.2-0.78-0.3-1.26-0.3s-0.9,0.1-1.26,0.3c-0.36,0.2-0.65,0.47-0.88,0.79s-0.4,0.7-0.5,1.12
			c-0.11,0.42-0.16,0.84-0.16,1.26c0,0.43,0.05,0.86,0.16,1.27c0.11,0.41,0.28,0.79,0.5,1.12c0.23,0.33,0.52,0.6,0.88,0.8
			C268.52,55.76,268.94,55.86,269.42,55.86z"/>
		<path class="st1" d="M276.2,47.45h2.06v1.45l0.04,0.04c0.33-0.55,0.76-0.98,1.29-1.29s1.12-0.47,1.77-0.47
			c1.08,0,1.93,0.28,2.55,0.84s0.93,1.4,0.93,2.52v6.77h-2.17v-6.2c-0.03-0.78-0.19-1.34-0.5-1.69s-0.78-0.52-1.43-0.52
			c-0.37,0-0.7,0.07-0.99,0.2s-0.54,0.32-0.74,0.55c-0.2,0.24-0.36,0.51-0.48,0.83s-0.17,0.66-0.17,1.01v5.82h-2.17V47.45z"/>
		<path class="st1" d="M288.77,54.15c0.06,0.64,0.31,1.08,0.72,1.33c0.42,0.25,0.92,0.38,1.5,0.38c0.2,0,0.44-0.02,0.7-0.05
			c0.26-0.03,0.5-0.09,0.73-0.18s0.42-0.22,0.56-0.39c0.15-0.17,0.21-0.4,0.2-0.68s-0.11-0.51-0.3-0.69s-0.43-0.32-0.73-0.43
			c-0.3-0.11-0.64-0.2-1.02-0.28s-0.77-0.16-1.16-0.25c-0.41-0.09-0.8-0.2-1.17-0.32c-0.38-0.13-0.71-0.3-1.01-0.52
			c-0.3-0.22-0.54-0.49-0.71-0.83c-0.18-0.34-0.27-0.75-0.27-1.25c0-0.53,0.13-0.98,0.39-1.34c0.26-0.36,0.59-0.65,0.99-0.88
			c0.4-0.22,0.84-0.38,1.33-0.47c0.49-0.09,0.96-0.13,1.4-0.13c0.51,0,0.99,0.05,1.46,0.16c0.46,0.11,0.88,0.28,1.26,0.52
			c0.37,0.24,0.69,0.56,0.93,0.94c0.25,0.39,0.4,0.86,0.47,1.4h-2.27c-0.1-0.52-0.34-0.87-0.71-1.05c-0.38-0.18-0.8-0.27-1.29-0.27
			c-0.15,0-0.33,0.01-0.54,0.04c-0.21,0.03-0.41,0.07-0.59,0.14c-0.18,0.07-0.34,0.17-0.47,0.3s-0.19,0.31-0.19,0.52
			c0,0.27,0.09,0.48,0.28,0.65c0.18,0.17,0.42,0.3,0.72,0.41c0.3,0.11,0.64,0.2,1.02,0.28s0.77,0.16,1.18,0.25
			c0.39,0.09,0.78,0.2,1.16,0.32s0.72,0.3,1.02,0.51c0.3,0.22,0.54,0.49,0.72,0.82c0.18,0.33,0.28,0.74,0.28,1.22
			c0,0.58-0.13,1.08-0.4,1.49s-0.61,0.74-1.04,0.99c-0.43,0.25-0.9,0.44-1.42,0.55c-0.52,0.11-1.04,0.17-1.54,0.17
			c-0.62,0-1.2-0.07-1.72-0.21c-0.53-0.14-0.98-0.35-1.37-0.64s-0.69-0.64-0.91-1.07c-0.22-0.43-0.34-0.93-0.35-1.52H288.77z"/>
	</g>
	<rect x="41.27" y="26.32" class="st3" width="3" height="83.38"/>
</g>
</svg>
