<?xml version="1.0" encoding="utf-8"?>
<!-- Generator: Adobe Illustrator 23.0.1, SVG Export Plug-In . SVG Version: 6.00 Build 0)  -->
<svg version="1.1" xmlns="http://www.w3.org/2000/svg" xmlns:xlink="http://www.w3.org/1999/xlink" x="0px" y="0px"
	 viewBox="0 0 654.06 268.5" style="enable-background:new 0 0 654.06 268.5;" xml:space="preserve">
<style type="text/css">
	.st0{fill:#CCCCCC;}
	.st1{fill:none;}
	.st2{fill:#333333;}
	.st3{fill:#66CCFF;}
	.st4{fill:#666666;}
	.st5{fill:#FFFFFF;}
	.st6{fill:#FF6666;}
</style>
<g id="Ebene_1">
	<g>
		<rect class="st0" width="654" height="269"/>
	</g>
</g>
<g id="Ebene_2">
	<g>
		<rect x="12" y="41" class="st1" width="962" height="85"/>
		<path class="st2" d="M66.91,41v42.56c0,9.12-2.12,15.87-6.37,20.23c-4.24,4.37-10.42,6.56-18.52,6.56
			c-8.11,0-14.28-2.19-18.52-6.56c-4.24-4.37-6.37-11.11-6.37-20.23V41h1.9v42.56c0,8.17,1.87,14.38,5.6,18.62
			c3.74,4.24,9.53,6.36,17.39,6.36c7.85,0,13.65-2.12,17.38-6.36c3.74-4.24,5.6-10.45,5.6-18.62V41H66.91z"/>
		<path class="st2" d="M78.59,108.83V60h1.9v12.06h0.19c0.44-1.84,1.14-3.56,2.09-5.18c0.95-1.62,2.22-3.02,3.8-4.23
			c1.58-1.2,3.47-2.15,5.65-2.85c2.19-0.7,4.73-1.01,7.65-0.95v1.9c-3.36-0.19-6.25,0.27-8.69,1.38c-2.44,1.11-4.45,2.63-6.03,4.56
			c-1.58,1.93-2.75,4.17-3.51,6.7c-0.76,2.53-1.14,5.13-1.14,7.79v27.65H78.59z"/>
		<path class="st2" d="M135.21,68.17c-0.76-1.71-1.84-3.12-3.23-4.23c-1.39-1.11-3.06-1.91-4.99-2.42
			c-1.93-0.51-4.07-0.76-6.41-0.76c-3.42,0-6.11,0.46-8.07,1.38c-1.96,0.92-3.42,1.96-4.37,3.13c-0.95,1.17-1.55,2.33-1.81,3.47
			c-0.25,1.14-0.38,1.93-0.38,2.38c0,2.41,0.49,4.26,1.47,5.56c0.98,1.3,2.29,2.3,3.94,2.99c1.71,0.7,3.56,1.3,5.56,1.81
			c2,0.51,4.32,1.11,6.98,1.8c1.9,0.51,3.78,1.03,5.65,1.57c1.87,0.54,3.55,1.28,5.04,2.23c1.49,0.95,2.69,2.15,3.61,3.61
			c0.92,1.46,1.38,3.36,1.38,5.7c0,2.47-0.52,4.56-1.57,6.27s-2.41,3.1-4.08,4.18c-1.68,1.08-3.58,1.85-5.7,2.33
			c-2.12,0.48-4.23,0.71-6.32,0.71c-6.52,0-11.45-1.42-14.77-4.27c-3.32-2.85-4.99-7.35-4.99-13.49h1.9c0,5.51,1.53,9.55,4.61,12.11
			c3.07,2.56,7.49,3.85,13.25,3.85c1.77,0,3.59-0.21,5.46-0.62c1.87-0.41,3.56-1.08,5.08-2c1.52-0.92,2.77-2.1,3.75-3.56
			c0.98-1.46,1.47-3.23,1.47-5.32c0-2.15-0.49-3.9-1.47-5.23c-0.98-1.33-2.25-2.42-3.8-3.28c-1.55-0.85-3.34-1.54-5.37-2.04
			c-2.03-0.51-4.09-1.01-6.18-1.52c-2.34-0.57-4.4-1.11-6.17-1.62c-1.77-0.51-3.36-1.08-4.75-1.71c-2.03-0.89-3.52-2.12-4.47-3.71
			c-0.95-1.58-1.42-3.71-1.42-6.36c0-1.33,0.29-2.72,0.85-4.18c0.57-1.46,1.52-2.79,2.85-3.99c1.33-1.2,3.04-2.19,5.13-2.95
			c2.09-0.76,4.66-1.14,7.69-1.14c5.45,0,9.75,1.24,12.92,3.71c3.17,2.47,4.75,6.43,4.75,11.88h-1.9
			C136.35,71.97,135.97,69.88,135.21,68.17z"/>
		<path class="st2" d="M184.99,108.83V96.76h-0.19c-0.89,3.8-2.84,6.94-5.84,9.4c-3.01,2.47-6.92,3.71-11.73,3.71
			c-2.53,0-4.86-0.37-6.98-1.09c-2.12-0.73-3.96-1.84-5.51-3.33c-1.55-1.49-2.76-3.32-3.61-5.51s-1.28-4.7-1.28-7.55V60h1.9v32.11
			c0,2.85,0.41,5.27,1.23,7.27c0.82,2,1.95,3.64,3.37,4.94c1.43,1.3,3.07,2.25,4.94,2.85c1.87,0.6,3.85,0.9,5.94,0.9
			c2.91,0,5.48-0.55,7.7-1.66c2.22-1.11,4.07-2.6,5.56-4.47c1.49-1.87,2.61-4.04,3.37-6.51c0.76-2.47,1.14-5.07,1.14-7.79V60h1.9
			v48.83H184.99z"/>
		<path class="st2" d="M200.57,41v67.83h-1.9V41H200.57z"/>
		<path class="st2" d="M213.68,68.69c0.82-1.99,2.01-3.72,3.56-5.18c1.55-1.46,3.45-2.6,5.7-3.42c2.25-0.82,4.89-1.24,7.93-1.24
			c2.15,0,4.19,0.22,6.13,0.67c1.93,0.44,3.62,1.22,5.08,2.33c1.46,1.11,2.63,2.55,3.52,4.32c0.89,1.77,1.36,3.99,1.42,6.65v31.06
			c0,0.95,0.19,1.65,0.57,2.09c0.38,0.44,0.89,0.75,1.52,0.9c0.63,0.16,1.31,0.22,2.04,0.19c0.73-0.03,1.41-0.08,2.04-0.14v1.9
			h-2.85c-1.39,0-2.61-0.33-3.66-1s-1.57-1.91-1.57-3.75v-6.37h-0.19c-0.51,1.58-1.32,3.1-2.42,4.56c-1.11,1.46-2.5,2.76-4.18,3.9
			c-1.68,1.14-3.6,2.04-5.75,2.71c-2.15,0.67-4.5,1-7.03,1c-4.94,0-8.9-1.09-11.88-3.28c-2.98-2.19-4.47-5.46-4.47-9.83
			c0-3.04,0.49-5.48,1.47-7.31c0.98-1.84,2.26-3.28,3.85-4.32c1.58-1.04,3.39-1.77,5.42-2.19c2.03-0.41,4.05-0.68,6.08-0.81
			c3.36-0.19,6.24-0.36,8.65-0.52c2.41-0.16,4.39-0.48,5.94-0.95c1.55-0.48,2.69-1.2,3.42-2.19c0.73-0.98,1.09-2.39,1.09-4.23
			c0-1.46-0.13-2.98-0.38-4.56c-0.25-1.58-0.87-3.04-1.85-4.37c-0.98-1.33-2.42-2.42-4.32-3.28c-1.9-0.85-4.46-1.28-7.69-1.28
			c-5.13,0-9.12,1.25-11.97,3.75c-2.85,2.5-4.43,6.03-4.75,10.59h-1.9C212.38,72.82,212.86,70.69,213.68,68.69z M244.94,80.14
			c-0.63,0.89-1.62,1.57-2.94,2.04c-1.33,0.48-2.85,0.84-4.56,1.09c-1.71,0.25-3.56,0.41-5.56,0.48c-2,0.06-3.94,0.16-5.84,0.29
			c-1.9,0.13-3.75,0.37-5.56,0.71c-1.81,0.35-3.41,0.98-4.8,1.9c-1.39,0.92-2.5,2.19-3.32,3.8c-0.82,1.61-1.23,3.72-1.23,6.32
			c0,1.39,0.24,2.77,0.71,4.13c0.48,1.36,1.28,2.56,2.42,3.61c1.14,1.04,2.61,1.9,4.42,2.56s4.04,1,6.7,1
			c3.17,0,5.98-0.54,8.45-1.62c2.47-1.08,4.54-2.48,6.22-4.23c1.68-1.74,2.94-3.75,3.8-6.03c0.85-2.28,1.28-4.62,1.28-7.03v-9.02
			H244.94z"/>
	</g>
	<g>
		<g>
			<path class="st2" d="M21.08,223.4V155h6.46v35.44L62.59,155h7.31l-26.98,27.27l31.73,41.13h-7.88l-28.5-37.14l-10.73,10.73v26.41
				H21.08z"/>
			<path class="st2" d="M90.52,223.4h-5.7v-49.21h5.7v9.21h0.19c1.58-3.93,3.62-6.67,6.13-8.22c2.5-1.55,5.81-2.33,9.93-2.33v6.17
				c-3.23-0.06-5.89,0.44-7.98,1.52c-2.09,1.08-3.75,2.54-4.99,4.37c-1.23,1.84-2.09,4.01-2.56,6.51s-0.71,5.11-0.71,7.84V223.4z"/>
			<path class="st2" d="M121.01,200.12c0,2.66,0.35,5.18,1.04,7.55c0.7,2.38,1.73,4.43,3.09,6.18c1.36,1.74,3.09,3.13,5.18,4.18
				s4.5,1.57,7.22,1.57c3.74,0,6.94-0.98,9.6-2.95c2.66-1.96,4.43-4.75,5.32-8.36h6.37c-0.7,2.34-1.62,4.51-2.75,6.51
				c-1.14,2-2.56,3.74-4.28,5.22c-1.71,1.49-3.74,2.65-6.08,3.47c-2.34,0.82-5.07,1.23-8.17,1.23c-3.93,0-7.31-0.67-10.16-2
				c-2.85-1.33-5.19-3.15-7.03-5.46c-1.84-2.31-3.2-5.04-4.08-8.17c-0.89-3.14-1.33-6.51-1.33-10.12s0.52-7,1.57-10.17
				c1.05-3.17,2.53-5.94,4.47-8.31c1.93-2.38,4.29-4.24,7.08-5.61c2.79-1.36,5.95-2.04,9.5-2.04c6.78,0,12.1,2.33,15.96,6.98
				c3.86,4.66,5.76,11.42,5.7,20.28H121.01z M153.12,195.37c0-2.41-0.33-4.67-1-6.79c-0.66-2.12-1.65-3.96-2.94-5.51
				c-1.3-1.55-2.93-2.79-4.89-3.71c-1.96-0.92-4.21-1.38-6.75-1.38c-2.53,0-4.77,0.47-6.7,1.43c-1.93,0.95-3.58,2.22-4.94,3.8
				c-1.36,1.58-2.46,3.42-3.28,5.51c-0.82,2.09-1.36,4.31-1.62,6.65H153.12z"/>
			<path class="st2" d="M204.99,174.19h5.7v49.21h-5.7v-6.84c-0.76,0.89-1.62,1.8-2.56,2.75c-0.95,0.95-2.04,1.82-3.28,2.61
				c-1.23,0.79-2.68,1.46-4.32,2c-1.65,0.54-3.55,0.81-5.7,0.81c-3.29,0-6.05-0.46-8.26-1.38c-2.22-0.92-4.01-2.2-5.37-3.85
				c-1.36-1.65-2.34-3.56-2.94-5.75c-0.6-2.19-0.9-4.57-0.9-7.17v-32.4h5.7v32.3c0,4.24,0.98,7.49,2.94,9.74
				c1.96,2.25,5.19,3.37,9.69,3.37c2.34,0,4.45-0.46,6.32-1.38c1.87-0.92,3.43-2.2,4.7-3.85c1.27-1.65,2.25-3.61,2.95-5.89
				c0.7-2.28,1.04-4.78,1.04-7.5V174.19z"/>
			<path class="st2" d="M222.09,223.4v-5.04l32.68-39.42h-30.5v-4.75h37.81v5.04l-32.68,39.42h33.92v4.75H222.09z"/>
			<path class="st2" d="M280.99,242.78h-5.7v-68.59h5.7v8.65h0.19c0.82-1.58,1.88-3.01,3.18-4.28c1.3-1.27,2.72-2.31,4.27-3.13
				c1.55-0.82,3.15-1.46,4.8-1.9c1.65-0.44,3.26-0.67,4.85-0.67c3.99,0,7.38,0.67,10.17,2c2.79,1.33,5.08,3.15,6.89,5.46
				c1.81,2.31,3.12,5.05,3.94,8.22c0.82,3.17,1.23,6.55,1.23,10.17c0,3.42-0.44,6.71-1.33,9.88c-0.89,3.17-2.23,5.94-4.04,8.31
				c-1.8,2.38-4.08,4.28-6.84,5.7s-6,2.14-9.74,2.14c-3.48,0-6.82-0.78-10.02-2.33c-3.2-1.55-5.72-3.85-7.55-6.89V242.78z
				 M280.99,198.98c0,2.79,0.38,5.43,1.14,7.93c0.76,2.5,1.85,4.69,3.28,6.55c1.42,1.87,3.17,3.36,5.23,4.46
				c2.06,1.11,4.38,1.66,6.98,1.66c2.91,0,5.46-0.58,7.65-1.76c2.19-1.17,3.97-2.77,5.37-4.8c1.39-2.03,2.41-4.38,3.04-7.08
				c0.63-2.69,0.89-5.59,0.76-8.69c0-3.1-0.43-5.84-1.28-8.22s-2.04-4.39-3.56-6.03c-1.52-1.65-3.29-2.9-5.32-3.75
				c-2.03-0.86-4.24-1.28-6.65-1.28c-2.66,0-5.04,0.54-7.12,1.62c-2.09,1.08-3.83,2.55-5.23,4.42c-1.39,1.87-2.46,4.08-3.18,6.65
				C281.36,193.24,280.99,196.01,280.99,198.98z"/>
			<path class="st2" d="M356.61,194.71c1.08-0.13,2.36-0.32,3.85-0.57c1.49-0.25,2.71-0.6,3.66-1.04c0.95-0.44,1.54-1.19,1.76-2.23
				c0.22-1.04,0.33-2.01,0.33-2.9c0-2.91-0.93-5.3-2.8-7.17c-1.87-1.87-5.02-2.8-9.45-2.8c-1.96,0-3.77,0.18-5.42,0.52
				c-1.65,0.35-3.09,0.95-4.32,1.81c-1.23,0.85-2.25,1.99-3.04,3.42c-0.79,1.42-1.32,3.21-1.57,5.37h-5.79
				c0.19-2.91,0.86-5.4,2-7.46s2.61-3.74,4.42-5.04c1.81-1.3,3.9-2.25,6.27-2.85c2.38-0.6,4.89-0.9,7.55-0.9
				c2.47,0,4.8,0.27,6.98,0.81c2.18,0.54,4.08,1.39,5.7,2.56c1.62,1.17,2.88,2.74,3.8,4.7c0.92,1.96,1.38,4.37,1.38,7.22v26.79
				c0,2.22,0.39,3.63,1.19,4.23c0.79,0.6,2.39,0.46,4.8-0.43v4.46c-0.44,0.13-1.09,0.32-1.95,0.57c-0.86,0.25-1.7,0.38-2.52,0.38
				c-0.89,0-1.74-0.09-2.56-0.29c-0.95-0.13-1.71-0.43-2.28-0.9c-0.57-0.47-1.03-1.04-1.38-1.71c-0.35-0.67-0.59-1.39-0.71-2.18
				c-0.13-0.79-0.19-1.63-0.19-2.52c-2.41,2.66-5.16,4.69-8.27,6.08s-6.46,2.09-10.07,2.09c-2.15,0-4.23-0.29-6.22-0.86
				s-3.75-1.46-5.27-2.66c-1.52-1.2-2.72-2.67-3.61-4.42c-0.89-1.74-1.33-3.82-1.33-6.22c0-8.36,5.73-13.3,17.19-14.82
				L356.61,194.71z M366.21,197.56c-2.41,1.01-4.84,1.68-7.31,1.99c-2.47,0.32-4.94,0.57-7.41,0.76c-4.37,0.32-7.78,1.3-10.21,2.94
				c-2.44,1.65-3.66,4.15-3.66,7.51c0,1.52,0.3,2.83,0.9,3.94c0.6,1.11,1.39,2.03,2.38,2.75c0.98,0.73,2.12,1.27,3.42,1.62
				c1.3,0.35,2.61,0.52,3.94,0.52c2.28,0,4.5-0.29,6.65-0.85c2.15-0.57,4.07-1.44,5.75-2.61c1.68-1.17,3.02-2.66,4.04-4.46
				c1.01-1.8,1.52-3.94,1.52-6.41V197.56z"/>
			<path class="st2" d="M388.72,163.45V155h6.27v8.46H388.72z M389.01,223.4v-49.21h5.7v49.21H389.01z"/>
			<path class="st2" d="M416.27,223.4h-5.7v-49.21h5.7v6.84c2.28-2.41,4.64-4.37,7.08-5.89c2.44-1.52,5.37-2.28,8.79-2.28
				c3.04,0,5.86,0.52,8.46,1.57c2.6,1.04,4.78,2.87,6.56,5.46c1.2,1.77,1.91,3.59,2.14,5.46c0.22,1.87,0.33,3.82,0.33,5.84v32.21
				h-5.7v-32.11c0-4.43-0.98-7.76-2.95-9.98c-1.96-2.22-5.22-3.33-9.79-3.33c-1.77,0-3.39,0.27-4.84,0.81
				c-1.46,0.54-2.77,1.25-3.94,2.14c-1.17,0.89-2.17,1.9-2.99,3.04c-0.82,1.14-1.46,2.34-1.9,3.61c-0.57,1.58-0.92,3.1-1.04,4.56
				c-0.13,1.46-0.19,3.04-0.19,4.75V223.4z"/>
			<path class="st2" d="M482.01,223.59c-0.7,0.13-1.62,0.35-2.75,0.67c-1.14,0.32-2.41,0.47-3.8,0.47c-2.85,0-5.02-0.71-6.51-2.14
				c-1.49-1.42-2.23-3.97-2.23-7.65v-36h-6.93v-4.75h6.93v-13.68h5.7v13.68h9.21v4.75h-9.21v33.73c0,1.2,0.03,2.25,0.09,3.13
				c0.06,0.89,0.25,1.62,0.57,2.18c0.32,0.57,0.81,0.98,1.47,1.24c0.67,0.25,1.6,0.38,2.8,0.38c0.76,0,1.54-0.06,2.33-0.19
				c0.79-0.13,1.57-0.29,2.33-0.47V223.59z"/>
			<path class="st2" d="M498.16,223.4h-5.7v-49.21h5.7v6.84c2.28-2.41,4.64-4.37,7.08-5.89c2.44-1.52,5.37-2.28,8.79-2.28
				c3.04,0,5.86,0.52,8.46,1.57c2.6,1.04,4.78,2.87,6.55,5.46c1.2,1.77,1.92,3.59,2.14,5.46c0.22,1.87,0.33,3.82,0.33,5.84v32.21
				h-5.7v-32.11c0-4.43-0.98-7.76-2.94-9.98c-1.96-2.22-5.23-3.33-9.79-3.33c-1.77,0-3.39,0.27-4.84,0.81
				c-1.46,0.54-2.77,1.25-3.94,2.14c-1.17,0.89-2.17,1.9-2.99,3.04c-0.82,1.14-1.46,2.34-1.9,3.61c-0.57,1.58-0.92,3.1-1.04,4.56
				c-0.13,1.46-0.19,3.04-0.19,4.75V223.4z"/>
			<path class="st2" d="M550.13,200.12c0,2.66,0.35,5.18,1.04,7.55c0.7,2.38,1.72,4.43,3.09,6.18c1.36,1.74,3.09,3.13,5.18,4.18
				s4.5,1.57,7.22,1.57c3.74,0,6.94-0.98,9.6-2.95c2.66-1.96,4.43-4.75,5.32-8.36h6.37c-0.7,2.34-1.62,4.51-2.75,6.51
				c-1.14,2-2.57,3.74-4.28,5.22c-1.71,1.49-3.74,2.65-6.08,3.47c-2.34,0.82-5.07,1.23-8.17,1.23c-3.93,0-7.31-0.67-10.17-2
				c-2.85-1.33-5.19-3.15-7.03-5.46c-1.84-2.31-3.2-5.04-4.08-8.17c-0.89-3.14-1.33-6.51-1.33-10.12s0.52-7,1.57-10.17
				c1.04-3.17,2.53-5.94,4.46-8.31c1.93-2.38,4.29-4.24,7.08-5.61c2.79-1.36,5.95-2.04,9.5-2.04c6.78,0,12.1,2.33,15.96,6.98
				c3.86,4.66,5.76,11.42,5.7,20.28H550.13z M582.24,195.37c0-2.41-0.33-4.67-1-6.79c-0.67-2.12-1.65-3.96-2.95-5.51
				c-1.3-1.55-2.93-2.79-4.89-3.71c-1.96-0.92-4.21-1.38-6.75-1.38c-2.53,0-4.77,0.47-6.7,1.43c-1.93,0.95-3.58,2.22-4.94,3.8
				c-1.36,1.58-2.46,3.42-3.28,5.51c-0.82,2.09-1.36,4.31-1.61,6.65H582.24z"/>
			<path class="st2" d="M606.75,223.4h-5.7v-49.21h5.7v9.21h0.19c1.58-3.93,3.62-6.67,6.13-8.22c2.5-1.55,5.81-2.33,9.93-2.33v6.17
				c-3.23-0.06-5.89,0.44-7.98,1.52c-2.09,1.08-3.75,2.54-4.99,4.37c-1.24,1.84-2.09,4.01-2.57,6.51c-0.47,2.5-0.71,5.11-0.71,7.84
				V223.4z"/>
		</g>
	</g>
	<rect x="33" y="122" class="st3" width="592" height="30"/>
	<g>
		<rect x="287" y="126.29" class="st1" width="368" height="32.71"/>
		<path class="st4" d="M293.27,146.75c-2.35,0-3.84-0.73-4.37-1.04c-0.34-0.62-0.7-2.6-0.76-3.92c0.14-0.2,0.56-0.25,0.67-0.08
			c0.42,1.43,1.57,4.17,4.82,4.17c2.35,0,3.5-1.54,3.5-3.22c0-1.23-0.25-2.6-2.3-3.92l-2.66-1.74c-1.4-0.92-3.02-2.52-3.02-4.82
			c0-2.66,2.07-4.82,5.71-4.82c0.87,0,1.88,0.17,2.6,0.36c0.36,0.11,0.76,0.17,0.98,0.17c0.25,0.67,0.5,2.24,0.5,3.42
			c-0.11,0.17-0.56,0.25-0.7,0.08c-0.36-1.34-1.12-3.16-3.81-3.16c-2.74,0-3.33,1.82-3.33,3.11c0,1.62,1.34,2.8,2.38,3.44l2.24,1.4
			c1.76,1.09,3.5,2.72,3.5,5.38C299.24,144.65,296.91,146.75,293.27,146.75z"/>
		<path class="st4" d="M305.26,136.45c-0.48,0-0.5,0.08-0.5,0.67v5.24c0,1.62,0.2,3.11,2.04,3.11c0.28,0,0.53-0.06,0.76-0.14
			c0.25-0.08,0.62-0.39,0.7-0.39c0.22,0,0.34,0.31,0.28,0.48c-0.5,0.59-1.51,1.29-2.94,1.29c-2.41,0-2.91-1.34-2.91-3.02v-6.41
			c0-0.76-0.03-0.81-0.59-0.81h-0.78c-0.17-0.11-0.2-0.42-0.08-0.59c0.81-0.25,1.51-0.62,1.79-0.87c0.36-0.34,0.9-1.09,1.18-1.65
			c0.14-0.06,0.48-0.06,0.59,0.14v1.26c0,0.5,0.03,0.53,0.5,0.53h3.11c0.34,0.25,0.28,1.01,0.03,1.18H305.26z"/>
		<path class="st4" d="M315.64,140.51c0.42-0.14,0.48-0.39,0.48-0.81l0.03-1.29c0.03-1.04-0.31-2.44-2.04-2.44
			c-0.78,0-1.74,0.39-1.79,1.26c-0.03,0.45-0.06,0.78-0.28,0.95c-0.42,0.34-1.18,0.53-1.6,0.53c-0.25,0-0.39-0.14-0.39-0.39
			c0-1.46,3.16-3.44,5.21-3.44c2.02,0,3,1.18,2.91,3.28l-0.17,4.87c-0.06,1.29,0.2,2.44,1.29,2.44c0.28,0,0.53-0.08,0.7-0.17
			c0.14-0.08,0.28-0.2,0.36-0.2c0.11,0,0.2,0.17,0.2,0.37c0,0.14-0.98,1.23-2.35,1.23c-0.67,0-1.34-0.25-1.82-0.87
			c-0.11-0.17-0.28-0.39-0.45-0.39c-0.2,0-0.53,0.25-1.09,0.56c-0.62,0.34-1.23,0.7-2.02,0.7c-0.81,0-1.48-0.22-1.96-0.64
			c-0.53-0.48-0.87-1.18-0.87-1.96c0-1.09,0.53-1.74,2.32-2.38L315.64,140.51z M313.91,145.44c0.56,0,1.43-0.42,1.71-0.7
			c0.34-0.34,0.34-0.73,0.36-1.32l0.06-1.65c0-0.31-0.11-0.36-0.28-0.36s-0.64,0.11-1.15,0.28c-1.65,0.56-2.46,0.98-2.46,2.07
			C312.14,144.23,312.48,145.44,313.91,145.44z"/>
		<path class="st4" d="M327.15,140.51c0.42-0.14,0.48-0.39,0.48-0.81l0.03-1.29c0.03-1.04-0.31-2.44-2.04-2.44
			c-0.78,0-1.74,0.39-1.79,1.26c-0.03,0.45-0.06,0.78-0.28,0.95c-0.42,0.34-1.18,0.53-1.6,0.53c-0.25,0-0.39-0.14-0.39-0.39
			c0-1.46,3.16-3.44,5.21-3.44c2.02,0,3,1.18,2.91,3.28l-0.17,4.87c-0.06,1.29,0.2,2.44,1.29,2.44c0.28,0,0.53-0.08,0.7-0.17
			c0.14-0.08,0.28-0.2,0.36-0.2c0.11,0,0.2,0.17,0.2,0.37c0,0.14-0.98,1.23-2.35,1.23c-0.67,0-1.34-0.25-1.82-0.87
			c-0.11-0.17-0.28-0.39-0.45-0.39c-0.2,0-0.53,0.25-1.09,0.56c-0.62,0.34-1.23,0.7-2.02,0.7c-0.81,0-1.48-0.22-1.96-0.64
			c-0.53-0.48-0.87-1.18-0.87-1.96c0-1.09,0.53-1.74,2.32-2.38L327.15,140.51z M325.42,145.44c0.56,0,1.43-0.42,1.71-0.7
			c0.34-0.34,0.34-0.73,0.36-1.32l0.06-1.65c0-0.31-0.11-0.36-0.28-0.36s-0.64,0.11-1.15,0.28c-1.65,0.56-2.46,0.98-2.46,2.07
			C323.65,144.23,323.99,145.44,325.42,145.44z"/>
		<path class="st4" d="M337.06,136.45c-0.48,0-0.5,0.08-0.5,0.67v5.24c0,1.62,0.2,3.11,2.04,3.11c0.28,0,0.53-0.06,0.76-0.14
			c0.25-0.08,0.62-0.39,0.7-0.39c0.22,0,0.34,0.31,0.28,0.48c-0.5,0.59-1.51,1.29-2.94,1.29c-2.41,0-2.91-1.34-2.91-3.02v-6.41
			c0-0.76-0.03-0.81-0.59-0.81h-0.78c-0.17-0.11-0.2-0.42-0.08-0.59c0.81-0.25,1.51-0.62,1.79-0.87c0.36-0.34,0.9-1.09,1.18-1.65
			c0.14-0.06,0.48-0.06,0.59,0.14v1.26c0,0.5,0.03,0.53,0.5,0.53h3.11c0.34,0.25,0.28,1.01,0.03,1.18H337.06z"/>
		<path class="st4" d="M345.35,143.17c0,2.02,0.06,2.3,1.06,2.44l0.67,0.08c0.2,0.14,0.14,0.62-0.06,0.7
			c-0.92-0.06-1.74-0.08-2.72-0.08c-1.01,0-1.85,0.03-2.69,0.08c-0.2-0.08-0.25-0.56-0.06-0.7l0.64-0.08
			c1.04-0.14,1.06-0.42,1.06-2.44v-12.66c0-1.65-0.03-1.82-0.87-2.32l-0.28-0.17c-0.14-0.08-0.14-0.48,0-0.56
			c0.7-0.22,2.02-0.64,3.02-1.18c0.11,0,0.22,0.06,0.28,0.17c-0.03,0.84-0.08,2.24-0.08,3.47V143.17z"/>
		<path class="st4" d="M350.67,138.27c0-1.09,0-1.23-0.76-1.74l-0.25-0.17c-0.11-0.11-0.11-0.42,0.03-0.5
			c0.64-0.22,2.24-0.95,2.88-1.37c0.14,0,0.25,0.06,0.28,0.17c-0.06,0.98-0.11,2.32-0.11,3.47v5.04c0,2.02,0.06,2.3,1.06,2.44
			l0.59,0.08c0.2,0.14,0.14,0.62-0.06,0.7c-0.84-0.06-1.65-0.08-2.63-0.08c-1.01,0-1.85,0.03-2.63,0.08
			c-0.2-0.08-0.25-0.56-0.06-0.7l0.59-0.08c1.04-0.14,1.06-0.42,1.06-2.44V138.27z M353,130.29c0,1.01-0.7,1.46-1.48,1.46
			c-0.87,0-1.43-0.64-1.43-1.4c0-0.92,0.67-1.51,1.51-1.51S353,129.51,353,130.29z"/>
		<path class="st4" d="M365.59,135.36c0.22,0.2,0.42,0.64,0.42,1.12c0,0.5-0.28,1.04-0.62,1.04c-0.14,0-0.28-0.06-0.39-0.2
			c-0.62-0.76-1.65-1.48-2.8-1.48c-1.96,0-3.86,1.54-3.86,4.51c0,2.18,1.51,4.79,4.51,4.79c1.62,0,2.46-0.73,3.11-1.68
			c0.22-0.06,0.48,0.14,0.5,0.39c-0.95,2.07-3.05,2.86-4.68,2.86c-1.48,0-2.86-0.48-3.84-1.43c-0.98-0.95-1.62-2.32-1.62-4.14
			c0-3.02,2.13-6.24,6.78-6.24C363.75,134.88,364.84,135.02,365.59,135.36z"/>
		<path class="st4" d="M369.18,130.51c0-1.65-0.03-1.82-0.87-2.32l-0.28-0.17c-0.14-0.08-0.14-0.48,0-0.56
			c0.7-0.22,2.02-0.64,3.02-1.18c0.11,0,0.22,0.06,0.28,0.17c-0.03,0.84-0.08,2.24-0.08,3.47v5.88c0,0.25,0.03,0.48,0.11,0.53
			c1.01-0.78,2.35-1.46,3.78-1.46c2.66,0,3.61,1.65,3.61,3.61v4.68c0,2.02,0.06,2.32,1.06,2.44l0.76,0.08
			c0.2,0.14,0.14,0.62-0.06,0.7c-1.01-0.06-1.82-0.08-2.8-0.08c-1.01,0-1.85,0.03-2.6,0.08c-0.2-0.08-0.25-0.56-0.06-0.7l0.56-0.08
			c1.04-0.17,1.06-0.42,1.06-2.44v-4c0-1.79-0.87-3-2.66-3c-0.95,0-1.68,0.34-2.18,0.76s-0.59,0.56-0.59,1.54v4.7
			c0,2.02,0.06,2.3,1.06,2.44l0.59,0.08c0.2,0.11,0.14,0.62-0.06,0.7c-0.84-0.06-1.65-0.08-2.63-0.08c-1.01,0-1.85,0.03-2.74,0.08
			c-0.2-0.08-0.25-0.56-0.06-0.7l0.7-0.08c1.04-0.11,1.06-0.42,1.06-2.44V130.51z"/>
		<path class="st4" d="M401.01,135.89c0.31,0.14,0.25,1.09-0.17,1.15h-2.02c0.06,0.48,0.06,0.95,0.06,1.43
			c0,1.93-1.15,4.45-4.7,4.45c-0.5,0-0.9-0.06-1.23-0.08c-0.34,0.2-1.23,0.73-1.23,1.54c0,0.64,0.64,1.18,1.96,1.18
			c0.95,0,2.1-0.08,3.33-0.08c1.57,0,3.92,0.28,3.92,3.08c0,3.05-3.33,5.29-6.97,5.29c-3.44,0-4.65-1.85-4.65-3.25
			c0-0.45,0.11-0.81,0.31-1.04c0.48-0.5,1.26-1.23,1.9-1.88c0.25-0.25,0.48-0.5,0.22-0.67c-1.09-0.28-2.04-1.23-2.04-2.21
			c0-0.14,0.11-0.25,0.42-0.48c0.48-0.31,1.01-0.78,1.48-1.29c0.14-0.17,0.28-0.39,0.28-0.53c-0.95-0.5-2.1-1.6-2.1-3.39
			c0-2.41,2.07-4.23,4.56-4.23c1.06,0,2.04,0.28,2.69,0.56c0.9,0.39,1.09,0.45,1.71,0.45H401.01z M395.16,147.2
			c-0.9,0-2.02,0.06-2.41,0.31c-0.67,0.42-1.34,1.29-1.34,2.35c0,1.51,1.2,2.77,3.75,2.77c2.49,0,4.14-1.4,4.14-3
			c0-1.71-1.18-2.44-3.19-2.44H395.16z M396.9,139.19c0-1.9-0.78-3.5-2.49-3.5c-1.34,0-2.35,1.23-2.35,3.14
			c0,1.99,1.2,3.28,2.55,3.28C396.11,142.11,396.9,140.9,396.9,139.19z"/>
		<path class="st4" d="M404.85,139.14c-0.73,0-0.76,0.06-0.76,0.76c0,2.83,1.65,5.24,4.65,5.24c0.92,0,1.71-0.28,2.58-1.37
			c0.28-0.08,0.48,0.08,0.5,0.34c-0.92,1.9-2.94,2.6-4.4,2.6c-1.82,0-3.25-0.78-4.06-1.85c-0.84-1.09-1.18-2.41-1.18-3.64
			c0-3.44,2.27-6.33,5.63-6.33c2.41,0,3.98,1.65,3.98,3.33c0,0.39-0.06,0.62-0.11,0.73c-0.08,0.17-0.48,0.2-1.65,0.2H404.85z
			 M406.59,138.3c2.07,0,2.69-0.11,2.91-0.28c0.08-0.05,0.17-0.17,0.17-0.53c0-0.78-0.53-1.76-2.16-1.76
			c-1.65,0-3.08,1.51-3.11,2.44c0,0.06,0,0.14,0.2,0.14H406.59z"/>
		<path class="st4" d="M414.87,138.27c0-1.09,0-1.23-0.76-1.74l-0.25-0.17c-0.11-0.11-0.11-0.42,0.03-0.5
			c0.73-0.31,2.04-0.98,2.77-1.51c0.17,0,0.28,0.06,0.34,0.2c-0.06,0.5-0.11,0.92-0.11,1.29c0,0.2,0.06,0.36,0.25,0.36
			c0.36-0.17,2.13-1.32,3.92-1.32c2.83,0,4.65,2.3,4.65,5.12c0,3.89-2.86,6.69-6.83,6.69c-0.5,0-1.29-0.06-1.54-0.11
			c-0.25,0.06-0.39,0.2-0.39,0.78v2.94c0,1.99,0.06,2.24,1.06,2.38l1.09,0.14c0.2,0.14,0.14,0.62-0.06,0.7
			c-1.34-0.06-2.16-0.08-3.14-0.08c-1.01,0-1.85,0.03-2.63,0.08c-0.2-0.08-0.25-0.56-0.06-0.7l0.59-0.08
			c1.04-0.14,1.06-0.42,1.06-2.44V138.27z M416.95,143.48c0,0.9,0.28,1.23,0.84,1.68c0.56,0.42,1.43,0.62,2.02,0.62
			c2.3,0,3.64-2.13,3.64-5.04c0-2.24-1.26-4.51-3.78-4.51c-1.2,0-2.07,0.45-2.38,0.78c-0.25,0.31-0.34,0.73-0.34,1.65V143.48z"/>
		<path class="st4" d="M429.63,138.27c0-1.09,0-1.23-0.76-1.74l-0.25-0.17c-0.11-0.11-0.11-0.42,0.03-0.5
			c0.64-0.22,2.13-0.95,2.83-1.37c0.14,0.03,0.22,0.08,0.22,0.2v1.62c0,0.14,0.03,0.22,0.08,0.25c0.98-0.81,2.04-1.68,3.08-1.68
			c0.7,0,1.26,0.45,1.26,1.12c0,0.92-0.76,1.29-1.2,1.29c-0.28,0-0.42-0.08-0.62-0.2c-0.42-0.28-0.84-0.45-1.23-0.45
			c-0.45,0-0.78,0.25-1.01,0.56c-0.28,0.39-0.36,1.2-0.36,2.16v3.81c0,2.02,0.06,2.35,1.12,2.44l1.01,0.08
			c0.2,0.14,0.14,0.62-0.06,0.7c-1.32-0.06-2.13-0.08-3.11-0.08c-1.01,0-1.85,0.03-2.58,0.08c-0.2-0.08-0.25-0.56-0.06-0.7
			l0.53-0.08c1.04-0.17,1.06-0.42,1.06-2.44V138.27z"/>
		<path class="st4" d="M441.05,142.19c0,1.93,0.48,3.22,2.6,3.22c0.76,0,1.65-0.31,2.27-0.84c0.36-0.34,0.56-0.76,0.56-1.62v-4.59
			c0-1.82-0.2-1.88-1.04-2.21l-0.36-0.14c-0.2-0.11-0.2-0.5,0.03-0.62c1.12-0.03,2.66-0.22,3.28-0.5c0.14,0.03,0.22,0.08,0.25,0.2
			c-0.06,0.53-0.08,1.4-0.08,2.44v4.71c0,2.21,0.08,3.05,0.87,3.05c0.34,0,0.7-0.05,1.09-0.14c0.17,0.14,0.2,0.7-0.03,0.81
			c-1.09,0.22-2.72,0.5-3.67,1.04c-0.14,0-0.28-0.08-0.34-0.2v-1.15c0-0.25-0.08-0.39-0.25-0.39c-0.84,0.53-2.21,1.46-3.86,1.46
			c-2.46,0-3.39-1.23-3.39-3.5v-4.68c0-1.76,0-2.02-0.84-2.38l-0.34-0.14c-0.17-0.14-0.14-0.53,0.06-0.62c1.29-0.03,2.38-0.28,3-0.5
			c0.17,0.03,0.25,0.08,0.28,0.2c-0.06,0.48-0.08,1.06-0.08,2.44V142.19z M439.74,130.88c-0.03-0.81,0.56-1.46,1.37-1.46
			c0.81,0,1.4,0.67,1.4,1.34c0,0.87-0.59,1.48-1.4,1.48C440.33,132.25,439.77,131.75,439.74,130.88z M444.58,130.85
			c0-0.78,0.62-1.43,1.43-1.43c0.81,0,1.34,0.67,1.34,1.32c0,0.87-0.53,1.51-1.34,1.51C445.23,132.25,444.61,131.72,444.58,130.85z"
			/>
		<path class="st4" d="M456.34,136.45c-0.48,0-0.48,0.06-0.48,0.81v5.91c0,2.02,0.06,2.35,1.06,2.44l1.01,0.08
			c0.2,0.14,0.14,0.62-0.06,0.7c-1.26-0.06-2.07-0.08-3.05-0.08c-1.01,0-1.85,0.03-2.69,0.08c-0.2-0.08-0.25-0.56-0.06-0.7
			l0.64-0.08c1.04-0.14,1.06-0.42,1.06-2.44v-5.91c0-0.76,0-0.81-0.56-0.81h-0.98c-0.17-0.11-0.2-0.36-0.08-0.53l1.2-0.59
			c0.22-0.11,0.42-0.28,0.42-0.56c0-1.62,0.2-3.36,0.87-4.93c0.7-1.6,2.27-3.56,5.04-3.56c1.48,0,2.74,0.67,2.74,1.68
			c0,0.56-0.53,1.01-1.06,1.01c-0.31,0-0.48-0.11-0.67-0.34c-0.53-0.62-1.32-1.23-2.24-1.23c-0.87,0-1.57,0.53-1.99,1.54
			c-0.5,1.29-0.62,3.33-0.62,4.73v0.81c0,0.76,0,0.78,0.48,0.78h3.19c0.31,0.28,0.11,1.06-0.2,1.18H456.34z"/>
		<path class="st4" d="M464.49,136.45c-0.48,0-0.5,0.08-0.5,0.67v5.24c0,1.62,0.2,3.11,2.04,3.11c0.28,0,0.53-0.06,0.76-0.14
			c0.25-0.08,0.62-0.39,0.7-0.39c0.22,0,0.34,0.31,0.28,0.48c-0.5,0.59-1.51,1.29-2.94,1.29c-2.41,0-2.91-1.34-2.91-3.02v-6.41
			c0-0.76-0.03-0.81-0.59-0.81h-0.78c-0.17-0.11-0.2-0.42-0.08-0.59c0.81-0.25,1.51-0.62,1.79-0.87c0.36-0.34,0.9-1.09,1.18-1.65
			c0.14-0.06,0.48-0.06,0.59,0.14v1.26c0,0.5,0.03,0.53,0.5,0.53h3.11c0.34,0.25,0.28,1.01,0.03,1.18H464.49z"/>
		<path class="st4" d="M471.88,139.14c-0.73,0-0.76,0.06-0.76,0.76c0,2.83,1.65,5.24,4.65,5.24c0.92,0,1.71-0.28,2.58-1.37
			c0.28-0.08,0.48,0.08,0.5,0.34c-0.92,1.9-2.94,2.6-4.4,2.6c-1.82,0-3.25-0.78-4.06-1.85c-0.84-1.09-1.18-2.41-1.18-3.64
			c0-3.44,2.27-6.33,5.63-6.33c2.41,0,3.98,1.65,3.98,3.33c0,0.39-0.06,0.62-0.11,0.73c-0.08,0.17-0.48,0.2-1.65,0.2H471.88z
			 M473.62,138.3c2.07,0,2.69-0.11,2.91-0.28c0.08-0.05,0.17-0.17,0.17-0.53c0-0.78-0.53-1.76-2.16-1.76
			c-1.65,0-3.08,1.51-3.11,2.44c0,0.06,0,0.14,0.2,0.14H473.62z"/>
		<path class="st5" d="M503.66,134.85c0-1.74-0.06-4.96-0.53-5.8c-0.2-0.34-0.7-0.53-1.4-0.59l-0.7-0.06
			c-0.17-0.2-0.11-0.56,0.06-0.67c1.06,0.06,2.1,0.08,3.19,0.08c1.18,0,1.93-0.03,2.94-0.08c0.22,0.14,0.2,0.5,0.06,0.67l-0.67,0.06
			c-0.7,0.06-1.23,0.31-1.4,0.67c-0.39,0.92-0.39,4.14-0.39,5.71v3.16c0,2.44-0.39,5.01-1.96,6.69c-1.2,1.32-3.28,2.04-5.35,2.04
			c-1.93,0-3.86-0.36-5.24-1.54c-1.48-1.23-2.18-3.28-2.18-6.61V132c0-2.91-0.06-3.39-1.68-3.53l-0.7-0.06
			c-0.17-0.11-0.11-0.59,0.06-0.67c1.4,0.06,2.35,0.08,3.47,0.08c1.15,0,2.07-0.03,3.44-0.08c0.17,0.08,0.22,0.56,0.06,0.67
			l-0.67,0.06c-1.62,0.14-1.68,0.62-1.68,3.53v6.05c0,4.51,1.4,7.47,5.68,7.47c4.06,0,5.6-3.19,5.6-7.45V134.85z M493.75,125.14
			c-0.08-0.81,0.5-1.57,1.37-1.57c0.87,0,1.43,0.78,1.43,1.51c0,0.81-0.56,1.48-1.43,1.48
			C494.25,126.57,493.75,126.09,493.75,125.14z M499.15,125.14c0-0.81,0.59-1.57,1.46-1.57s1.34,0.78,1.34,1.51
			c0,0.81-0.48,1.48-1.34,1.48C499.77,126.57,499.18,126.09,499.15,125.14z"/>
		<path class="st5" d="M509.74,130.51c0-1.65-0.03-1.82-0.87-2.32l-0.28-0.17c-0.14-0.08-0.14-0.48,0-0.56
			c0.64-0.25,1.99-0.62,3.05-1.18c0.11,0,0.22,0.06,0.28,0.17c-0.06,0.98-0.11,2.24-0.11,3.47v5.29c0,0.48,0.11,0.59,0.28,0.59
			c0.73-0.42,1.85-0.92,3.22-0.92c3.19,0,5.35,2.41,5.35,5.49c0,3.72-2.69,6.33-6.44,6.33c-1.04,0-1.82-0.2-2.38-0.36
			c-0.59-0.2-0.95-0.36-1.18-0.36c-0.22,0-0.45,0.22-0.59,0.42c-0.03,0.03-0.06,0.03-0.11,0.03c-0.11,0-0.22-0.06-0.28-0.17
			c0.03-0.39,0.06-0.92,0.06-2.38V130.51z M511.81,142.5c0,0.98,0.22,1.85,0.7,2.44c0.48,0.59,1.23,0.92,2.13,0.92
			c2.63,0,3.67-2.24,3.67-4.65c0-2.88-1.48-5.12-4.26-5.12c-0.84,0-1.51,0.2-1.9,0.45c-0.28,0.2-0.34,0.5-0.34,1.6V142.5z"/>
		<path class="st5" d="M525.47,139.14c-0.73,0-0.76,0.06-0.76,0.76c0,2.83,1.65,5.24,4.65,5.24c0.92,0,1.71-0.28,2.58-1.37
			c0.28-0.08,0.48,0.08,0.5,0.34c-0.92,1.9-2.94,2.6-4.4,2.6c-1.82,0-3.25-0.78-4.06-1.85c-0.84-1.09-1.18-2.41-1.18-3.64
			c0-3.44,2.27-6.33,5.63-6.33c2.41,0,3.98,1.65,3.98,3.33c0,0.39-0.06,0.62-0.11,0.73c-0.08,0.17-0.48,0.2-1.65,0.2H525.47z
			 M527.21,138.3c2.07,0,2.69-0.11,2.91-0.28c0.08-0.05,0.17-0.17,0.17-0.53c0-0.78-0.53-1.76-2.16-1.76
			c-1.65,0-3.08,1.51-3.11,2.44c0,0.06,0,0.14,0.2,0.14H527.21z"/>
		<path class="st5" d="M535.86,138.27c0-1.09,0-1.23-0.76-1.74l-0.25-0.17c-0.11-0.11-0.11-0.42,0.03-0.5
			c0.64-0.22,2.13-0.95,2.83-1.37c0.14,0.03,0.22,0.08,0.22,0.2v1.62c0,0.14,0.03,0.22,0.08,0.25c0.98-0.81,2.04-1.68,3.08-1.68
			c0.7,0,1.26,0.45,1.26,1.12c0,0.92-0.76,1.29-1.2,1.29c-0.28,0-0.42-0.08-0.62-0.2c-0.42-0.28-0.84-0.45-1.23-0.45
			c-0.45,0-0.78,0.25-1.01,0.56c-0.28,0.39-0.36,1.2-0.36,2.16v3.81c0,2.02,0.06,2.35,1.12,2.44l1.01,0.08
			c0.2,0.14,0.14,0.62-0.06,0.7c-1.32-0.06-2.13-0.08-3.11-0.08c-1.01,0-1.85,0.03-2.58,0.08c-0.2-0.08-0.25-0.56-0.06-0.7
			l0.53-0.08c1.04-0.17,1.06-0.42,1.06-2.44V138.27z"/>
		<path class="st5" d="M550.28,135.39c0.25,0.62,0.45,1.51,0.45,2.27c-0.11,0.2-0.53,0.25-0.67,0.08c-0.48-1.23-1.32-2.04-2.46-2.04
			c-1.09,0-1.79,0.7-1.79,1.71c0,1.15,1.18,1.76,2.16,2.32c1.48,0.84,2.86,1.79,2.86,3.78c0,2.13-1.96,3.19-4.03,3.19
			c-1.32,0-2.3-0.28-3-0.84c-0.22-0.53-0.39-1.9-0.34-2.83c0.14-0.17,0.5-0.2,0.64-0.03c0.48,1.54,1.37,2.88,2.97,2.88
			c1.01,0,1.88-0.59,1.88-1.79c0-1.29-1.12-1.99-2.16-2.58c-1.62-0.92-2.77-1.9-2.77-3.44c0-2.04,1.68-3.19,3.81-3.19
			C548.99,134.88,550.03,135.16,550.28,135.39z"/>
		<path class="st5" d="M555.49,139.14c-0.73,0-0.76,0.06-0.76,0.76c0,2.83,1.65,5.24,4.65,5.24c0.92,0,1.71-0.28,2.58-1.37
			c0.28-0.08,0.48,0.08,0.5,0.34c-0.92,1.9-2.94,2.6-4.4,2.6c-1.82,0-3.25-0.78-4.06-1.85c-0.84-1.09-1.18-2.41-1.18-3.64
			c0-3.44,2.27-6.33,5.63-6.33c2.41,0,3.98,1.65,3.98,3.33c0,0.39-0.06,0.62-0.11,0.73c-0.08,0.17-0.48,0.2-1.65,0.2H555.49z
			 M557.23,138.3c2.07,0,2.69-0.11,2.91-0.28c0.08-0.05,0.17-0.17,0.17-0.53c0-0.78-0.53-1.76-2.16-1.76
			c-1.65,0-3.08,1.51-3.11,2.44c0,0.06,0,0.14,0.2,0.14H557.23z"/>
		<path class="st5" d="M568.17,136.45c-0.48,0-0.5,0.08-0.5,0.67v5.24c0,1.62,0.2,3.11,2.04,3.11c0.28,0,0.53-0.06,0.76-0.14
			c0.25-0.08,0.62-0.39,0.7-0.39c0.22,0,0.34,0.31,0.28,0.48c-0.5,0.59-1.51,1.29-2.94,1.29c-2.41,0-2.91-1.34-2.91-3.02v-6.41
			c0-0.76-0.03-0.81-0.59-0.81h-0.78c-0.17-0.11-0.2-0.42-0.08-0.59c0.81-0.25,1.51-0.62,1.79-0.87c0.36-0.34,0.9-1.09,1.18-1.65
			c0.14-0.06,0.48-0.06,0.59,0.14v1.26c0,0.5,0.03,0.53,0.5,0.53h3.11c0.34,0.25,0.28,1.01,0.03,1.18H568.17z"/>
		<path class="st5" d="M575.73,146.31c-1.51,0-2.6,0.03-2.94,0.08c-0.11-0.06-0.17-0.17-0.17-0.28c0.56-0.67,1.85-2.66,2.69-4.12
			l2.97-5.04c0.45-0.78,0.25-0.84-0.25-0.84h-1.93c-0.84,0-1.51,0.08-1.93,0.42c-0.48,0.36-0.76,1.01-1.01,1.62
			c-0.14,0.17-0.56,0.11-0.64-0.11c0.06-0.73,0.53-2.6,0.92-3.28c0.08-0.06,0.25-0.06,0.34,0c0.08,0.48,0.39,0.5,1.99,0.5h3.98
			c0.76,0,1.29,0,1.71-0.08c0.11,0.06,0.17,0.14,0.14,0.28c-0.59,0.81-1.26,1.85-2.07,3.19l-3.39,5.68
			c-0.59,1.01-0.53,1.12,0.53,1.12h0.95c1.09,0,2.52,0,3.3-0.84c0.31-0.34,0.59-0.92,0.9-1.62c0.2-0.11,0.53-0.06,0.62,0.17
			c-0.25,1.37-0.67,2.69-1.04,3.22c-0.92-0.06-1.85-0.08-3.14-0.08H575.73z"/>
		<path class="st5" d="M586.15,139.14c-0.73,0-0.76,0.06-0.76,0.76c0,2.83,1.65,5.24,4.65,5.24c0.92,0,1.71-0.28,2.58-1.37
			c0.28-0.08,0.48,0.08,0.5,0.34c-0.92,1.9-2.94,2.6-4.4,2.6c-1.82,0-3.25-0.78-4.06-1.85c-0.84-1.09-1.18-2.41-1.18-3.64
			c0-3.44,2.27-6.33,5.63-6.33c2.41,0,3.98,1.65,3.98,3.33c0,0.39-0.06,0.62-0.11,0.73c-0.08,0.17-0.48,0.2-1.65,0.2H586.15z
			 M587.88,138.3c2.07,0,2.69-0.11,2.91-0.28c0.08-0.05,0.17-0.17,0.17-0.53c0-0.78-0.53-1.76-2.16-1.76
			c-1.65,0-3.08,1.51-3.11,2.44c0,0.06,0,0.14,0.2,0.14H587.88z"/>
		<path class="st5" d="M596.54,138.27c0-1.09,0-1.23-0.76-1.74l-0.25-0.17c-0.11-0.11-0.11-0.42,0.03-0.5
			c0.64-0.22,2.13-0.95,2.83-1.37c0.14,0.03,0.22,0.08,0.22,0.2v1.62c0,0.14,0.03,0.22,0.08,0.25c0.98-0.81,2.04-1.68,3.08-1.68
			c0.7,0,1.26,0.45,1.26,1.12c0,0.92-0.76,1.29-1.2,1.29c-0.28,0-0.42-0.08-0.62-0.2c-0.42-0.28-0.84-0.45-1.23-0.45
			c-0.45,0-0.78,0.25-1.01,0.56c-0.28,0.39-0.36,1.2-0.36,2.16v3.81c0,2.02,0.06,2.35,1.12,2.44l1.01,0.08
			c0.2,0.14,0.14,0.62-0.06,0.7c-1.32-0.06-2.13-0.08-3.11-0.08c-1.01,0-1.85,0.03-2.58,0.08c-0.2-0.08-0.25-0.56-0.06-0.7
			l0.53-0.08c1.04-0.17,1.06-0.42,1.06-2.44V138.27z"/>
		<path class="st5" d="M606.03,138.27c0-1.09,0-1.23-0.76-1.74l-0.25-0.17c-0.11-0.11-0.11-0.42,0.03-0.5
			c0.64-0.22,2.24-0.95,2.88-1.37c0.14,0,0.25,0.06,0.28,0.17c-0.06,0.98-0.11,2.32-0.11,3.47v5.04c0,2.02,0.06,2.3,1.06,2.44
			l0.59,0.08c0.2,0.14,0.14,0.62-0.06,0.7c-0.84-0.06-1.65-0.08-2.63-0.08c-1.01,0-1.85,0.03-2.63,0.08
			c-0.2-0.08-0.25-0.56-0.06-0.7l0.59-0.08c1.04-0.14,1.06-0.42,1.06-2.44V138.27z M608.35,130.29c0,1.01-0.7,1.46-1.48,1.46
			c-0.87,0-1.43-0.64-1.43-1.4c0-0.92,0.67-1.51,1.51-1.51S608.35,129.51,608.35,130.29z"/>
		<path class="st5" d="M613.42,138.27c0-1.09,0-1.23-0.76-1.74l-0.25-0.17c-0.11-0.11-0.11-0.42,0.03-0.5
			c0.64-0.22,2.24-0.95,2.8-1.37c0.11,0,0.25,0.06,0.31,0.2c-0.06,0.64-0.06,1.06-0.06,1.32c0,0.17,0.11,0.31,0.31,0.31
			c1.18-0.73,2.49-1.43,3.92-1.43c2.32,0,3.28,1.6,3.28,3.47v4.82c0,2.02,0.06,2.3,1.06,2.44l0.62,0.08c0.2,0.14,0.14,0.62-0.06,0.7
			c-0.84-0.06-1.65-0.08-2.63-0.08c-1.01,0-1.85,0.03-2.6,0.08c-0.2-0.08-0.25-0.56-0.06-0.7l0.53-0.08
			c1.04-0.17,1.06-0.42,1.06-2.44V139c0-1.6-0.73-2.77-2.63-2.77c-1.06,0-1.99,0.45-2.38,0.98c-0.36,0.48-0.42,0.87-0.42,1.68v4.28
			c0,2.02,0.06,2.27,1.06,2.44l0.5,0.08c0.2,0.14,0.14,0.62-0.06,0.7c-0.76-0.06-1.57-0.08-2.55-0.08c-1.01,0-1.85,0.03-2.63,0.08
			c-0.2-0.08-0.25-0.56-0.06-0.7l0.59-0.08c1.04-0.14,1.06-0.42,1.06-2.44V138.27z"/>
	</g>
	<g>
		<rect x="31.07" y="126.29" class="st1" width="256.93" height="32.71"/>
		<path class="st4" d="M35.83,129.76c2.04-1.6,4.65-2.38,7.56-2.38c1.51,0,3.64,0.31,4.96,0.67c0.34,0.08,0.53,0.14,0.78,0.11
			c0.03,0.64,0.17,2.41,0.39,4.12c-0.14,0.2-0.56,0.22-0.76,0.06c-0.42-1.9-1.68-4.09-5.74-4.09c-4.28,0-7.92,2.72-7.92,8.51
			c0,5.88,3.72,9.13,8.32,9.13c3.61,0,5.21-2.35,5.85-4c0.2-0.14,0.62-0.08,0.73,0.11c-0.2,1.46-0.92,3.3-1.34,3.84
			c-0.34,0.06-0.67,0.17-0.98,0.28c-0.62,0.22-2.63,0.64-4.42,0.64c-2.52,0-4.93-0.5-6.97-1.88c-2.24-1.54-3.98-4.09-3.98-7.7
			C32.3,134.07,33.7,131.41,35.83,129.76z"/>
		<path class="st4" d="M55.68,139.14c-0.73,0-0.76,0.06-0.76,0.76c0,2.83,1.65,5.24,4.65,5.24c0.92,0,1.71-0.28,2.58-1.37
			c0.28-0.08,0.48,0.08,0.5,0.34c-0.92,1.9-2.94,2.6-4.4,2.6c-1.82,0-3.25-0.78-4.06-1.85c-0.84-1.09-1.18-2.41-1.18-3.64
			c0-3.44,2.27-6.33,5.63-6.33c2.41,0,3.98,1.65,3.98,3.33c0,0.39-0.06,0.62-0.11,0.73c-0.08,0.17-0.48,0.2-1.65,0.2H55.68z
			 M57.41,138.3c2.07,0,2.69-0.11,2.91-0.28c0.08-0.05,0.17-0.17,0.17-0.53c0-0.78-0.53-1.76-2.16-1.76c-1.65,0-3.08,1.51-3.11,2.44
			c0,0.06,0,0.14,0.2,0.14H57.41z"/>
		<path class="st4" d="M67.35,138.27c0-1.09,0-1.23-0.76-1.74l-0.25-0.17c-0.11-0.11-0.11-0.42,0.03-0.5
			c0.64-0.22,2.13-0.95,2.83-1.37c0.14,0.03,0.22,0.08,0.22,0.2v1.62c0,0.14,0.03,0.22,0.08,0.25c0.98-0.81,2.04-1.68,3.08-1.68
			c0.7,0,1.26,0.45,1.26,1.12c0,0.92-0.76,1.29-1.2,1.29c-0.28,0-0.42-0.08-0.62-0.2c-0.42-0.28-0.84-0.45-1.23-0.45
			c-0.45,0-0.78,0.25-1.01,0.56c-0.28,0.39-0.36,1.2-0.36,2.16v3.81c0,2.02,0.06,2.35,1.12,2.44l1.01,0.08
			c0.2,0.14,0.14,0.62-0.06,0.7c-1.32-0.06-2.13-0.08-3.11-0.08c-1.01,0-1.85,0.03-2.58,0.08c-0.2-0.08-0.25-0.56-0.06-0.7
			l0.53-0.08c1.04-0.17,1.06-0.42,1.06-2.44V138.27z"/>
		<path class="st4" d="M80.65,136.45c-0.48,0-0.5,0.08-0.5,0.67v5.24c0,1.62,0.2,3.11,2.04,3.11c0.28,0,0.53-0.06,0.76-0.14
			c0.25-0.08,0.62-0.39,0.7-0.39c0.22,0,0.34,0.31,0.28,0.48c-0.5,0.59-1.51,1.29-2.94,1.29c-2.41,0-2.91-1.34-2.91-3.02v-6.41
			c0-0.76-0.03-0.81-0.59-0.81h-0.78c-0.17-0.11-0.2-0.42-0.08-0.59c0.81-0.25,1.51-0.62,1.79-0.87c0.36-0.34,0.9-1.09,1.18-1.65
			c0.14-0.06,0.48-0.06,0.59,0.14v1.26c0,0.5,0.03,0.53,0.5,0.53h3.11c0.34,0.25,0.28,1.01,0.03,1.18H80.65z"/>
		<path class="st4" d="M88.44,138.27c0-1.09,0-1.23-0.76-1.74l-0.25-0.17c-0.11-0.11-0.11-0.42,0.03-0.5
			c0.64-0.22,2.24-0.95,2.88-1.37c0.14,0,0.25,0.06,0.28,0.17c-0.06,0.98-0.11,2.32-0.11,3.47v5.04c0,2.02,0.06,2.3,1.06,2.44
			l0.59,0.08c0.2,0.14,0.14,0.62-0.06,0.7c-0.84-0.06-1.65-0.08-2.63-0.08c-1.01,0-1.85,0.03-2.63,0.08
			c-0.2-0.08-0.25-0.56-0.06-0.7l0.59-0.08c1.04-0.14,1.06-0.42,1.06-2.44V138.27z M90.76,130.29c0,1.01-0.7,1.46-1.48,1.46
			c-0.87,0-1.43-0.64-1.43-1.4c0-0.92,0.67-1.51,1.51-1.51S90.76,129.51,90.76,130.29z"/>
		<path class="st4" d="M97.03,137.26c0-0.76,0-0.81-0.56-0.81h-0.98c-0.17-0.11-0.2-0.36-0.08-0.53l1.2-0.59
			c0.22-0.11,0.42-0.28,0.42-0.56c0-1.6,0.22-3.22,0.87-4.7c0.59-1.43,2.3-3.78,5.43-3.78c1.9,0,3.47,1.01,3.47,2.18
			c0,0.84-0.73,1.15-1.15,1.15c-0.39,0-0.59-0.2-0.73-0.42c-0.81-1.37-1.9-1.85-2.63-1.85c-2.18,0-3.19,2.41-3.19,6.75v0.31
			c0,0.7,0.06,0.87,0.53,0.87h3.14c1.23,0,3-0.14,3.67-0.39c0.11,0,0.22,0.06,0.28,0.14c-0.06,1.01-0.11,2.35-0.11,3.5v4.65
			c0,2.02,0.06,2.3,1.06,2.44l0.59,0.08c0.2,0.14,0.14,0.62-0.06,0.7c-0.84-0.06-1.65-0.08-2.63-0.08c-1.01,0-1.85,0.03-2.63,0.08
			c-0.2-0.08-0.25-0.56-0.06-0.7l0.59-0.08c1.04-0.14,1.06-0.42,1.06-2.44v-4.87c0-1.71-0.2-1.85-1.4-1.85h-3.5
			c-0.48,0-0.53,0.2-0.53,0.87v5.85c0,2.02,0.06,2.35,1.06,2.44l0.9,0.08c0.2,0.14,0.14,0.62-0.06,0.7
			c-1.15-0.06-1.96-0.08-2.94-0.08c-1.01,0-1.85,0.03-2.69,0.08c-0.2-0.08-0.25-0.56-0.06-0.7l0.64-0.08
			c1.04-0.14,1.06-0.42,1.06-2.44V137.26z"/>
		<path class="st4" d="M114.11,139.14c-0.73,0-0.76,0.06-0.76,0.76c0,2.83,1.65,5.24,4.65,5.24c0.92,0,1.71-0.28,2.58-1.37
			c0.28-0.08,0.48,0.08,0.5,0.34c-0.92,1.9-2.94,2.6-4.4,2.6c-1.82,0-3.25-0.78-4.06-1.85c-0.84-1.09-1.18-2.41-1.18-3.64
			c0-3.44,2.27-6.33,5.63-6.33c2.41,0,3.98,1.65,3.98,3.33c0,0.39-0.06,0.62-0.11,0.73c-0.08,0.17-0.48,0.2-1.65,0.2H114.11z
			 M115.85,138.3c2.07,0,2.69-0.11,2.91-0.28c0.08-0.05,0.17-0.17,0.17-0.53c0-0.78-0.53-1.76-2.16-1.76
			c-1.65,0-3.08,1.51-3.11,2.44c0,0.06,0,0.14,0.2,0.14H115.85z"/>
		<path class="st4" d="M134.92,142.22c0,2.21,0.03,3.25,0.81,3.25c0.31,0,0.78-0.14,1.2-0.28c0.2,0.06,0.22,0.76-0.03,0.9
			c-1.18,0.17-2.91,0.59-3.7,0.9c-0.17,0-0.31-0.08-0.31-0.22v-0.48c0-0.42,0-0.76-0.06-0.87h-0.11c-1.23,0.84-2.18,1.29-3.53,1.29
			c-3.11,0-5.18-2.44-5.18-5.38c0-3.92,2.97-6.44,6.78-6.44c0.95,0,1.57,0.14,1.88,0.25c0.14,0,0.17-0.17,0.17-0.39v-4.23
			c0-1.65-0.03-1.82-0.87-2.32l-0.28-0.17c-0.14-0.08-0.14-0.48,0-0.56c0.7-0.22,2.02-0.64,3.02-1.18c0.11,0,0.22,0.06,0.28,0.17
			c-0.03,0.84-0.08,2.24-0.08,3.47V142.22z M132.84,138.02c0-0.56-0.11-0.81-0.31-1.09c-0.42-0.59-1.26-1.18-2.35-1.18
			c-2.55,0-3.86,2.21-3.86,4.65c0,2.55,1.43,4.96,4.17,4.96c0.76,0,1.71-0.34,2.16-0.78c0.17-0.17,0.2-0.59,0.2-1.04V138.02z"/>
		<path class="st5" d="M152.3,136.45c-0.48,0-0.5,0.08-0.5,0.67v5.24c0,1.62,0.2,3.11,2.04,3.11c0.28,0,0.53-0.06,0.76-0.14
			c0.25-0.08,0.62-0.39,0.7-0.39c0.22,0,0.34,0.31,0.28,0.48c-0.5,0.59-1.51,1.29-2.94,1.29c-2.41,0-2.91-1.34-2.91-3.02v-6.41
			c0-0.76-0.03-0.81-0.59-0.81h-0.78c-0.17-0.11-0.2-0.42-0.08-0.59c0.81-0.25,1.51-0.62,1.79-0.87c0.36-0.34,0.9-1.09,1.18-1.65
			c0.14-0.06,0.48-0.06,0.59,0.14v1.26c0,0.5,0.03,0.53,0.5,0.53h3.11c0.34,0.25,0.28,1.01,0.03,1.18H152.3z"/>
		<path class="st5" d="M159.3,138.27c0-1.09,0-1.23-0.76-1.74l-0.25-0.17c-0.11-0.11-0.11-0.42,0.03-0.5
			c0.64-0.22,2.13-0.95,2.83-1.37c0.14,0.03,0.22,0.08,0.22,0.2v1.62c0,0.14,0.03,0.22,0.08,0.25c0.98-0.81,2.04-1.68,3.08-1.68
			c0.7,0,1.26,0.45,1.26,1.12c0,0.92-0.76,1.29-1.2,1.29c-0.28,0-0.42-0.08-0.62-0.2c-0.42-0.28-0.84-0.45-1.23-0.45
			c-0.45,0-0.78,0.25-1.01,0.56c-0.28,0.39-0.36,1.2-0.36,2.16v3.81c0,2.02,0.06,2.35,1.12,2.44l1.01,0.08
			c0.2,0.14,0.14,0.62-0.06,0.7c-1.32-0.06-2.13-0.08-3.11-0.08c-1.01,0-1.85,0.03-2.58,0.08c-0.2-0.08-0.25-0.56-0.06-0.7
			l0.53-0.08c1.04-0.17,1.06-0.42,1.06-2.44V138.27z"/>
		<path class="st5" d="M173.19,140.51c0.42-0.14,0.48-0.39,0.48-0.81l0.03-1.29c0.03-1.04-0.31-2.44-2.04-2.44
			c-0.78,0-1.74,0.39-1.79,1.26c-0.03,0.45-0.06,0.78-0.28,0.95c-0.42,0.34-1.18,0.53-1.6,0.53c-0.25,0-0.39-0.14-0.39-0.39
			c0-1.46,3.16-3.44,5.21-3.44c2.02,0,3,1.18,2.91,3.28l-0.17,4.87c-0.06,1.29,0.2,2.44,1.29,2.44c0.28,0,0.53-0.08,0.7-0.17
			c0.14-0.08,0.28-0.2,0.36-0.2c0.11,0,0.2,0.17,0.2,0.37c0,0.14-0.98,1.23-2.35,1.23c-0.67,0-1.34-0.25-1.82-0.87
			c-0.11-0.17-0.28-0.39-0.45-0.39c-0.2,0-0.53,0.25-1.09,0.56c-0.62,0.34-1.23,0.7-2.02,0.7c-0.81,0-1.48-0.22-1.96-0.64
			c-0.53-0.48-0.87-1.18-0.87-1.96c0-1.09,0.53-1.74,2.32-2.38L173.19,140.51z M171.46,145.44c0.56,0,1.43-0.42,1.71-0.7
			c0.34-0.34,0.34-0.73,0.36-1.32l0.06-1.65c0-0.31-0.11-0.36-0.28-0.36s-0.64,0.11-1.15,0.28c-1.65,0.56-2.46,0.98-2.46,2.07
			C169.69,144.23,170.03,145.44,171.46,145.44z"/>
		<path class="st5" d="M181.31,138.27c0-1.09,0-1.23-0.76-1.74l-0.25-0.17c-0.11-0.11-0.11-0.42,0.03-0.5
			c0.64-0.22,2.24-0.95,2.8-1.37c0.11,0,0.25,0.06,0.31,0.2c-0.06,0.64-0.06,1.06-0.06,1.32c0,0.17,0.11,0.31,0.31,0.31
			c1.18-0.73,2.49-1.43,3.92-1.43c2.32,0,3.28,1.6,3.28,3.47v4.82c0,2.02,0.06,2.3,1.06,2.44l0.62,0.08c0.2,0.14,0.14,0.62-0.06,0.7
			c-0.84-0.06-1.65-0.08-2.63-0.08c-1.01,0-1.85,0.03-2.6,0.08c-0.2-0.08-0.25-0.56-0.06-0.7l0.53-0.08
			c1.04-0.17,1.06-0.42,1.06-2.44V139c0-1.6-0.73-2.77-2.63-2.77c-1.06,0-1.99,0.45-2.38,0.98c-0.36,0.48-0.42,0.87-0.42,1.68v4.28
			c0,2.02,0.06,2.27,1.06,2.44l0.5,0.08c0.2,0.14,0.14,0.62-0.06,0.7c-0.76-0.06-1.57-0.08-2.55-0.08c-1.01,0-1.85,0.03-2.63,0.08
			c-0.2-0.08-0.25-0.56-0.06-0.7l0.59-0.08c1.04-0.14,1.06-0.42,1.06-2.44V138.27z"/>
		<path class="st5" d="M201.64,135.39c0.25,0.62,0.45,1.51,0.45,2.27c-0.11,0.2-0.53,0.25-0.67,0.08c-0.48-1.23-1.32-2.04-2.46-2.04
			c-1.09,0-1.79,0.7-1.79,1.71c0,1.15,1.18,1.76,2.16,2.32c1.48,0.84,2.86,1.79,2.86,3.78c0,2.13-1.96,3.19-4.03,3.19
			c-1.32,0-2.3-0.28-3-0.84c-0.22-0.53-0.39-1.9-0.34-2.83c0.14-0.17,0.5-0.2,0.64-0.03c0.48,1.54,1.37,2.88,2.97,2.88
			c1.01,0,1.88-0.59,1.88-1.79c0-1.29-1.12-1.99-2.16-2.58c-1.62-0.92-2.77-1.9-2.77-3.44c0-2.04,1.68-3.19,3.81-3.19
			C200.35,134.88,201.39,135.16,201.64,135.39z"/>
		<path class="st5" d="M208.25,143.17c0,2.02,0.06,2.3,1.06,2.44l0.67,0.08c0.2,0.14,0.14,0.62-0.06,0.7
			c-0.92-0.06-1.74-0.08-2.72-0.08c-1.01,0-1.85,0.03-2.69,0.08c-0.2-0.08-0.25-0.56-0.06-0.7l0.64-0.08
			c1.04-0.14,1.06-0.42,1.06-2.44v-12.66c0-1.65-0.03-1.82-0.87-2.32l-0.28-0.17c-0.14-0.08-0.14-0.48,0-0.56
			c0.7-0.22,2.02-0.64,3.02-1.18c0.11,0,0.22,0.06,0.28,0.17c-0.03,0.84-0.08,2.24-0.08,3.47V143.17z"/>
		<path class="st5" d="M217.96,140.51c0.42-0.14,0.48-0.39,0.48-0.81l0.03-1.29c0.03-1.04-0.31-2.44-2.04-2.44
			c-0.78,0-1.74,0.39-1.79,1.26c-0.03,0.45-0.06,0.78-0.28,0.95c-0.42,0.34-1.18,0.53-1.6,0.53c-0.25,0-0.39-0.14-0.39-0.39
			c0-1.46,3.16-3.44,5.21-3.44c2.02,0,3,1.18,2.91,3.28l-0.17,4.87c-0.06,1.29,0.2,2.44,1.29,2.44c0.28,0,0.53-0.08,0.7-0.17
			c0.14-0.08,0.28-0.2,0.36-0.2c0.11,0,0.2,0.17,0.2,0.37c0,0.14-0.98,1.23-2.35,1.23c-0.67,0-1.34-0.25-1.82-0.87
			c-0.11-0.17-0.28-0.39-0.45-0.39c-0.2,0-0.53,0.25-1.09,0.56c-0.62,0.34-1.23,0.7-2.02,0.7c-0.81,0-1.48-0.22-1.96-0.64
			c-0.53-0.48-0.87-1.18-0.87-1.96c0-1.09,0.53-1.74,2.32-2.38L217.96,140.51z M216.23,145.44c0.56,0,1.43-0.42,1.71-0.7
			c0.34-0.34,0.34-0.73,0.36-1.32l0.06-1.65c0-0.31-0.11-0.36-0.28-0.36s-0.64,0.11-1.15,0.28c-1.65,0.56-2.46,0.98-2.46,2.07
			C214.46,144.23,214.8,145.44,216.23,145.44z"/>
		<path class="st5" d="M228.38,136.45c-0.48,0-0.5,0.08-0.5,0.67v5.24c0,1.62,0.2,3.11,2.04,3.11c0.28,0,0.53-0.06,0.76-0.14
			c0.25-0.08,0.62-0.39,0.7-0.39c0.22,0,0.34,0.31,0.28,0.48c-0.5,0.59-1.51,1.29-2.94,1.29c-2.41,0-2.91-1.34-2.91-3.02v-6.41
			c0-0.76-0.03-0.81-0.59-0.81h-0.78c-0.17-0.11-0.2-0.42-0.08-0.59c0.81-0.25,1.51-0.62,1.79-0.87c0.36-0.34,0.9-1.09,1.18-1.65
			c0.14-0.06,0.48-0.06,0.59,0.14v1.26c0,0.5,0.03,0.53,0.5,0.53h3.11c0.34,0.25,0.28,1.01,0.03,1.18H228.38z"/>
		<path class="st5" d="M245.26,140.68c0,3.5-2.41,6.02-5.91,6.02c-3.22,0-5.74-2.27-5.74-5.77c0-3.53,2.66-6.05,5.96-6.05
			C242.71,134.88,245.26,137.23,245.26,140.68z M239.24,135.72c-1.85,0-3.22,1.76-3.22,4.84c0,2.55,1.15,5.29,3.61,5.29
			s3.22-2.58,3.22-4.73C242.85,138.75,241.9,135.72,239.24,135.72z"/>
		<path class="st5" d="M249.69,138.27c0-1.09,0-1.23-0.76-1.74l-0.25-0.17c-0.11-0.11-0.11-0.42,0.03-0.5
			c0.64-0.22,2.13-0.95,2.83-1.37c0.14,0.03,0.22,0.08,0.22,0.2v1.62c0,0.14,0.03,0.22,0.08,0.25c0.98-0.81,2.04-1.68,3.08-1.68
			c0.7,0,1.26,0.45,1.26,1.12c0,0.92-0.76,1.29-1.2,1.29c-0.28,0-0.42-0.08-0.62-0.2c-0.42-0.28-0.84-0.45-1.23-0.45
			c-0.45,0-0.78,0.25-1.01,0.56c-0.28,0.39-0.36,1.2-0.36,2.16v3.81c0,2.02,0.06,2.35,1.12,2.44l1.01,0.08
			c0.2,0.14,0.14,0.62-0.06,0.7c-1.32-0.06-2.13-0.08-3.11-0.08c-1.01,0-1.85,0.03-2.58,0.08c-0.2-0.08-0.25-0.56-0.06-0.7
			l0.53-0.08c1.04-0.17,1.06-0.42,1.06-2.44V138.27z"/>
	</g>
	<circle class="st6" cx="274.5" cy="139.5" r="5.5"/>
	<g>
	</g>
	<g>
	</g>
	<g>
	</g>
	<g>
	</g>
	<g>
	</g>
	<g>
	</g>
	<g>
	</g>
	<g>
	</g>
	<g>
	</g>
	<g>
	</g>
	<g>
	</g>
	<g>
	</g>
	<g>
	</g>
	<g>
	</g>
	<g>
	</g>
</g>
</svg>
