<?xml version="1.0" encoding="utf-8"?>
<!-- Generator: Adobe Illustrator 23.0.1, SVG Export Plug-In . SVG Version: 6.00 Build 0)  -->
<svg version="1.1" id="Ebene_1" xmlns="http://www.w3.org/2000/svg" xmlns:xlink="http://www.w3.org/1999/xlink" x="0px" y="0px"
	 viewBox="0 0 307.06 134.5" style="enable-background:new 0 0 307.06 134.5;" xml:space="preserve">
<style type="text/css">
	.st0{fill:#99CCFF;}
	.st1{fill:#FF6666;}
	.st2{fill:#333333;}
	.st3{fill:none;}
	.st4{fill:#FFFFFF;}
</style>
<rect y="-1" class="st0" width="307.06" height="135"/>
<rect x="10.02" y="10.54" class="st0" width="142.85" height="41.65"/>
<g>
	<g>
		<path class="st1" d="M157.85,77.69h9.79v2.06h-7.41v3.57h6.86v1.95h-6.86v3.99h7.54v2.06h-9.92V77.69z"/>
		<path class="st1" d="M169.54,81.45h2.06v1.45l0.04,0.04c0.33-0.55,0.76-0.98,1.29-1.29s1.12-0.47,1.77-0.47
			c1.08,0,1.93,0.28,2.55,0.84s0.93,1.4,0.93,2.52v6.77h-2.17v-6.2c-0.03-0.78-0.19-1.34-0.5-1.69c-0.3-0.35-0.78-0.52-1.43-0.52
			c-0.37,0-0.7,0.07-0.99,0.2c-0.29,0.13-0.54,0.32-0.74,0.55s-0.36,0.51-0.48,0.83c-0.11,0.32-0.17,0.66-0.17,1.01v5.82h-2.17
			V81.45z"/>
		<path class="st1" d="M189.58,90.79c0,1.49-0.42,2.6-1.25,3.33c-0.83,0.73-2.03,1.1-3.59,1.1c-0.5,0-0.99-0.05-1.5-0.15
			c-0.5-0.1-0.96-0.27-1.37-0.51c-0.41-0.24-0.76-0.56-1.04-0.95c-0.28-0.39-0.45-0.88-0.5-1.45h2.17c0.06,0.31,0.17,0.55,0.32,0.74
			s0.33,0.34,0.54,0.45c0.21,0.11,0.44,0.18,0.7,0.21c0.25,0.03,0.52,0.05,0.8,0.05c0.88,0,1.52-0.22,1.92-0.65
			c0.41-0.43,0.61-1.06,0.61-1.87v-1.51h-0.04c-0.3,0.55-0.72,0.97-1.25,1.28c-0.53,0.3-1.09,0.46-1.71,0.46
			c-0.79,0-1.46-0.14-2.01-0.41c-0.55-0.27-1.01-0.65-1.37-1.12c-0.36-0.48-0.63-1.03-0.79-1.65s-0.25-1.29-0.25-2
			c0-0.66,0.1-1.29,0.3-1.89s0.5-1.12,0.88-1.57s0.85-0.81,1.4-1.08c0.55-0.27,1.18-0.4,1.88-0.4c0.62,0,1.19,0.13,1.71,0.39
			c0.52,0.26,0.92,0.67,1.2,1.23h0.04v-1.35h2.17V90.79z M184.76,89.59c0.48,0,0.89-0.1,1.23-0.3c0.34-0.2,0.61-0.46,0.82-0.78
			c0.21-0.32,0.36-0.69,0.46-1.11c0.1-0.41,0.14-0.83,0.14-1.25c0-0.42-0.05-0.83-0.15-1.22c-0.1-0.39-0.26-0.74-0.47-1.05
			c-0.21-0.31-0.48-0.55-0.82-0.72c-0.34-0.18-0.74-0.27-1.21-0.27c-0.48,0-0.89,0.1-1.22,0.31s-0.6,0.47-0.8,0.79
			s-0.35,0.69-0.44,1.11c-0.09,0.41-0.13,0.82-0.13,1.23c0,0.41,0.05,0.8,0.15,1.19s0.26,0.73,0.47,1.04
			c0.21,0.31,0.48,0.55,0.8,0.74C183.91,89.49,184.3,89.59,184.76,89.59z"/>
		<path class="st1" d="M191.83,77.69H194v13.62h-2.17V77.69z"/>
		<path class="st1" d="M196.42,77.69h2.17v2.06h-2.17V77.69z M196.42,81.45h2.17v9.86h-2.17V81.45z"/>
		<path class="st1" d="M202.58,88.14c0.06,0.64,0.31,1.08,0.72,1.33c0.42,0.25,0.92,0.38,1.5,0.38c0.2,0,0.44-0.02,0.7-0.05
			c0.26-0.03,0.5-0.09,0.73-0.18s0.42-0.22,0.56-0.39c0.15-0.17,0.21-0.4,0.2-0.68c-0.01-0.28-0.11-0.51-0.3-0.69
			c-0.19-0.18-0.43-0.32-0.73-0.43c-0.3-0.11-0.64-0.2-1.02-0.28c-0.38-0.08-0.77-0.16-1.16-0.25c-0.41-0.09-0.8-0.2-1.17-0.32
			c-0.38-0.13-0.71-0.3-1.01-0.52c-0.3-0.22-0.54-0.49-0.71-0.83c-0.18-0.34-0.27-0.75-0.27-1.25c0-0.53,0.13-0.98,0.39-1.34
			c0.26-0.36,0.59-0.65,0.99-0.88c0.4-0.22,0.84-0.38,1.33-0.47c0.49-0.09,0.96-0.13,1.4-0.13c0.51,0,0.99,0.05,1.46,0.16
			c0.46,0.11,0.88,0.28,1.26,0.52c0.37,0.24,0.69,0.56,0.93,0.94c0.25,0.39,0.4,0.86,0.47,1.4h-2.27c-0.1-0.52-0.34-0.87-0.71-1.05
			c-0.38-0.18-0.8-0.27-1.29-0.27c-0.15,0-0.33,0.01-0.54,0.04c-0.21,0.03-0.41,0.07-0.59,0.14c-0.18,0.07-0.34,0.17-0.47,0.3
			c-0.13,0.13-0.19,0.31-0.19,0.52c0,0.27,0.09,0.48,0.28,0.65c0.18,0.17,0.42,0.3,0.72,0.41c0.3,0.11,0.64,0.2,1.02,0.28
			s0.77,0.16,1.18,0.25c0.39,0.09,0.78,0.2,1.16,0.32s0.72,0.3,1.02,0.51c0.3,0.22,0.54,0.49,0.72,0.82
			c0.18,0.33,0.28,0.74,0.28,1.22c0,0.58-0.13,1.08-0.4,1.49c-0.27,0.41-0.61,0.74-1.04,0.99c-0.43,0.25-0.9,0.44-1.42,0.55
			s-1.04,0.17-1.54,0.17c-0.62,0-1.2-0.07-1.72-0.21c-0.53-0.14-0.98-0.35-1.37-0.64s-0.69-0.64-0.91-1.07
			c-0.22-0.43-0.34-0.93-0.35-1.52H202.58z"/>
		<path class="st1" d="M210.83,77.69H213v5.05h0.04c0.27-0.45,0.66-0.82,1.19-1.12c0.53-0.3,1.11-0.45,1.76-0.45
			c1.08,0,1.93,0.28,2.55,0.84s0.93,1.4,0.93,2.52v6.77h-2.17v-6.2c-0.03-0.78-0.19-1.34-0.5-1.69c-0.3-0.35-0.78-0.52-1.43-0.52
			c-0.37,0-0.7,0.07-0.99,0.2c-0.29,0.13-0.54,0.32-0.74,0.55s-0.36,0.51-0.48,0.83c-0.11,0.32-0.17,0.66-0.17,1.01v5.82h-2.17
			V77.69z"/>
		<path class="st1" d="M221.56,85.09h5.54v2.06h-5.54V85.09z"/>
		<path class="st1" d="M241.34,91.31h-1.52l-0.36-1.6c-0.63,0.72-1.27,1.23-1.9,1.51c-0.64,0.28-1.37,0.42-2.19,0.42
			c-1.02,0-1.93-0.19-2.73-0.56s-1.49-0.89-2.05-1.54s-0.99-1.4-1.29-2.27c-0.3-0.86-0.45-1.79-0.45-2.76
			c0-0.97,0.15-1.88,0.45-2.75c0.3-0.87,0.73-1.62,1.29-2.27s1.24-1.16,2.05-1.54c0.81-0.38,1.72-0.57,2.73-0.57
			c0.74,0,1.44,0.1,2.1,0.3s1.26,0.49,1.78,0.88s0.95,0.87,1.3,1.46s0.56,1.26,0.65,2.02h-2.32c-0.06-0.45-0.2-0.84-0.41-1.17
			c-0.21-0.34-0.47-0.62-0.79-0.85s-0.67-0.4-1.07-0.51c-0.39-0.11-0.81-0.17-1.24-0.17c-0.72,0-1.35,0.15-1.88,0.44
			c-0.53,0.29-0.96,0.68-1.29,1.17s-0.57,1.05-0.73,1.67c-0.16,0.62-0.24,1.26-0.24,1.91s0.08,1.28,0.24,1.91
			c0.16,0.62,0.4,1.18,0.73,1.67c0.33,0.49,0.76,0.88,1.29,1.17c0.53,0.29,1.15,0.44,1.88,0.44c0.61,0.01,1.15-0.07,1.62-0.24
			c0.47-0.17,0.87-0.42,1.19-0.74c0.32-0.32,0.57-0.72,0.73-1.19c0.17-0.47,0.25-0.99,0.27-1.56h-3.62v-1.81h5.79V91.31z"/>
		<path class="st1" d="M245.33,86.94c0,0.38,0.05,0.75,0.16,1.11c0.11,0.36,0.27,0.67,0.49,0.93c0.22,0.27,0.49,0.48,0.82,0.64
			c0.33,0.16,0.72,0.24,1.18,0.24c0.63,0,1.15-0.14,1.53-0.41c0.39-0.27,0.68-0.68,0.87-1.23h2.06c-0.11,0.53-0.31,1.01-0.59,1.43
			c-0.28,0.42-0.62,0.77-1.01,1.06s-0.83,0.5-1.32,0.65c-0.49,0.15-1,0.22-1.53,0.22c-0.77,0-1.46-0.13-2.06-0.38
			c-0.6-0.25-1.1-0.61-1.51-1.07c-0.41-0.46-0.72-1-0.93-1.64c-0.21-0.64-0.31-1.33-0.31-2.1c0-0.7,0.11-1.36,0.33-1.99
			c0.22-0.63,0.54-1.18,0.95-1.66c0.41-0.48,0.91-0.85,1.5-1.13c0.58-0.28,1.24-0.42,1.98-0.42c0.77,0,1.47,0.16,2.09,0.49
			s1.13,0.75,1.53,1.29s0.7,1.15,0.89,1.84c0.18,0.69,0.23,1.41,0.14,2.15H245.33z M250.39,85.51c-0.03-0.34-0.1-0.67-0.22-0.99
			c-0.12-0.32-0.29-0.59-0.5-0.83c-0.21-0.24-0.46-0.43-0.76-0.57c-0.3-0.15-0.63-0.22-1-0.22c-0.38,0-0.73,0.07-1.04,0.2
			c-0.31,0.13-0.58,0.32-0.8,0.55c-0.22,0.24-0.4,0.51-0.53,0.83c-0.13,0.32-0.21,0.66-0.22,1.03H250.39z"/>
		<path class="st1" d="M254.22,81.45h2.04v1.91h0.04c0.06-0.27,0.19-0.53,0.37-0.78c0.18-0.25,0.41-0.49,0.67-0.7
			c0.26-0.21,0.55-0.38,0.87-0.5s0.64-0.19,0.97-0.19c0.25,0,0.43,0.01,0.52,0.02c0.1,0.01,0.19,0.03,0.3,0.04v2.1
			c-0.15-0.03-0.31-0.05-0.47-0.07c-0.16-0.02-0.31-0.03-0.47-0.03c-0.37,0-0.71,0.07-1.04,0.22c-0.32,0.15-0.61,0.36-0.85,0.65
			s-0.43,0.64-0.57,1.06c-0.14,0.42-0.21,0.9-0.21,1.45v4.69h-2.17V81.45z"/>
		<path class="st1" d="M260.92,81.45h2.06v1.37h0.06c0.17-0.24,0.34-0.46,0.53-0.67s0.4-0.38,0.64-0.52
			c0.23-0.14,0.5-0.25,0.81-0.33c0.3-0.08,0.65-0.12,1.05-0.12c0.6,0,1.15,0.13,1.67,0.4c0.51,0.27,0.88,0.68,1.09,1.24
			c0.37-0.51,0.79-0.91,1.28-1.2s1.09-0.44,1.81-0.44c1.04,0,1.85,0.25,2.43,0.76c0.58,0.51,0.87,1.36,0.87,2.56v6.81h-2.17v-5.76
			c0-0.39-0.01-0.75-0.04-1.08s-0.1-0.6-0.22-0.84c-0.12-0.24-0.3-0.42-0.54-0.54s-0.57-0.19-0.99-0.19c-0.74,0-1.27,0.23-1.6,0.69
			c-0.33,0.46-0.5,1.11-0.5,1.95v5.78h-2.17v-6.33c0-0.69-0.12-1.2-0.37-1.55c-0.25-0.35-0.7-0.52-1.36-0.52
			c-0.28,0-0.55,0.06-0.81,0.17c-0.26,0.11-0.49,0.28-0.69,0.5c-0.2,0.22-0.36,0.48-0.48,0.8c-0.12,0.32-0.18,0.68-0.18,1.09v5.85
			h-2.17V81.45z"/>
		<path class="st1" d="M285.74,89.11c0,0.27,0.04,0.46,0.1,0.57c0.07,0.12,0.21,0.17,0.41,0.17c0.06,0,0.14,0,0.23,0
			s0.19-0.01,0.3-0.04v1.51c-0.08,0.03-0.17,0.05-0.29,0.09c-0.12,0.03-0.25,0.06-0.37,0.09c-0.13,0.02-0.25,0.04-0.38,0.06
			s-0.24,0.02-0.32,0.02c-0.45,0-0.81-0.09-1.11-0.27s-0.48-0.49-0.57-0.93c-0.43,0.42-0.96,0.72-1.59,0.92
			c-0.63,0.19-1.24,0.29-1.82,0.29c-0.44,0-0.87-0.06-1.28-0.18c-0.41-0.12-0.76-0.3-1.08-0.53c-0.31-0.23-0.56-0.53-0.74-0.9
			c-0.18-0.36-0.28-0.79-0.28-1.27c0-0.61,0.11-1.11,0.33-1.49c0.22-0.38,0.51-0.68,0.88-0.9c0.36-0.22,0.77-0.37,1.22-0.47
			c0.45-0.09,0.9-0.17,1.36-0.22c0.39-0.08,0.77-0.13,1.12-0.16c0.36-0.03,0.67-0.09,0.94-0.16c0.27-0.08,0.49-0.19,0.65-0.35
			c0.16-0.16,0.24-0.4,0.24-0.72c0-0.28-0.07-0.51-0.2-0.69c-0.13-0.18-0.3-0.31-0.5-0.41c-0.2-0.09-0.42-0.16-0.66-0.19
			c-0.24-0.03-0.47-0.05-0.69-0.05c-0.61,0-1.11,0.13-1.5,0.38c-0.39,0.25-0.62,0.65-0.67,1.18h-2.17c0.04-0.64,0.19-1.16,0.46-1.58
			c0.27-0.42,0.61-0.76,1.02-1.01c0.41-0.25,0.88-0.43,1.4-0.53c0.52-0.1,1.05-0.15,1.6-0.15c0.48,0,0.96,0.05,1.43,0.15
			s0.89,0.27,1.27,0.5c0.37,0.23,0.68,0.52,0.9,0.89s0.34,0.8,0.34,1.33V89.11z M283.57,86.37c-0.33,0.22-0.74,0.35-1.22,0.39
			c-0.48,0.04-0.97,0.11-1.45,0.2c-0.23,0.04-0.45,0.09-0.67,0.16c-0.22,0.07-0.41,0.17-0.57,0.29c-0.17,0.12-0.3,0.28-0.39,0.48
			c-0.1,0.2-0.14,0.44-0.14,0.71c0,0.24,0.07,0.45,0.21,0.61s0.31,0.3,0.5,0.39c0.2,0.1,0.41,0.16,0.65,0.2
			c0.23,0.04,0.45,0.06,0.64,0.06c0.24,0,0.5-0.03,0.78-0.1c0.28-0.06,0.54-0.17,0.79-0.32c0.25-0.15,0.45-0.35,0.62-0.58
			s0.25-0.52,0.25-0.87V86.37z"/>
		<path class="st1" d="M288.08,81.45h2.06v1.45l0.04,0.04c0.33-0.55,0.76-0.98,1.29-1.29s1.12-0.47,1.77-0.47
			c1.08,0,1.93,0.28,2.55,0.84s0.93,1.4,0.93,2.52v6.77h-2.17v-6.2c-0.03-0.78-0.19-1.34-0.5-1.69c-0.3-0.35-0.78-0.52-1.43-0.52
			c-0.37,0-0.7,0.07-0.99,0.2c-0.29,0.13-0.54,0.32-0.74,0.55s-0.36,0.51-0.48,0.83c-0.11,0.32-0.17,0.66-0.17,1.01v5.82h-2.17
			V81.45z"/>
		<path class="st1" d="M180.21,106.11c0,0.27,0.04,0.46,0.1,0.57c0.07,0.12,0.21,0.17,0.41,0.17c0.06,0,0.14,0,0.23,0
			s0.19-0.01,0.3-0.04v1.51c-0.08,0.03-0.17,0.05-0.29,0.09c-0.12,0.03-0.25,0.06-0.37,0.09c-0.13,0.02-0.25,0.04-0.38,0.06
			s-0.24,0.02-0.32,0.02c-0.45,0-0.81-0.09-1.11-0.27s-0.48-0.49-0.57-0.93c-0.43,0.42-0.96,0.72-1.59,0.92
			c-0.63,0.19-1.24,0.29-1.82,0.29c-0.44,0-0.87-0.06-1.28-0.18c-0.41-0.12-0.76-0.3-1.08-0.53c-0.31-0.23-0.56-0.53-0.74-0.9
			c-0.18-0.36-0.28-0.79-0.28-1.27c0-0.61,0.11-1.11,0.33-1.49c0.22-0.38,0.51-0.68,0.88-0.9c0.36-0.22,0.77-0.37,1.22-0.47
			c0.45-0.09,0.9-0.17,1.36-0.22c0.39-0.08,0.77-0.13,1.12-0.16c0.36-0.03,0.67-0.09,0.94-0.16c0.27-0.08,0.49-0.19,0.65-0.35
			c0.16-0.16,0.24-0.4,0.24-0.72c0-0.28-0.07-0.51-0.2-0.69c-0.13-0.18-0.3-0.31-0.5-0.41c-0.2-0.09-0.42-0.16-0.66-0.19
			c-0.24-0.03-0.47-0.05-0.69-0.05c-0.61,0-1.11,0.13-1.5,0.38c-0.39,0.25-0.62,0.65-0.67,1.18h-2.17c0.04-0.64,0.19-1.16,0.46-1.58
			c0.27-0.42,0.61-0.76,1.02-1.01c0.41-0.25,0.88-0.43,1.4-0.53c0.52-0.1,1.05-0.15,1.6-0.15c0.48,0,0.96,0.05,1.43,0.15
			s0.89,0.27,1.27,0.5c0.37,0.23,0.68,0.52,0.9,0.89s0.34,0.8,0.34,1.33V106.11z M178.04,103.37c-0.33,0.22-0.74,0.35-1.22,0.39
			c-0.48,0.04-0.97,0.11-1.45,0.2c-0.23,0.04-0.45,0.09-0.67,0.16c-0.22,0.07-0.41,0.17-0.57,0.29c-0.17,0.12-0.3,0.28-0.39,0.48
			c-0.1,0.2-0.14,0.44-0.14,0.71c0,0.24,0.07,0.45,0.21,0.61s0.31,0.3,0.5,0.39c0.2,0.1,0.41,0.16,0.65,0.2
			c0.23,0.04,0.45,0.06,0.64,0.06c0.24,0,0.5-0.03,0.78-0.1c0.28-0.06,0.54-0.17,0.79-0.32c0.25-0.15,0.45-0.35,0.62-0.58
			s0.25-0.52,0.25-0.87V103.37z"/>
		<path class="st1" d="M182.55,98.45h2.06v1.45l0.04,0.04c0.33-0.55,0.76-0.98,1.29-1.29s1.12-0.47,1.77-0.47
			c1.08,0,1.93,0.28,2.55,0.84s0.93,1.4,0.93,2.52v6.77h-2.17v-6.2c-0.03-0.78-0.19-1.34-0.5-1.69c-0.3-0.35-0.78-0.52-1.43-0.52
			c-0.37,0-0.7,0.07-0.99,0.2c-0.29,0.13-0.54,0.32-0.74,0.55s-0.36,0.51-0.48,0.83c-0.11,0.32-0.17,0.66-0.17,1.01v5.82h-2.17
			V98.45z"/>
		<path class="st1" d="M202.76,108.31h-2.06v-1.33h-0.04c-0.29,0.57-0.72,0.98-1.28,1.23s-1.15,0.37-1.77,0.37
			c-0.77,0-1.45-0.14-2.03-0.41c-0.58-0.27-1.06-0.65-1.44-1.12c-0.38-0.47-0.67-1.03-0.86-1.67c-0.19-0.64-0.29-1.33-0.29-2.07
			c0-0.89,0.12-1.66,0.36-2.31s0.56-1.18,0.96-1.6c0.4-0.42,0.86-0.73,1.37-0.93c0.51-0.2,1.04-0.29,1.57-0.29
			c0.3,0,0.62,0.03,0.93,0.09c0.32,0.06,0.62,0.15,0.91,0.28s0.56,0.29,0.81,0.49c0.25,0.2,0.45,0.43,0.62,0.7h0.04v-5.04h2.17
			V108.31z M195.18,103.48c0,0.42,0.05,0.83,0.16,1.24c0.11,0.41,0.27,0.77,0.5,1.09c0.22,0.32,0.5,0.57,0.85,0.76
			s0.75,0.29,1.22,0.29c0.48,0,0.9-0.1,1.25-0.3c0.35-0.2,0.63-0.47,0.86-0.8c0.22-0.33,0.39-0.7,0.5-1.12
			c0.11-0.41,0.16-0.84,0.16-1.27c0-1.09-0.25-1.94-0.73-2.55c-0.49-0.61-1.15-0.92-1.99-0.92c-0.51,0-0.94,0.11-1.29,0.31
			c-0.35,0.21-0.64,0.48-0.86,0.82c-0.22,0.34-0.38,0.72-0.48,1.14C195.22,102.6,195.18,103.04,195.18,103.48z"/>
		<path class="st1" d="M209.44,98.45h2.36l2.5,7.57h0.04l2.4-7.57h2.25l-3.52,9.86h-2.44L209.44,98.45z"/>
		<path class="st1" d="M220.36,94.69h2.17v2.06h-2.17V94.69z M220.36,98.45h2.17v9.86h-2.17V98.45z"/>
		<path class="st1" d="M231.54,101.75c-0.09-0.61-0.33-1.07-0.73-1.38s-0.9-0.47-1.51-0.47c-0.28,0-0.58,0.05-0.89,0.14
			c-0.32,0.09-0.61,0.27-0.88,0.53s-0.49,0.62-0.67,1.09s-0.27,1.07-0.27,1.82c0,0.41,0.05,0.81,0.14,1.22
			c0.1,0.41,0.25,0.77,0.46,1.09c0.21,0.32,0.48,0.58,0.81,0.77c0.33,0.2,0.73,0.3,1.2,0.3c0.63,0,1.16-0.2,1.57-0.59
			c0.41-0.39,0.67-0.95,0.77-1.66h2.17c-0.2,1.28-0.69,2.27-1.46,2.95s-1.79,1.02-3.06,1.02c-0.77,0-1.46-0.13-2.05-0.39
			c-0.59-0.26-1.09-0.62-1.5-1.07s-0.71-0.99-0.92-1.61c-0.21-0.62-0.31-1.3-0.31-2.02c0-0.74,0.1-1.43,0.3-2.08
			s0.51-1.21,0.91-1.69s0.91-0.85,1.51-1.12c0.6-0.27,1.31-0.41,2.12-0.41c0.57,0,1.11,0.07,1.63,0.22
			c0.51,0.15,0.97,0.37,1.37,0.66c0.4,0.29,0.73,0.66,0.98,1.11s0.41,0.97,0.46,1.58H231.54z"/>
		<path class="st1" d="M237.17,103.94c0,0.38,0.05,0.75,0.16,1.11c0.11,0.36,0.27,0.67,0.49,0.93c0.22,0.27,0.49,0.48,0.82,0.64
			c0.33,0.16,0.72,0.24,1.18,0.24c0.63,0,1.15-0.14,1.53-0.41c0.39-0.27,0.68-0.68,0.87-1.23h2.06c-0.11,0.53-0.31,1.01-0.59,1.43
			c-0.28,0.42-0.62,0.77-1.01,1.06s-0.83,0.5-1.32,0.65c-0.49,0.15-1,0.22-1.53,0.22c-0.77,0-1.46-0.13-2.06-0.38
			c-0.6-0.25-1.1-0.61-1.51-1.07c-0.41-0.46-0.72-1-0.93-1.64c-0.21-0.64-0.31-1.33-0.31-2.1c0-0.7,0.11-1.36,0.33-1.99
			c0.22-0.63,0.54-1.18,0.95-1.66c0.41-0.48,0.91-0.85,1.5-1.13c0.58-0.28,1.24-0.42,1.98-0.42c0.77,0,1.47,0.16,2.09,0.49
			s1.13,0.75,1.53,1.29s0.7,1.15,0.89,1.84c0.18,0.69,0.23,1.41,0.14,2.15H237.17z M242.24,102.51c-0.03-0.34-0.1-0.67-0.22-0.99
			c-0.12-0.32-0.29-0.59-0.5-0.83c-0.21-0.24-0.46-0.43-0.76-0.57c-0.3-0.15-0.63-0.22-1-0.22c-0.38,0-0.73,0.07-1.04,0.2
			c-0.31,0.13-0.58,0.32-0.8,0.55c-0.22,0.24-0.4,0.51-0.53,0.83c-0.13,0.32-0.21,0.66-0.22,1.03H242.24z"/>
		<path class="st1" d="M250.39,98.45h2.36l2.5,7.57h0.04l2.4-7.57h2.25l-3.52,9.86h-2.44L250.39,98.45z"/>
		<path class="st1" d="M262.94,103.94c0,0.38,0.05,0.75,0.16,1.11c0.11,0.36,0.27,0.67,0.49,0.93c0.22,0.27,0.49,0.48,0.82,0.64
			c0.33,0.16,0.72,0.24,1.18,0.24c0.63,0,1.15-0.14,1.53-0.41c0.39-0.27,0.68-0.68,0.87-1.23h2.06c-0.11,0.53-0.31,1.01-0.59,1.43
			c-0.28,0.42-0.62,0.77-1.01,1.06s-0.83,0.5-1.32,0.65c-0.49,0.15-1,0.22-1.53,0.22c-0.77,0-1.46-0.13-2.06-0.38
			c-0.6-0.25-1.1-0.61-1.51-1.07c-0.41-0.46-0.72-1-0.93-1.64c-0.21-0.64-0.31-1.33-0.31-2.1c0-0.7,0.11-1.36,0.33-1.99
			c0.22-0.63,0.54-1.18,0.95-1.66c0.41-0.48,0.91-0.85,1.5-1.13c0.58-0.28,1.24-0.42,1.98-0.42c0.77,0,1.47,0.16,2.09,0.49
			s1.13,0.75,1.53,1.29s0.7,1.15,0.89,1.84c0.18,0.69,0.23,1.41,0.14,2.15H262.94z M268.01,102.51c-0.03-0.34-0.1-0.67-0.22-0.99
			c-0.12-0.32-0.29-0.59-0.5-0.83c-0.21-0.24-0.46-0.43-0.76-0.57c-0.3-0.15-0.63-0.22-1-0.22c-0.38,0-0.73,0.07-1.04,0.2
			c-0.31,0.13-0.58,0.32-0.8,0.55c-0.22,0.24-0.4,0.51-0.53,0.83c-0.13,0.32-0.21,0.66-0.22,1.03H268.01z"/>
		<path class="st1" d="M271.84,98.45h2.04v1.91h0.04c0.06-0.27,0.19-0.53,0.37-0.78c0.18-0.25,0.41-0.49,0.67-0.7
			c0.26-0.21,0.55-0.38,0.87-0.5s0.64-0.19,0.97-0.19c0.25,0,0.43,0.01,0.52,0.02c0.1,0.01,0.19,0.03,0.3,0.04v2.1
			c-0.15-0.03-0.31-0.05-0.47-0.07c-0.16-0.02-0.31-0.03-0.47-0.03c-0.37,0-0.71,0.07-1.04,0.22c-0.32,0.15-0.61,0.36-0.85,0.65
			s-0.43,0.64-0.57,1.06c-0.14,0.42-0.21,0.9-0.21,1.45v4.69h-2.17V98.45z"/>
		<path class="st1" d="M280.18,105.14c0.06,0.64,0.31,1.08,0.72,1.33c0.42,0.25,0.92,0.38,1.5,0.38c0.2,0,0.44-0.02,0.7-0.05
			c0.26-0.03,0.5-0.09,0.73-0.18s0.42-0.22,0.56-0.39c0.15-0.17,0.21-0.4,0.2-0.68c-0.01-0.28-0.11-0.51-0.3-0.69
			c-0.19-0.18-0.43-0.32-0.73-0.43c-0.3-0.11-0.64-0.2-1.02-0.28c-0.38-0.08-0.77-0.16-1.16-0.25c-0.41-0.09-0.8-0.2-1.17-0.32
			c-0.38-0.13-0.71-0.3-1.01-0.52c-0.3-0.22-0.54-0.49-0.71-0.83c-0.18-0.34-0.27-0.75-0.27-1.25c0-0.53,0.13-0.98,0.39-1.34
			c0.26-0.36,0.59-0.65,0.99-0.88c0.4-0.22,0.84-0.38,1.33-0.47c0.49-0.09,0.96-0.13,1.4-0.13c0.51,0,0.99,0.05,1.46,0.16
			c0.46,0.11,0.88,0.28,1.26,0.52c0.37,0.24,0.69,0.56,0.93,0.94c0.25,0.39,0.4,0.86,0.47,1.4h-2.27c-0.1-0.52-0.34-0.87-0.71-1.05
			c-0.38-0.18-0.8-0.27-1.29-0.27c-0.15,0-0.33,0.01-0.54,0.04c-0.21,0.03-0.41,0.07-0.59,0.14c-0.18,0.07-0.34,0.17-0.47,0.3
			c-0.13,0.13-0.19,0.31-0.19,0.52c0,0.27,0.09,0.48,0.28,0.65c0.18,0.17,0.42,0.3,0.72,0.41c0.3,0.11,0.64,0.2,1.02,0.28
			s0.77,0.16,1.18,0.25c0.39,0.09,0.78,0.2,1.16,0.32s0.72,0.3,1.02,0.51c0.3,0.22,0.54,0.49,0.72,0.82
			c0.18,0.33,0.28,0.74,0.28,1.22c0,0.58-0.13,1.08-0.4,1.49c-0.27,0.41-0.61,0.74-1.04,0.99c-0.43,0.25-0.9,0.44-1.42,0.55
			s-1.04,0.17-1.54,0.17c-0.62,0-1.2-0.07-1.72-0.21c-0.53-0.14-0.98-0.35-1.37-0.64s-0.69-0.64-0.91-1.07
			c-0.22-0.43-0.34-0.93-0.35-1.52H280.18z"/>
		<path class="st1" d="M296.67,106.11c0,0.27,0.04,0.46,0.1,0.57c0.07,0.12,0.21,0.17,0.41,0.17c0.06,0,0.14,0,0.23,0
			s0.19-0.01,0.3-0.04v1.51c-0.08,0.03-0.17,0.05-0.29,0.09c-0.12,0.03-0.25,0.06-0.37,0.09c-0.13,0.02-0.25,0.04-0.38,0.06
			s-0.24,0.02-0.32,0.02c-0.45,0-0.81-0.09-1.11-0.27s-0.48-0.49-0.57-0.93c-0.43,0.42-0.96,0.72-1.59,0.92
			c-0.63,0.19-1.24,0.29-1.82,0.29c-0.44,0-0.87-0.06-1.28-0.18c-0.41-0.12-0.76-0.3-1.08-0.53c-0.31-0.23-0.56-0.53-0.74-0.9
			c-0.18-0.36-0.28-0.79-0.28-1.27c0-0.61,0.11-1.11,0.33-1.49c0.22-0.38,0.51-0.68,0.88-0.9c0.36-0.22,0.77-0.37,1.22-0.47
			c0.45-0.09,0.9-0.17,1.36-0.22c0.39-0.08,0.77-0.13,1.12-0.16c0.36-0.03,0.67-0.09,0.94-0.16c0.27-0.08,0.49-0.19,0.65-0.35
			c0.16-0.16,0.24-0.4,0.24-0.72c0-0.28-0.07-0.51-0.2-0.69c-0.13-0.18-0.3-0.31-0.5-0.41c-0.2-0.09-0.42-0.16-0.66-0.19
			c-0.24-0.03-0.47-0.05-0.69-0.05c-0.61,0-1.11,0.13-1.5,0.38c-0.39,0.25-0.62,0.65-0.67,1.18h-2.17c0.04-0.64,0.19-1.16,0.46-1.58
			c0.27-0.42,0.61-0.76,1.02-1.01c0.41-0.25,0.88-0.43,1.4-0.53c0.52-0.1,1.05-0.15,1.6-0.15c0.48,0,0.96,0.05,1.43,0.15
			s0.89,0.27,1.27,0.5c0.37,0.23,0.68,0.52,0.9,0.89s0.34,0.8,0.34,1.33V106.11z M294.5,103.37c-0.33,0.22-0.74,0.35-1.22,0.39
			c-0.48,0.04-0.97,0.11-1.45,0.2c-0.23,0.04-0.45,0.09-0.67,0.16c-0.22,0.07-0.41,0.17-0.57,0.29c-0.17,0.12-0.3,0.28-0.39,0.48
			c-0.1,0.2-0.14,0.44-0.14,0.71c0,0.24,0.07,0.45,0.21,0.61s0.31,0.3,0.5,0.39c0.2,0.1,0.41,0.16,0.65,0.2
			c0.23,0.04,0.45,0.06,0.64,0.06c0.24,0,0.5-0.03,0.78-0.1c0.28-0.06,0.54-0.17,0.79-0.32c0.25-0.15,0.45-0.35,0.62-0.58
			s0.25-0.52,0.25-0.87V103.37z"/>
	</g>
</g>
<g>
	<g>
		<path class="st2" d="M107.6,73.68h-1.52l-0.36-1.6c-0.64,0.72-1.27,1.23-1.9,1.51c-0.63,0.28-1.36,0.42-2.19,0.42
			c-1.02,0-1.93-0.19-2.73-0.56c-0.81-0.38-1.49-0.89-2.05-1.54c-0.56-0.65-0.99-1.4-1.29-2.27c-0.3-0.86-0.45-1.79-0.45-2.77
			c0-0.97,0.15-1.88,0.45-2.75s0.73-1.62,1.29-2.27c0.56-0.65,1.24-1.16,2.05-1.54c0.81-0.38,1.72-0.57,2.73-0.57
			c0.74,0,1.44,0.1,2.1,0.3c0.67,0.2,1.26,0.49,1.78,0.88c0.52,0.39,0.95,0.87,1.29,1.46c0.34,0.58,0.56,1.26,0.65,2.02h-2.32
			c-0.06-0.44-0.2-0.84-0.41-1.17c-0.21-0.34-0.47-0.62-0.79-0.85c-0.32-0.23-0.67-0.4-1.07-0.51s-0.81-0.17-1.24-0.17
			c-0.72,0-1.35,0.15-1.88,0.44s-0.96,0.68-1.29,1.17s-0.57,1.05-0.73,1.67c-0.16,0.62-0.24,1.26-0.24,1.91s0.08,1.28,0.24,1.91
			c0.16,0.62,0.4,1.18,0.73,1.67c0.33,0.49,0.76,0.88,1.29,1.17c0.53,0.29,1.15,0.44,1.88,0.44c0.61,0.01,1.15-0.07,1.62-0.24
			s0.87-0.42,1.19-0.74s0.57-0.72,0.73-1.19c0.16-0.47,0.25-0.99,0.27-1.56h-3.62v-1.81h5.79V73.68z"/>
		<path class="st2" d="M111.58,69.31c0,0.38,0.05,0.75,0.16,1.11c0.11,0.36,0.27,0.67,0.49,0.93c0.22,0.27,0.49,0.48,0.82,0.64
			c0.33,0.16,0.72,0.24,1.18,0.24c0.63,0,1.15-0.14,1.53-0.41c0.39-0.27,0.68-0.68,0.87-1.23h2.06c-0.11,0.53-0.31,1.01-0.59,1.43
			c-0.28,0.42-0.62,0.77-1.01,1.06s-0.83,0.5-1.32,0.65c-0.49,0.15-1,0.22-1.53,0.22c-0.77,0-1.46-0.13-2.06-0.38
			s-1.1-0.61-1.51-1.07c-0.41-0.46-0.72-1-0.93-1.64s-0.31-1.33-0.31-2.1c0-0.7,0.11-1.36,0.33-1.99s0.54-1.18,0.95-1.66
			s0.91-0.85,1.5-1.13c0.58-0.28,1.24-0.42,1.98-0.42c0.77,0,1.47,0.16,2.09,0.49s1.13,0.75,1.53,1.29c0.41,0.53,0.7,1.15,0.89,1.84
			c0.18,0.69,0.23,1.41,0.14,2.15H111.58z M116.65,67.88c-0.03-0.34-0.1-0.67-0.22-0.99s-0.29-0.59-0.5-0.83s-0.46-0.43-0.76-0.57
			c-0.3-0.15-0.63-0.22-1-0.22c-0.38,0-0.73,0.07-1.04,0.2c-0.31,0.13-0.58,0.32-0.8,0.55c-0.22,0.24-0.4,0.51-0.53,0.83
			s-0.21,0.66-0.22,1.03H116.65z"/>
		<path class="st2" d="M120.48,63.82h2.04v1.91h0.04c0.06-0.27,0.19-0.53,0.37-0.78c0.18-0.25,0.41-0.49,0.67-0.7
			c0.26-0.21,0.55-0.38,0.87-0.51c0.32-0.13,0.64-0.19,0.97-0.19c0.25,0,0.43,0.01,0.52,0.02s0.19,0.03,0.29,0.04v2.1
			c-0.15-0.03-0.31-0.05-0.47-0.07c-0.16-0.02-0.31-0.03-0.47-0.03c-0.37,0-0.71,0.07-1.04,0.22c-0.32,0.15-0.61,0.36-0.85,0.65
			s-0.43,0.64-0.57,1.06s-0.21,0.9-0.21,1.45v4.69h-2.17V63.82z"/>
		<path class="st2" d="M127.18,63.82h2.06v1.37h0.06c0.17-0.24,0.34-0.46,0.53-0.67c0.19-0.2,0.4-0.38,0.64-0.52
			c0.23-0.14,0.5-0.25,0.81-0.33s0.65-0.12,1.05-0.12c0.6,0,1.15,0.13,1.67,0.4s0.88,0.68,1.1,1.24c0.37-0.51,0.79-0.91,1.28-1.2
			c0.48-0.29,1.09-0.44,1.81-0.44c1.04,0,1.85,0.25,2.43,0.76c0.58,0.51,0.87,1.36,0.87,2.56v6.81h-2.17v-5.76
			c0-0.39-0.01-0.75-0.04-1.08s-0.1-0.6-0.22-0.84s-0.3-0.42-0.54-0.54c-0.24-0.13-0.57-0.19-0.99-0.19c-0.74,0-1.27,0.23-1.6,0.69
			s-0.49,1.11-0.49,1.95v5.78h-2.17v-6.33c0-0.69-0.12-1.2-0.37-1.55c-0.25-0.35-0.7-0.52-1.36-0.52c-0.28,0-0.55,0.06-0.81,0.17
			c-0.26,0.11-0.49,0.28-0.69,0.5c-0.2,0.22-0.36,0.48-0.48,0.8c-0.12,0.32-0.18,0.68-0.18,1.09v5.85h-2.17V63.82z"/>
		<path class="st2" d="M152,71.49c0,0.27,0.04,0.46,0.1,0.57c0.07,0.12,0.21,0.17,0.41,0.17c0.06,0,0.14,0,0.23,0
			s0.19-0.01,0.3-0.04v1.51c-0.08,0.03-0.17,0.05-0.29,0.09c-0.12,0.03-0.25,0.06-0.37,0.09c-0.13,0.02-0.25,0.04-0.38,0.06
			s-0.24,0.02-0.32,0.02c-0.45,0-0.81-0.09-1.11-0.27s-0.48-0.49-0.57-0.93c-0.43,0.42-0.96,0.72-1.59,0.92
			c-0.63,0.19-1.24,0.29-1.82,0.29c-0.44,0-0.87-0.06-1.28-0.18c-0.41-0.12-0.76-0.3-1.08-0.53c-0.31-0.23-0.56-0.53-0.74-0.9
			c-0.18-0.36-0.28-0.79-0.28-1.27c0-0.61,0.11-1.11,0.33-1.49c0.22-0.38,0.51-0.68,0.88-0.9c0.36-0.22,0.77-0.37,1.22-0.47
			c0.45-0.09,0.9-0.17,1.36-0.22c0.39-0.08,0.77-0.13,1.12-0.16s0.67-0.09,0.94-0.16c0.27-0.08,0.49-0.19,0.65-0.35
			c0.16-0.16,0.24-0.4,0.24-0.72c0-0.28-0.07-0.51-0.2-0.69c-0.13-0.18-0.3-0.31-0.5-0.41c-0.2-0.1-0.42-0.16-0.66-0.19
			c-0.24-0.03-0.47-0.05-0.69-0.05c-0.61,0-1.11,0.13-1.5,0.38c-0.39,0.25-0.62,0.65-0.67,1.18h-2.17c0.04-0.64,0.19-1.16,0.46-1.58
			s0.61-0.76,1.02-1.01c0.41-0.25,0.88-0.43,1.4-0.53c0.52-0.1,1.05-0.15,1.6-0.15c0.48,0,0.96,0.05,1.43,0.15
			c0.47,0.1,0.89,0.27,1.27,0.5c0.37,0.23,0.68,0.52,0.9,0.89s0.34,0.8,0.34,1.33V71.49z M149.83,68.74
			c-0.33,0.22-0.74,0.35-1.22,0.39c-0.48,0.04-0.97,0.11-1.45,0.2c-0.23,0.04-0.45,0.09-0.67,0.16c-0.22,0.07-0.41,0.17-0.57,0.29
			c-0.17,0.12-0.3,0.28-0.39,0.48c-0.1,0.2-0.14,0.44-0.14,0.71c0,0.24,0.07,0.45,0.21,0.61s0.31,0.3,0.5,0.39
			c0.2,0.1,0.41,0.16,0.65,0.2c0.23,0.04,0.45,0.06,0.64,0.06c0.24,0,0.5-0.03,0.78-0.1c0.28-0.06,0.54-0.17,0.79-0.32
			c0.25-0.15,0.45-0.35,0.62-0.58s0.25-0.52,0.25-0.87V68.74z"/>
		<path class="st2" d="M154.34,63.82h2.06v1.45l0.04,0.04c0.33-0.55,0.76-0.98,1.29-1.29s1.12-0.47,1.77-0.47
			c1.08,0,1.93,0.28,2.55,0.84c0.62,0.56,0.93,1.4,0.93,2.52v6.77h-2.17v-6.2c-0.03-0.78-0.19-1.34-0.5-1.69
			c-0.3-0.35-0.78-0.52-1.43-0.52c-0.37,0-0.7,0.07-0.99,0.2c-0.29,0.13-0.54,0.32-0.74,0.55s-0.36,0.51-0.48,0.83
			s-0.17,0.65-0.17,1.01v5.82h-2.17V63.82z"/>
		<path class="st2" d="M170.57,63.82h2.06v1.45l0.04,0.04c0.33-0.55,0.76-0.98,1.29-1.29s1.12-0.47,1.77-0.47
			c1.08,0,1.93,0.28,2.55,0.84c0.62,0.56,0.93,1.4,0.93,2.52v6.77h-2.17v-6.2c-0.03-0.78-0.19-1.34-0.5-1.69
			c-0.3-0.35-0.78-0.52-1.43-0.52c-0.37,0-0.7,0.07-0.99,0.2c-0.29,0.13-0.54,0.32-0.74,0.55s-0.36,0.51-0.48,0.83
			s-0.17,0.65-0.17,1.01v5.82h-2.17V63.82z"/>
		<path class="st2" d="M189.75,71.49c0,0.27,0.04,0.46,0.1,0.57c0.07,0.12,0.21,0.17,0.41,0.17c0.06,0,0.14,0,0.23,0
			s0.19-0.01,0.3-0.04v1.51c-0.08,0.03-0.17,0.05-0.29,0.09c-0.12,0.03-0.25,0.06-0.37,0.09c-0.13,0.02-0.25,0.04-0.38,0.06
			s-0.24,0.02-0.32,0.02c-0.45,0-0.81-0.09-1.11-0.27s-0.48-0.49-0.57-0.93c-0.43,0.42-0.96,0.72-1.59,0.92
			c-0.63,0.19-1.24,0.29-1.82,0.29c-0.44,0-0.87-0.06-1.28-0.18c-0.41-0.12-0.76-0.3-1.08-0.53c-0.31-0.23-0.56-0.53-0.74-0.9
			c-0.18-0.36-0.28-0.79-0.28-1.27c0-0.61,0.11-1.11,0.33-1.49c0.22-0.38,0.51-0.68,0.88-0.9c0.36-0.22,0.77-0.37,1.22-0.47
			c0.45-0.09,0.9-0.17,1.36-0.22c0.39-0.08,0.77-0.13,1.12-0.16s0.67-0.09,0.94-0.16c0.27-0.08,0.49-0.19,0.65-0.35
			c0.16-0.16,0.24-0.4,0.24-0.72c0-0.28-0.07-0.51-0.2-0.69c-0.13-0.18-0.3-0.31-0.5-0.41c-0.2-0.1-0.42-0.16-0.66-0.19
			c-0.24-0.03-0.47-0.05-0.69-0.05c-0.61,0-1.11,0.13-1.5,0.38c-0.39,0.25-0.62,0.65-0.67,1.18h-2.17c0.04-0.64,0.19-1.16,0.46-1.58
			s0.61-0.76,1.02-1.01c0.41-0.25,0.88-0.43,1.4-0.53c0.52-0.1,1.05-0.15,1.6-0.15c0.48,0,0.96,0.05,1.43,0.15
			c0.47,0.1,0.89,0.27,1.27,0.5c0.37,0.23,0.68,0.52,0.9,0.89s0.34,0.8,0.34,1.33V71.49z M187.58,68.74
			c-0.33,0.22-0.74,0.35-1.22,0.39c-0.48,0.04-0.97,0.11-1.45,0.2c-0.23,0.04-0.45,0.09-0.67,0.16c-0.22,0.07-0.41,0.17-0.57,0.29
			c-0.17,0.12-0.3,0.28-0.39,0.48c-0.1,0.2-0.14,0.44-0.14,0.71c0,0.24,0.07,0.45,0.21,0.61s0.31,0.3,0.5,0.39
			c0.2,0.1,0.41,0.16,0.65,0.2c0.23,0.04,0.45,0.06,0.64,0.06c0.24,0,0.5-0.03,0.78-0.1c0.28-0.06,0.54-0.17,0.79-0.32
			c0.25-0.15,0.45-0.35,0.62-0.58s0.25-0.52,0.25-0.87V68.74z"/>
		<path class="st2" d="M191.1,63.82h1.64v-2.96h2.17v2.96h1.96v1.62h-1.96v5.26c0,0.23,0.01,0.43,0.03,0.59
			c0.02,0.17,0.06,0.31,0.13,0.42c0.07,0.11,0.17,0.2,0.31,0.26c0.14,0.06,0.33,0.09,0.57,0.09c0.15,0,0.3,0,0.46-0.01
			c0.15-0.01,0.31-0.03,0.46-0.07v1.68c-0.24,0.03-0.48,0.05-0.71,0.08s-0.46,0.04-0.71,0.04c-0.57,0-1.03-0.05-1.38-0.16
			c-0.35-0.11-0.62-0.27-0.82-0.48c-0.2-0.21-0.33-0.47-0.4-0.79c-0.07-0.32-0.11-0.68-0.12-1.09v-5.82h-1.64V63.82z"/>
		<path class="st2" d="M198.49,60.06h2.17v2.06h-2.17V60.06z M198.49,63.82h2.17v9.86h-2.17V63.82z"/>
		<path class="st2" d="M202.05,63.82h2.36l2.5,7.57h0.04l2.4-7.57h2.25l-3.52,9.86h-2.44L202.05,63.82z"/>
		<path class="st2" d="M214.6,69.31c0,0.38,0.05,0.75,0.16,1.11c0.11,0.36,0.27,0.67,0.49,0.93c0.22,0.27,0.49,0.48,0.82,0.64
			c0.33,0.16,0.72,0.24,1.18,0.24c0.63,0,1.15-0.14,1.53-0.41c0.39-0.27,0.68-0.68,0.87-1.23h2.06c-0.11,0.53-0.31,1.01-0.59,1.43
			c-0.28,0.42-0.62,0.77-1.01,1.06s-0.83,0.5-1.32,0.65c-0.49,0.15-1,0.22-1.53,0.22c-0.77,0-1.46-0.13-2.06-0.38
			c-0.6-0.25-1.1-0.61-1.51-1.07c-0.41-0.46-0.72-1-0.93-1.64c-0.21-0.64-0.31-1.33-0.31-2.1c0-0.7,0.11-1.36,0.33-1.99
			c0.22-0.63,0.54-1.18,0.95-1.66c0.41-0.48,0.91-0.85,1.5-1.13c0.58-0.28,1.24-0.42,1.98-0.42c0.77,0,1.47,0.16,2.09,0.49
			s1.13,0.75,1.53,1.29c0.41,0.53,0.7,1.15,0.89,1.84c0.18,0.69,0.23,1.41,0.14,2.15H214.6z M219.67,67.88
			c-0.03-0.34-0.1-0.67-0.22-0.99c-0.12-0.32-0.29-0.59-0.5-0.83c-0.21-0.24-0.46-0.43-0.76-0.57c-0.3-0.15-0.63-0.22-1-0.22
			c-0.38,0-0.73,0.07-1.04,0.2c-0.31,0.13-0.58,0.32-0.8,0.55c-0.22,0.24-0.4,0.51-0.53,0.83c-0.13,0.32-0.21,0.66-0.22,1.03H219.67
			z"/>
		<path class="st2" d="M230.43,70.51c0.06,0.64,0.31,1.08,0.72,1.33c0.42,0.25,0.92,0.38,1.5,0.38c0.2,0,0.44-0.02,0.7-0.05
			c0.26-0.03,0.5-0.09,0.73-0.18s0.42-0.22,0.56-0.39c0.15-0.17,0.21-0.4,0.2-0.68c-0.01-0.28-0.11-0.51-0.3-0.69
			c-0.19-0.18-0.43-0.32-0.73-0.43c-0.3-0.11-0.64-0.2-1.02-0.28c-0.38-0.08-0.77-0.16-1.16-0.25c-0.41-0.09-0.8-0.2-1.17-0.32
			c-0.38-0.13-0.71-0.3-1.01-0.52c-0.3-0.22-0.54-0.49-0.71-0.83c-0.18-0.34-0.27-0.75-0.27-1.25c0-0.53,0.13-0.98,0.39-1.34
			c0.26-0.36,0.59-0.65,0.99-0.88c0.4-0.22,0.84-0.38,1.33-0.47c0.49-0.09,0.96-0.13,1.4-0.13c0.51,0,0.99,0.05,1.46,0.16
			c0.46,0.11,0.88,0.28,1.26,0.52c0.37,0.24,0.69,0.56,0.93,0.94c0.25,0.39,0.4,0.86,0.47,1.4h-2.27c-0.1-0.52-0.34-0.87-0.71-1.05
			c-0.38-0.18-0.8-0.27-1.29-0.27c-0.15,0-0.33,0.01-0.54,0.04c-0.21,0.03-0.41,0.07-0.59,0.14c-0.18,0.07-0.34,0.17-0.47,0.31
			s-0.19,0.31-0.19,0.52c0,0.27,0.09,0.48,0.28,0.65c0.18,0.17,0.42,0.3,0.72,0.41c0.3,0.11,0.64,0.2,1.02,0.28s0.77,0.16,1.18,0.25
			c0.39,0.09,0.78,0.2,1.16,0.32s0.72,0.3,1.02,0.51c0.3,0.22,0.54,0.49,0.72,0.82c0.18,0.33,0.28,0.74,0.28,1.22
			c0,0.58-0.13,1.08-0.4,1.49c-0.27,0.41-0.61,0.74-1.04,0.99c-0.43,0.25-0.9,0.44-1.42,0.55s-1.04,0.17-1.54,0.17
			c-0.62,0-1.2-0.07-1.72-0.21c-0.53-0.14-0.98-0.35-1.37-0.64s-0.69-0.64-0.91-1.07c-0.22-0.43-0.34-0.93-0.35-1.52H230.43z"/>
		<path class="st2" d="M238.74,63.82h2.06v1.33h0.04c0.3-0.57,0.73-0.98,1.28-1.23c0.55-0.25,1.14-0.37,1.77-0.37
			c0.77,0,1.45,0.14,2.03,0.41c0.58,0.27,1.06,0.65,1.44,1.12s0.67,1.03,0.86,1.67c0.19,0.64,0.29,1.32,0.29,2.04
			c0,0.66-0.08,1.3-0.26,1.93c-0.17,0.62-0.43,1.17-0.78,1.65c-0.35,0.48-0.79,0.86-1.32,1.14s-1.16,0.43-1.89,0.43
			c-0.32,0-0.63-0.03-0.95-0.09c-0.32-0.06-0.62-0.15-0.91-0.28s-0.56-0.29-0.81-0.49s-0.45-0.43-0.62-0.7h-0.04v4.92h-2.17V63.82z
			 M246.32,68.76c0-0.45-0.06-0.88-0.17-1.3c-0.12-0.42-0.29-0.79-0.51-1.12s-0.51-0.58-0.86-0.78c-0.34-0.2-0.74-0.3-1.18-0.3
			c-0.91,0-1.6,0.32-2.07,0.95c-0.46,0.64-0.7,1.48-0.7,2.54c0,0.5,0.06,0.96,0.18,1.38c0.12,0.43,0.3,0.79,0.54,1.1
			c0.24,0.3,0.53,0.55,0.87,0.72c0.34,0.18,0.73,0.27,1.17,0.27c0.5,0,0.91-0.1,1.26-0.3s0.63-0.47,0.85-0.79
			c0.22-0.32,0.38-0.69,0.48-1.11C246.27,69.61,246.32,69.19,246.32,68.76z"/>
		<path class="st2" d="M252.01,69.31c0,0.38,0.05,0.75,0.16,1.11c0.11,0.36,0.27,0.67,0.49,0.93c0.22,0.27,0.49,0.48,0.82,0.64
			c0.33,0.16,0.72,0.24,1.18,0.24c0.63,0,1.15-0.14,1.53-0.41c0.39-0.27,0.68-0.68,0.87-1.23h2.06c-0.11,0.53-0.31,1.01-0.59,1.43
			c-0.28,0.42-0.62,0.77-1.01,1.06s-0.83,0.5-1.32,0.65c-0.49,0.15-1,0.22-1.53,0.22c-0.77,0-1.46-0.13-2.06-0.38
			c-0.6-0.25-1.1-0.61-1.51-1.07c-0.41-0.46-0.72-1-0.93-1.64c-0.21-0.64-0.31-1.33-0.31-2.1c0-0.7,0.11-1.36,0.33-1.99
			c0.22-0.63,0.54-1.18,0.95-1.66c0.41-0.48,0.91-0.85,1.5-1.13c0.58-0.28,1.24-0.42,1.98-0.42c0.77,0,1.47,0.16,2.09,0.49
			s1.13,0.75,1.53,1.29c0.41,0.53,0.7,1.15,0.89,1.84c0.18,0.69,0.23,1.41,0.14,2.15H252.01z M257.08,67.88
			c-0.03-0.34-0.1-0.67-0.22-0.99c-0.12-0.32-0.29-0.59-0.5-0.83c-0.21-0.24-0.46-0.43-0.76-0.57c-0.3-0.15-0.63-0.22-1-0.22
			c-0.38,0-0.73,0.07-1.04,0.2c-0.31,0.13-0.58,0.32-0.8,0.55c-0.22,0.24-0.4,0.51-0.53,0.83c-0.13,0.32-0.21,0.66-0.22,1.03H257.08
			z"/>
		<path class="st2" d="M269.15,71.49c0,0.27,0.04,0.46,0.1,0.57c0.07,0.12,0.21,0.17,0.41,0.17c0.06,0,0.14,0,0.23,0
			s0.19-0.01,0.3-0.04v1.51c-0.08,0.03-0.17,0.05-0.29,0.09c-0.12,0.03-0.25,0.06-0.37,0.09c-0.13,0.02-0.25,0.04-0.38,0.06
			s-0.24,0.02-0.32,0.02c-0.45,0-0.81-0.09-1.11-0.27s-0.48-0.49-0.57-0.93c-0.43,0.42-0.96,0.72-1.59,0.92
			c-0.63,0.19-1.24,0.29-1.82,0.29c-0.44,0-0.87-0.06-1.28-0.18c-0.41-0.12-0.76-0.3-1.08-0.53c-0.31-0.23-0.56-0.53-0.74-0.9
			c-0.18-0.36-0.28-0.79-0.28-1.27c0-0.61,0.11-1.11,0.33-1.49c0.22-0.38,0.51-0.68,0.88-0.9c0.36-0.22,0.77-0.37,1.22-0.47
			c0.45-0.09,0.9-0.17,1.36-0.22c0.39-0.08,0.77-0.13,1.12-0.16s0.67-0.09,0.94-0.16c0.27-0.08,0.49-0.19,0.65-0.35
			c0.16-0.16,0.24-0.4,0.24-0.72c0-0.28-0.07-0.51-0.2-0.69c-0.13-0.18-0.3-0.31-0.5-0.41c-0.2-0.1-0.42-0.16-0.66-0.19
			c-0.24-0.03-0.47-0.05-0.69-0.05c-0.61,0-1.11,0.13-1.5,0.38c-0.39,0.25-0.62,0.65-0.67,1.18h-2.17c0.04-0.64,0.19-1.16,0.46-1.58
			s0.61-0.76,1.02-1.01c0.41-0.25,0.88-0.43,1.4-0.53c0.52-0.1,1.05-0.15,1.6-0.15c0.48,0,0.96,0.05,1.43,0.15
			c0.47,0.1,0.89,0.27,1.27,0.5c0.37,0.23,0.68,0.52,0.9,0.89s0.34,0.8,0.34,1.33V71.49z M266.98,68.74
			c-0.33,0.22-0.74,0.35-1.22,0.39c-0.48,0.04-0.97,0.11-1.45,0.2c-0.23,0.04-0.45,0.09-0.67,0.16c-0.22,0.07-0.41,0.17-0.57,0.29
			c-0.17,0.12-0.3,0.28-0.39,0.48c-0.1,0.2-0.14,0.44-0.14,0.71c0,0.24,0.07,0.45,0.21,0.61s0.31,0.3,0.5,0.39
			c0.2,0.1,0.41,0.16,0.65,0.2c0.23,0.04,0.45,0.06,0.64,0.06c0.24,0,0.5-0.03,0.78-0.1c0.28-0.06,0.54-0.17,0.79-0.32
			c0.25-0.15,0.45-0.35,0.62-0.58s0.25-0.52,0.25-0.87V68.74z"/>
		<path class="st2" d="M271.55,60.06h2.17v7.74l3.92-3.99h2.67l-3.77,3.62l4.13,6.24h-2.65l-3.01-4.79l-1.29,1.26v3.53h-2.17V60.06z
			"/>
		<path class="st2" d="M283.42,69.31c0,0.38,0.05,0.75,0.16,1.11c0.11,0.36,0.27,0.67,0.49,0.93c0.22,0.27,0.49,0.48,0.82,0.64
			c0.33,0.16,0.72,0.24,1.18,0.24c0.63,0,1.15-0.14,1.53-0.41c0.39-0.27,0.68-0.68,0.87-1.23h2.06c-0.11,0.53-0.31,1.01-0.59,1.43
			c-0.28,0.42-0.62,0.77-1.01,1.06s-0.83,0.5-1.32,0.65c-0.49,0.15-1,0.22-1.53,0.22c-0.77,0-1.46-0.13-2.06-0.38
			c-0.6-0.25-1.1-0.61-1.51-1.07c-0.41-0.46-0.72-1-0.93-1.64c-0.21-0.64-0.31-1.33-0.31-2.1c0-0.7,0.11-1.36,0.33-1.99
			c0.22-0.63,0.54-1.18,0.95-1.66c0.41-0.48,0.91-0.85,1.5-1.13c0.58-0.28,1.24-0.42,1.98-0.42c0.77,0,1.47,0.16,2.09,0.49
			s1.13,0.75,1.53,1.29c0.41,0.53,0.7,1.15,0.89,1.84c0.18,0.69,0.23,1.41,0.14,2.15H283.42z M288.48,67.88
			c-0.03-0.34-0.1-0.67-0.22-0.99c-0.12-0.32-0.29-0.59-0.5-0.83c-0.21-0.24-0.46-0.43-0.76-0.57c-0.3-0.15-0.63-0.22-1-0.22
			c-0.38,0-0.73,0.07-1.04,0.2c-0.31,0.13-0.58,0.32-0.8,0.55c-0.22,0.24-0.4,0.51-0.53,0.83c-0.13,0.32-0.21,0.66-0.22,1.03H288.48
			z"/>
		<path class="st2" d="M292.31,63.82h2.04v1.91h0.04c0.06-0.27,0.19-0.53,0.37-0.78c0.18-0.25,0.41-0.49,0.67-0.7
			c0.26-0.21,0.55-0.38,0.87-0.51c0.32-0.13,0.64-0.19,0.97-0.19c0.25,0,0.43,0.01,0.52,0.02c0.1,0.01,0.19,0.03,0.3,0.04v2.1
			c-0.15-0.03-0.31-0.05-0.47-0.07c-0.16-0.02-0.31-0.03-0.47-0.03c-0.37,0-0.71,0.07-1.04,0.22c-0.32,0.15-0.61,0.36-0.85,0.65
			s-0.43,0.64-0.57,1.06s-0.21,0.9-0.21,1.45v4.69h-2.17V63.82z"/>
	</g>
</g>
<g>
	<rect x="35.78" y="25.7" class="st3" width="260.09" height="52.29"/>
	<path class="st1" d="M83.87,25.7h6c0.96,0,1.75,0.14,2.36,0.42c0.61,0.28,1.08,0.63,1.41,1.05c0.33,0.42,0.56,0.88,0.68,1.37
		c0.12,0.5,0.18,0.95,0.18,1.37s-0.06,0.87-0.18,1.36c-0.12,0.49-0.35,0.94-0.68,1.36c-0.33,0.42-0.8,0.77-1.41,1.04
		c-0.61,0.27-1.4,0.41-2.36,0.41h-3.62v5.23h-2.38V25.7z M86.25,32.14h3.49c0.27,0,0.54-0.04,0.82-0.11
		c0.28-0.08,0.54-0.2,0.77-0.37c0.23-0.17,0.43-0.4,0.57-0.69c0.15-0.29,0.22-0.65,0.22-1.08c0-0.44-0.06-0.81-0.19-1.11
		s-0.3-0.52-0.51-0.7c-0.22-0.17-0.46-0.29-0.74-0.35s-0.58-0.1-0.9-0.1h-3.52V32.14z"/>
	<path class="st1" d="M104.52,37.12c0,0.27,0.04,0.46,0.1,0.57c0.07,0.11,0.21,0.17,0.41,0.17c0.06,0,0.14,0,0.23,0
		c0.09,0,0.19-0.01,0.3-0.04v1.51c-0.08,0.02-0.17,0.05-0.3,0.08c-0.12,0.03-0.24,0.06-0.37,0.09s-0.25,0.04-0.38,0.06
		s-0.23,0.02-0.32,0.02c-0.44,0-0.81-0.09-1.1-0.27c-0.29-0.18-0.48-0.49-0.57-0.93c-0.43,0.42-0.96,0.72-1.59,0.92
		c-0.63,0.19-1.24,0.29-1.82,0.29c-0.44,0-0.87-0.06-1.28-0.18c-0.41-0.12-0.77-0.3-1.08-0.53s-0.56-0.53-0.74-0.9
		c-0.18-0.36-0.28-0.78-0.28-1.27c0-0.61,0.11-1.11,0.33-1.49c0.22-0.38,0.51-0.68,0.88-0.9c0.36-0.22,0.77-0.37,1.22-0.47
		c0.45-0.09,0.9-0.17,1.36-0.22c0.39-0.08,0.77-0.13,1.12-0.16s0.67-0.09,0.94-0.16c0.27-0.08,0.49-0.19,0.65-0.35
		c0.16-0.16,0.24-0.4,0.24-0.72c0-0.28-0.07-0.51-0.2-0.69c-0.13-0.18-0.3-0.31-0.5-0.41c-0.2-0.1-0.42-0.16-0.66-0.19
		s-0.47-0.05-0.69-0.05c-0.61,0-1.11,0.13-1.5,0.38c-0.39,0.25-0.62,0.65-0.67,1.18H96.1c0.04-0.64,0.19-1.16,0.46-1.58
		c0.27-0.42,0.61-0.76,1.02-1.01s0.88-0.43,1.4-0.53c0.52-0.1,1.05-0.15,1.6-0.15c0.48,0,0.96,0.05,1.43,0.15
		c0.47,0.1,0.89,0.27,1.27,0.5s0.68,0.52,0.9,0.89s0.34,0.8,0.34,1.33V37.12z M102.35,34.37c-0.33,0.22-0.74,0.35-1.22,0.39
		c-0.48,0.04-0.96,0.11-1.45,0.2c-0.23,0.04-0.45,0.09-0.67,0.16c-0.22,0.07-0.41,0.17-0.57,0.29c-0.17,0.12-0.29,0.28-0.39,0.48
		c-0.1,0.2-0.14,0.44-0.14,0.71c0,0.24,0.07,0.45,0.21,0.61s0.31,0.3,0.5,0.39c0.2,0.1,0.41,0.16,0.65,0.2
		c0.23,0.04,0.45,0.06,0.64,0.06c0.24,0,0.5-0.03,0.78-0.1c0.28-0.06,0.54-0.17,0.79-0.32s0.45-0.35,0.62-0.58s0.25-0.52,0.25-0.87
		V34.37z"/>
	<path class="st1" d="M105.87,29.45h1.64V26.5h2.17v2.96h1.96v1.62h-1.96v5.26c0,0.23,0.01,0.43,0.03,0.59s0.06,0.3,0.13,0.42
		c0.07,0.11,0.17,0.2,0.31,0.26c0.14,0.06,0.33,0.09,0.57,0.09c0.15,0,0.3,0,0.46-0.01c0.15-0.01,0.3-0.03,0.46-0.07v1.68
		c-0.24,0.03-0.48,0.05-0.7,0.08c-0.23,0.03-0.46,0.04-0.7,0.04c-0.57,0-1.03-0.05-1.38-0.16c-0.35-0.11-0.62-0.27-0.82-0.48
		c-0.2-0.21-0.33-0.47-0.4-0.79c-0.07-0.32-0.11-0.68-0.12-1.09v-5.82h-1.64V29.45z"/>
	<path class="st1" d="M114.9,34.95c0,0.38,0.05,0.75,0.16,1.11c0.11,0.36,0.27,0.67,0.49,0.93c0.22,0.27,0.49,0.48,0.82,0.64
		c0.33,0.16,0.72,0.24,1.18,0.24c0.63,0,1.15-0.14,1.53-0.41c0.39-0.27,0.68-0.68,0.87-1.23H122c-0.11,0.53-0.31,1.01-0.59,1.43
		s-0.62,0.77-1.01,1.06s-0.83,0.5-1.32,0.65c-0.49,0.15-1,0.22-1.53,0.22c-0.77,0-1.46-0.13-2.06-0.38c-0.6-0.25-1.1-0.61-1.51-1.07
		c-0.41-0.46-0.72-1-0.93-1.64c-0.21-0.64-0.31-1.33-0.31-2.1c0-0.7,0.11-1.36,0.33-1.99c0.22-0.63,0.54-1.18,0.95-1.66
		c0.41-0.48,0.91-0.85,1.5-1.13c0.58-0.28,1.24-0.42,1.98-0.42c0.77,0,1.47,0.16,2.09,0.49s1.13,0.75,1.53,1.29
		c0.41,0.53,0.7,1.15,0.89,1.84c0.18,0.69,0.23,1.41,0.14,2.15H114.9z M119.96,33.52c-0.03-0.34-0.1-0.67-0.22-0.99
		c-0.12-0.32-0.29-0.59-0.5-0.83c-0.21-0.24-0.46-0.43-0.76-0.57c-0.3-0.15-0.63-0.22-1-0.22c-0.38,0-0.73,0.07-1.04,0.2
		c-0.31,0.13-0.58,0.32-0.8,0.55c-0.22,0.24-0.4,0.51-0.53,0.83c-0.13,0.32-0.21,0.66-0.22,1.03H119.96z"/>
	<path class="st1" d="M123.79,29.45h2.06v1.45l0.04,0.04c0.33-0.55,0.76-0.98,1.29-1.29s1.12-0.47,1.77-0.47
		c1.08,0,1.93,0.28,2.55,0.84c0.62,0.56,0.93,1.4,0.93,2.52v6.77h-2.17v-6.2c-0.03-0.78-0.19-1.34-0.5-1.69
		c-0.3-0.35-0.78-0.52-1.43-0.52c-0.37,0-0.7,0.07-0.99,0.2c-0.29,0.13-0.54,0.32-0.74,0.55s-0.36,0.51-0.48,0.83
		s-0.17,0.65-0.17,1.01v5.82h-2.17V29.45z"/>
	<path class="st1" d="M133.73,29.45h1.64V26.5h2.17v2.96h1.96v1.62h-1.96v5.26c0,0.23,0.01,0.43,0.03,0.59
		c0.02,0.17,0.06,0.3,0.13,0.42c0.07,0.11,0.17,0.2,0.31,0.26c0.14,0.06,0.33,0.09,0.57,0.09c0.15,0,0.3,0,0.46-0.01
		c0.15-0.01,0.31-0.03,0.46-0.07v1.68c-0.24,0.03-0.48,0.05-0.71,0.08c-0.23,0.03-0.46,0.04-0.71,0.04c-0.57,0-1.03-0.05-1.38-0.16
		c-0.35-0.11-0.62-0.27-0.82-0.48c-0.2-0.21-0.33-0.47-0.4-0.79c-0.07-0.32-0.11-0.68-0.12-1.09v-5.82h-1.64V29.45z"/>
	<path class="st1" d="M142.76,34.95c0,0.38,0.05,0.75,0.16,1.11c0.11,0.36,0.27,0.67,0.49,0.93c0.22,0.27,0.49,0.48,0.82,0.64
		c0.33,0.16,0.72,0.24,1.18,0.24c0.63,0,1.15-0.14,1.53-0.41c0.39-0.27,0.68-0.68,0.87-1.23h2.06c-0.11,0.53-0.31,1.01-0.59,1.43
		s-0.62,0.77-1.01,1.06s-0.83,0.5-1.32,0.65c-0.49,0.15-1,0.22-1.53,0.22c-0.77,0-1.46-0.13-2.06-0.38c-0.6-0.25-1.1-0.61-1.51-1.07
		c-0.41-0.46-0.72-1-0.93-1.64c-0.21-0.64-0.31-1.33-0.31-2.1c0-0.7,0.11-1.36,0.33-1.99c0.22-0.63,0.54-1.18,0.95-1.66
		c0.41-0.48,0.91-0.85,1.5-1.13c0.58-0.28,1.24-0.42,1.98-0.42c0.77,0,1.47,0.16,2.09,0.49s1.13,0.75,1.53,1.29
		c0.41,0.53,0.7,1.15,0.89,1.84c0.18,0.69,0.23,1.41,0.14,2.15H142.76z M147.83,33.52c-0.03-0.34-0.1-0.67-0.22-0.99
		c-0.12-0.32-0.29-0.59-0.5-0.83c-0.21-0.24-0.46-0.43-0.76-0.57c-0.3-0.15-0.63-0.22-1-0.22c-0.38,0-0.73,0.07-1.04,0.2
		c-0.31,0.13-0.58,0.32-0.8,0.55c-0.22,0.24-0.4,0.51-0.53,0.83c-0.13,0.32-0.21,0.66-0.22,1.03H147.83z"/>
	<path class="st1" d="M151.83,36.74h2.65v2.57c-0.01,0.79-0.25,1.45-0.72,1.98c-0.47,0.53-1.09,0.88-1.85,1.03v-1.16
		c0.42-0.1,0.73-0.33,0.94-0.7c0.21-0.36,0.31-0.75,0.29-1.15h-1.31V36.74z"/>
	<path class="st1" d="M161.26,29.45h1.64V26.5h2.17v2.96h1.96v1.62h-1.96v5.26c0,0.23,0.01,0.43,0.03,0.59
		c0.02,0.17,0.06,0.3,0.13,0.42c0.07,0.11,0.17,0.2,0.31,0.26c0.14,0.06,0.33,0.09,0.57,0.09c0.15,0,0.3,0,0.46-0.01
		c0.15-0.01,0.31-0.03,0.46-0.07v1.68c-0.24,0.03-0.48,0.05-0.71,0.08c-0.23,0.03-0.46,0.04-0.71,0.04c-0.57,0-1.03-0.05-1.38-0.16
		c-0.35-0.11-0.62-0.27-0.82-0.48c-0.2-0.21-0.33-0.47-0.4-0.79c-0.07-0.32-0.11-0.68-0.12-1.09v-5.82h-1.64V29.45z"/>
	<path class="st1" d="M170.28,34.95c0,0.38,0.05,0.75,0.16,1.11c0.11,0.36,0.27,0.67,0.49,0.93c0.22,0.27,0.49,0.48,0.82,0.64
		c0.33,0.16,0.72,0.24,1.18,0.24c0.63,0,1.15-0.14,1.53-0.41c0.39-0.27,0.68-0.68,0.87-1.23h2.06c-0.11,0.53-0.31,1.01-0.59,1.43
		s-0.62,0.77-1.01,1.06s-0.83,0.5-1.32,0.65c-0.49,0.15-1,0.22-1.53,0.22c-0.77,0-1.46-0.13-2.06-0.38c-0.6-0.25-1.1-0.61-1.51-1.07
		c-0.41-0.46-0.72-1-0.93-1.64c-0.21-0.64-0.31-1.33-0.31-2.1c0-0.7,0.11-1.36,0.33-1.99c0.22-0.63,0.54-1.18,0.95-1.66
		c0.41-0.48,0.91-0.85,1.5-1.13c0.58-0.28,1.24-0.42,1.98-0.42c0.77,0,1.47,0.16,2.09,0.49s1.13,0.75,1.53,1.29
		c0.41,0.53,0.7,1.15,0.89,1.84c0.18,0.69,0.23,1.41,0.14,2.15H170.28z M175.35,33.52c-0.03-0.34-0.1-0.67-0.22-0.99
		c-0.12-0.32-0.29-0.59-0.5-0.83c-0.21-0.24-0.46-0.43-0.76-0.57c-0.3-0.15-0.63-0.22-1-0.22c-0.38,0-0.73,0.07-1.04,0.2
		c-0.31,0.13-0.58,0.32-0.8,0.55c-0.22,0.24-0.4,0.51-0.53,0.83c-0.13,0.32-0.21,0.66-0.22,1.03H175.35z"/>
	<path class="st1" d="M185.83,32.75c-0.09-0.61-0.33-1.07-0.73-1.38s-0.9-0.47-1.51-0.47c-0.28,0-0.58,0.05-0.89,0.14
		s-0.61,0.27-0.88,0.53s-0.49,0.62-0.67,1.09c-0.18,0.46-0.27,1.07-0.27,1.82c0,0.41,0.05,0.81,0.14,1.22
		c0.1,0.41,0.25,0.77,0.46,1.09c0.21,0.32,0.48,0.58,0.81,0.77s0.73,0.3,1.2,0.3c0.63,0,1.16-0.2,1.57-0.59
		c0.41-0.39,0.67-0.95,0.77-1.66H188c-0.2,1.28-0.69,2.27-1.46,2.95c-0.77,0.68-1.79,1.02-3.06,1.02c-0.77,0-1.46-0.13-2.05-0.39
		c-0.59-0.26-1.09-0.62-1.5-1.07c-0.41-0.45-0.71-0.99-0.92-1.61c-0.21-0.62-0.31-1.3-0.31-2.02c0-0.74,0.1-1.43,0.3-2.08
		c0.2-0.65,0.51-1.21,0.91-1.69s0.91-0.85,1.51-1.12c0.6-0.27,1.31-0.41,2.12-0.41c0.57,0,1.11,0.07,1.63,0.22
		c0.51,0.15,0.97,0.37,1.37,0.66c0.4,0.29,0.73,0.66,0.98,1.11c0.25,0.45,0.41,0.97,0.46,1.58H185.83z"/>
	<path class="st1" d="M189.77,25.7h2.17v5.05h0.04c0.27-0.45,0.66-0.82,1.19-1.12c0.53-0.3,1.11-0.45,1.76-0.45
		c1.08,0,1.93,0.28,2.55,0.84c0.62,0.56,0.93,1.4,0.93,2.52v6.77h-2.17v-6.2c-0.03-0.78-0.19-1.34-0.5-1.69
		c-0.3-0.35-0.78-0.52-1.43-0.52c-0.37,0-0.7,0.07-0.99,0.2c-0.29,0.13-0.54,0.32-0.74,0.55s-0.36,0.51-0.48,0.83
		s-0.17,0.65-0.17,1.01v5.82h-2.17V25.7z"/>
	<path class="st1" d="M200.7,29.45h2.06v1.45l0.04,0.04c0.33-0.55,0.76-0.98,1.29-1.29s1.12-0.47,1.77-0.47
		c1.08,0,1.93,0.28,2.55,0.84c0.62,0.56,0.93,1.4,0.93,2.52v6.77h-2.17v-6.2c-0.03-0.78-0.19-1.34-0.5-1.69
		c-0.3-0.35-0.78-0.52-1.43-0.52c-0.37,0-0.7,0.07-0.99,0.2c-0.29,0.13-0.54,0.32-0.74,0.55s-0.36,0.51-0.48,0.83
		s-0.17,0.65-0.17,1.01v5.82h-2.17V29.45z"/>
	<path class="st1" d="M211.69,25.7h2.17v2.06h-2.17V25.7z M211.69,29.45h2.17v9.86h-2.17V29.45z"/>
	<path class="st1" d="M217.86,36.15c0.06,0.64,0.31,1.08,0.72,1.33c0.42,0.25,0.92,0.38,1.5,0.38c0.2,0,0.44-0.02,0.7-0.05
		c0.26-0.03,0.5-0.09,0.73-0.18s0.42-0.22,0.56-0.39c0.15-0.17,0.21-0.4,0.2-0.68s-0.11-0.51-0.3-0.69s-0.43-0.32-0.73-0.43
		c-0.3-0.11-0.64-0.2-1.02-0.28s-0.77-0.16-1.16-0.25c-0.41-0.09-0.8-0.2-1.17-0.32c-0.38-0.13-0.71-0.3-1.01-0.52
		c-0.3-0.22-0.54-0.49-0.71-0.83c-0.18-0.34-0.27-0.75-0.27-1.25c0-0.53,0.13-0.98,0.39-1.34c0.26-0.36,0.59-0.65,0.99-0.88
		c0.4-0.22,0.84-0.38,1.33-0.47c0.49-0.09,0.96-0.13,1.4-0.13c0.51,0,0.99,0.05,1.46,0.16c0.46,0.11,0.88,0.28,1.26,0.52
		c0.37,0.24,0.69,0.56,0.93,0.94c0.25,0.39,0.4,0.86,0.47,1.4h-2.27c-0.1-0.52-0.34-0.87-0.71-1.05c-0.38-0.18-0.8-0.27-1.29-0.27
		c-0.15,0-0.33,0.01-0.54,0.04c-0.21,0.03-0.41,0.07-0.59,0.14c-0.18,0.07-0.34,0.17-0.47,0.31s-0.19,0.31-0.19,0.52
		c0,0.27,0.09,0.48,0.28,0.65c0.18,0.17,0.42,0.3,0.72,0.41c0.3,0.11,0.64,0.2,1.02,0.28s0.77,0.16,1.18,0.25
		c0.39,0.09,0.78,0.2,1.16,0.32s0.72,0.3,1.02,0.51c0.3,0.22,0.54,0.49,0.72,0.82c0.18,0.33,0.28,0.74,0.28,1.22
		c0,0.58-0.13,1.08-0.4,1.49s-0.61,0.74-1.04,0.99c-0.43,0.25-0.9,0.44-1.42,0.55c-0.52,0.11-1.04,0.17-1.54,0.17
		c-0.62,0-1.2-0.07-1.72-0.21c-0.53-0.14-0.98-0.35-1.37-0.64s-0.69-0.64-0.91-1.07c-0.22-0.43-0.34-0.93-0.35-1.52H217.86z"/>
	<path class="st1" d="M232.75,32.75c-0.09-0.61-0.33-1.07-0.73-1.38s-0.9-0.47-1.51-0.47c-0.28,0-0.58,0.05-0.89,0.14
		s-0.61,0.27-0.88,0.53s-0.49,0.62-0.67,1.09c-0.18,0.46-0.27,1.07-0.27,1.82c0,0.41,0.05,0.81,0.14,1.22
		c0.1,0.41,0.25,0.77,0.46,1.09c0.21,0.32,0.48,0.58,0.81,0.77s0.73,0.3,1.2,0.3c0.63,0,1.16-0.2,1.57-0.59
		c0.41-0.39,0.67-0.95,0.77-1.66h2.17c-0.2,1.28-0.69,2.27-1.46,2.95c-0.77,0.68-1.79,1.02-3.06,1.02c-0.77,0-1.46-0.13-2.05-0.39
		c-0.59-0.26-1.09-0.62-1.5-1.07c-0.41-0.45-0.71-0.99-0.92-1.61c-0.21-0.62-0.31-1.3-0.31-2.02c0-0.74,0.1-1.43,0.3-2.08
		c0.2-0.65,0.51-1.21,0.91-1.69s0.91-0.85,1.51-1.12c0.6-0.27,1.31-0.41,2.12-0.41c0.57,0,1.11,0.07,1.63,0.22
		c0.51,0.15,0.97,0.37,1.37,0.66c0.4,0.29,0.73,0.66,0.98,1.11c0.25,0.45,0.41,0.97,0.46,1.58H232.75z"/>
	<path class="st1" d="M236.7,25.7h2.17v5.05h0.04c0.27-0.45,0.66-0.82,1.19-1.12c0.53-0.3,1.11-0.45,1.76-0.45
		c1.08,0,1.93,0.28,2.55,0.84c0.62,0.56,0.93,1.4,0.93,2.52v6.77h-2.17v-6.2c-0.03-0.78-0.19-1.34-0.5-1.69
		c-0.3-0.35-0.78-0.52-1.43-0.52c-0.37,0-0.7,0.07-0.99,0.2c-0.29,0.13-0.54,0.32-0.74,0.55s-0.36,0.51-0.48,0.83
		s-0.17,0.65-0.17,1.01v5.82h-2.17V25.7z"/>
	<path class="st1" d="M249.33,34.95c0,0.38,0.05,0.75,0.16,1.11c0.11,0.36,0.27,0.67,0.49,0.93c0.22,0.27,0.49,0.48,0.82,0.64
		c0.33,0.16,0.72,0.24,1.18,0.24c0.63,0,1.15-0.14,1.53-0.41c0.39-0.27,0.68-0.68,0.87-1.23h2.06c-0.11,0.53-0.31,1.01-0.59,1.43
		s-0.62,0.77-1.01,1.06s-0.83,0.5-1.32,0.65c-0.49,0.15-1,0.22-1.53,0.22c-0.77,0-1.46-0.13-2.06-0.38c-0.6-0.25-1.1-0.61-1.51-1.07
		c-0.41-0.46-0.72-1-0.93-1.64c-0.21-0.64-0.31-1.33-0.31-2.1c0-0.7,0.11-1.36,0.33-1.99c0.22-0.63,0.54-1.18,0.95-1.66
		c0.41-0.48,0.91-0.85,1.5-1.13c0.58-0.28,1.24-0.42,1.98-0.42c0.77,0,1.47,0.16,2.09,0.49s1.13,0.75,1.53,1.29
		c0.41,0.53,0.7,1.15,0.89,1.84c0.18,0.69,0.23,1.41,0.14,2.15H249.33z M254.39,33.52c-0.03-0.34-0.1-0.67-0.22-0.99
		c-0.12-0.32-0.29-0.59-0.5-0.83c-0.21-0.24-0.46-0.43-0.76-0.57c-0.3-0.15-0.63-0.22-1-0.22c-0.38,0-0.73,0.07-1.04,0.2
		c-0.31,0.13-0.58,0.32-0.8,0.55c-0.22,0.24-0.4,0.51-0.53,0.83c-0.13,0.32-0.21,0.66-0.22,1.03H254.39z"/>
	<path class="st1" d="M272.16,39.31h-2.13v-1.37h-0.04c-0.27,0.5-0.66,0.89-1.19,1.19c-0.53,0.3-1.06,0.45-1.61,0.45
		c-1.29,0-2.23-0.32-2.81-0.96c-0.58-0.64-0.87-1.61-0.87-2.91v-6.25h2.17v6.04c0,0.87,0.16,1.48,0.5,1.83
		c0.33,0.36,0.79,0.53,1.39,0.53c0.46,0,0.84-0.07,1.14-0.21s0.55-0.33,0.74-0.56s0.33-0.52,0.41-0.85
		c0.08-0.33,0.12-0.69,0.12-1.07v-5.72h2.17V39.31z"/>
	<path class="st1" d="M274.45,29.45h2.06v1.45l0.04,0.04c0.33-0.55,0.76-0.98,1.29-1.29s1.12-0.47,1.77-0.47
		c1.08,0,1.93,0.28,2.55,0.84c0.62,0.56,0.93,1.4,0.93,2.52v6.77h-2.17v-6.2c-0.03-0.78-0.19-1.34-0.5-1.69
		c-0.3-0.35-0.78-0.52-1.43-0.52c-0.37,0-0.7,0.07-0.99,0.2c-0.29,0.13-0.54,0.32-0.74,0.55s-0.36,0.51-0.48,0.83
		s-0.17,0.65-0.17,1.01v5.82h-2.17V29.45z"/>
	<path class="st1" d="M294.66,39.31h-2.06v-1.33h-0.04c-0.29,0.57-0.72,0.98-1.28,1.23c-0.56,0.25-1.15,0.37-1.77,0.37
		c-0.77,0-1.45-0.14-2.03-0.41c-0.58-0.27-1.06-0.65-1.44-1.12c-0.38-0.47-0.67-1.03-0.86-1.67c-0.19-0.64-0.29-1.33-0.29-2.07
		c0-0.89,0.12-1.66,0.36-2.31s0.56-1.18,0.96-1.6c0.4-0.42,0.86-0.73,1.37-0.93c0.51-0.2,1.04-0.3,1.57-0.3
		c0.3,0,0.62,0.03,0.93,0.09s0.62,0.15,0.91,0.28c0.29,0.13,0.56,0.29,0.81,0.49c0.25,0.2,0.45,0.43,0.62,0.7h0.04V25.7h2.17V39.31z
		 M287.08,34.49c0,0.42,0.05,0.83,0.16,1.24c0.11,0.41,0.27,0.77,0.5,1.09c0.22,0.32,0.5,0.57,0.85,0.76s0.75,0.29,1.22,0.29
		c0.48,0,0.9-0.1,1.25-0.31c0.35-0.2,0.63-0.47,0.86-0.8c0.22-0.33,0.39-0.7,0.5-1.12c0.11-0.41,0.16-0.84,0.16-1.27
		c0-1.09-0.25-1.94-0.73-2.56c-0.49-0.61-1.15-0.92-1.99-0.92c-0.51,0-0.94,0.1-1.29,0.31c-0.35,0.21-0.64,0.48-0.86,0.82
		c-0.22,0.34-0.38,0.72-0.48,1.14C287.12,33.61,287.08,34.04,287.08,34.49z"/>
	<path class="st1" d="M67.07,54.12c0,0.27,0.04,0.46,0.1,0.57c0.07,0.11,0.21,0.17,0.41,0.17c0.06,0,0.14,0,0.23,0
		c0.09,0,0.19-0.01,0.3-0.04v1.51c-0.08,0.02-0.17,0.05-0.3,0.08c-0.12,0.03-0.24,0.06-0.37,0.09s-0.25,0.04-0.38,0.06
		s-0.23,0.02-0.32,0.02c-0.44,0-0.81-0.09-1.1-0.27c-0.29-0.18-0.48-0.49-0.57-0.93c-0.43,0.42-0.96,0.72-1.59,0.92
		c-0.63,0.19-1.24,0.29-1.82,0.29c-0.44,0-0.87-0.06-1.28-0.18c-0.41-0.12-0.77-0.3-1.08-0.53s-0.56-0.53-0.74-0.9
		c-0.18-0.36-0.28-0.78-0.28-1.27c0-0.61,0.11-1.11,0.33-1.49c0.22-0.38,0.51-0.68,0.88-0.9c0.36-0.22,0.77-0.37,1.22-0.47
		c0.45-0.1,0.9-0.17,1.36-0.22c0.39-0.08,0.77-0.13,1.12-0.16c0.36-0.03,0.67-0.09,0.94-0.16c0.27-0.08,0.49-0.19,0.65-0.35
		c0.16-0.16,0.24-0.4,0.24-0.71c0-0.28-0.07-0.51-0.2-0.69s-0.3-0.31-0.5-0.41c-0.2-0.1-0.42-0.16-0.66-0.19
		c-0.24-0.03-0.47-0.05-0.69-0.05c-0.61,0-1.11,0.13-1.5,0.38c-0.39,0.25-0.62,0.65-0.67,1.18h-2.17c0.04-0.64,0.19-1.16,0.46-1.58
		c0.27-0.42,0.61-0.76,1.02-1.01c0.41-0.25,0.88-0.43,1.4-0.53s1.05-0.15,1.6-0.15c0.48,0,0.96,0.05,1.43,0.15s0.89,0.27,1.27,0.5
		c0.37,0.23,0.68,0.52,0.9,0.89c0.23,0.36,0.34,0.8,0.34,1.33V54.12z M64.9,51.37c-0.33,0.22-0.74,0.35-1.22,0.39
		c-0.48,0.04-0.96,0.11-1.45,0.2c-0.23,0.04-0.45,0.09-0.67,0.16c-0.22,0.07-0.41,0.17-0.57,0.29c-0.17,0.12-0.29,0.28-0.39,0.48
		c-0.1,0.2-0.14,0.44-0.14,0.71c0,0.24,0.07,0.45,0.21,0.61s0.31,0.3,0.5,0.39c0.2,0.1,0.41,0.16,0.65,0.2
		c0.23,0.04,0.45,0.06,0.64,0.06c0.24,0,0.5-0.03,0.78-0.1c0.28-0.06,0.54-0.17,0.79-0.32s0.45-0.35,0.62-0.58S64.9,53.34,64.9,53
		V51.37z"/>
	<path class="st1" d="M69.47,42.7h2.17v13.62h-2.17V42.7z"/>
	<path class="st1" d="M74.06,42.7h2.17v13.62h-2.17V42.7z"/>
	<path class="st1" d="M87.7,55.8c0,1.49-0.42,2.6-1.25,3.33c-0.83,0.73-2.03,1.1-3.59,1.1c-0.5,0-0.99-0.05-1.5-0.15
		c-0.5-0.1-0.96-0.27-1.37-0.51c-0.41-0.24-0.76-0.56-1.04-0.95c-0.28-0.39-0.44-0.88-0.5-1.45h2.17c0.06,0.31,0.17,0.55,0.32,0.74
		s0.33,0.34,0.54,0.45c0.21,0.11,0.44,0.18,0.7,0.21c0.25,0.03,0.52,0.05,0.8,0.05c0.88,0,1.52-0.22,1.92-0.65
		c0.41-0.43,0.61-1.05,0.61-1.87v-1.51h-0.04c-0.3,0.55-0.72,0.97-1.25,1.28c-0.53,0.31-1.1,0.46-1.7,0.46
		c-0.79,0-1.46-0.14-2.01-0.41c-0.55-0.27-1.01-0.65-1.37-1.12s-0.63-1.03-0.79-1.65s-0.25-1.29-0.25-2c0-0.66,0.1-1.29,0.3-1.89
		s0.5-1.12,0.88-1.57s0.85-0.81,1.4-1.08c0.55-0.27,1.18-0.4,1.88-0.4c0.62,0,1.19,0.13,1.71,0.39s0.92,0.67,1.2,1.23h0.04v-1.35
		h2.17V55.8z M82.88,54.6c0.48,0,0.89-0.1,1.23-0.29s0.61-0.46,0.82-0.78s0.36-0.69,0.46-1.11c0.1-0.41,0.14-0.83,0.14-1.25
		c0-0.42-0.05-0.83-0.15-1.22c-0.1-0.39-0.26-0.74-0.47-1.05c-0.21-0.3-0.48-0.55-0.82-0.72c-0.34-0.18-0.74-0.27-1.21-0.27
		c-0.48,0-0.89,0.1-1.22,0.3c-0.33,0.2-0.6,0.47-0.8,0.79s-0.35,0.69-0.44,1.11s-0.13,0.82-0.13,1.23c0,0.41,0.05,0.8,0.15,1.19
		s0.26,0.73,0.47,1.04c0.21,0.3,0.48,0.55,0.8,0.74C82.03,54.5,82.42,54.6,82.88,54.6z"/>
	<path class="st1" d="M91.58,51.95c0,0.38,0.05,0.75,0.16,1.11c0.11,0.36,0.27,0.67,0.49,0.93c0.22,0.27,0.49,0.48,0.82,0.64
		c0.33,0.16,0.72,0.24,1.18,0.24c0.63,0,1.15-0.14,1.53-0.41c0.39-0.27,0.68-0.68,0.87-1.23h2.06c-0.11,0.53-0.31,1.01-0.59,1.43
		s-0.62,0.77-1.01,1.06s-0.83,0.5-1.32,0.65c-0.49,0.15-1,0.22-1.53,0.22c-0.77,0-1.46-0.13-2.06-0.38s-1.1-0.61-1.51-1.07
		c-0.41-0.46-0.72-1-0.93-1.64s-0.31-1.33-0.31-2.1c0-0.7,0.11-1.36,0.33-1.99s0.54-1.18,0.95-1.66s0.91-0.85,1.5-1.13
		c0.58-0.28,1.24-0.42,1.98-0.42c0.77,0,1.47,0.16,2.09,0.49s1.13,0.75,1.53,1.29c0.41,0.53,0.7,1.15,0.89,1.84
		c0.18,0.69,0.23,1.41,0.14,2.15H91.58z M96.65,50.52c-0.03-0.34-0.1-0.67-0.22-0.99s-0.29-0.59-0.5-0.83
		c-0.21-0.23-0.46-0.43-0.76-0.57c-0.3-0.15-0.63-0.22-1-0.22c-0.38,0-0.73,0.07-1.04,0.2s-0.58,0.32-0.8,0.55
		c-0.22,0.24-0.4,0.51-0.53,0.83s-0.21,0.66-0.22,1.03H96.65z"/>
	<path class="st1" d="M100.48,46.45h2.06v1.37h0.06c0.17-0.24,0.34-0.46,0.53-0.67c0.19-0.2,0.4-0.37,0.64-0.51
		c0.23-0.14,0.5-0.25,0.81-0.33c0.3-0.08,0.65-0.12,1.05-0.12c0.6,0,1.15,0.13,1.67,0.4c0.51,0.27,0.88,0.68,1.1,1.24
		c0.37-0.51,0.79-0.91,1.28-1.2c0.48-0.29,1.09-0.44,1.81-0.44c1.04,0,1.85,0.25,2.43,0.76c0.58,0.51,0.87,1.36,0.87,2.55v6.81
		h-2.17v-5.76c0-0.39-0.01-0.75-0.04-1.08c-0.03-0.32-0.1-0.6-0.22-0.84s-0.3-0.42-0.54-0.54c-0.24-0.13-0.57-0.19-0.99-0.19
		c-0.74,0-1.27,0.23-1.6,0.69s-0.5,1.11-0.5,1.95v5.78h-2.17v-6.33c0-0.69-0.12-1.21-0.37-1.55s-0.7-0.52-1.36-0.52
		c-0.28,0-0.55,0.06-0.81,0.17s-0.49,0.28-0.69,0.5c-0.2,0.22-0.36,0.48-0.48,0.8c-0.12,0.32-0.18,0.68-0.18,1.09v5.85h-2.17V46.45z
		"/>
	<path class="st1" d="M118.74,51.95c0,0.38,0.05,0.75,0.16,1.11c0.11,0.36,0.27,0.67,0.49,0.93c0.22,0.27,0.49,0.48,0.82,0.64
		c0.33,0.16,0.72,0.24,1.18,0.24c0.63,0,1.15-0.14,1.53-0.41c0.39-0.27,0.68-0.68,0.87-1.23h2.06c-0.11,0.53-0.31,1.01-0.59,1.43
		s-0.62,0.77-1.01,1.06s-0.83,0.5-1.32,0.65c-0.49,0.15-1,0.22-1.53,0.22c-0.77,0-1.46-0.13-2.06-0.38c-0.6-0.25-1.1-0.61-1.51-1.07
		c-0.41-0.46-0.72-1-0.93-1.64c-0.21-0.64-0.31-1.33-0.31-2.1c0-0.7,0.11-1.36,0.33-1.99c0.22-0.63,0.54-1.18,0.95-1.66
		c0.41-0.48,0.91-0.85,1.5-1.13c0.58-0.28,1.24-0.42,1.98-0.42c0.77,0,1.47,0.16,2.09,0.49s1.13,0.75,1.53,1.29
		c0.41,0.53,0.7,1.15,0.89,1.84c0.18,0.69,0.23,1.41,0.14,2.15H118.74z M123.81,50.52c-0.03-0.34-0.1-0.67-0.22-0.99
		c-0.12-0.32-0.29-0.59-0.5-0.83c-0.21-0.23-0.46-0.43-0.76-0.57c-0.3-0.15-0.63-0.22-1-0.22c-0.38,0-0.73,0.07-1.04,0.2
		c-0.31,0.13-0.58,0.32-0.8,0.55c-0.22,0.24-0.4,0.51-0.53,0.83c-0.13,0.32-0.21,0.66-0.22,1.03H123.81z"/>
	<path class="st1" d="M127.7,42.7h2.17v2.06h-2.17V42.7z M127.7,46.45h2.17v9.86h-2.17V46.45z"/>
	<path class="st1" d="M132.23,46.45h2.06v1.45l0.04,0.04c0.33-0.55,0.76-0.98,1.29-1.29s1.12-0.47,1.77-0.47
		c1.08,0,1.93,0.28,2.55,0.84s0.93,1.4,0.93,2.52v6.77h-2.17v-6.2c-0.03-0.78-0.19-1.34-0.5-1.69s-0.78-0.52-1.43-0.52
		c-0.37,0-0.7,0.07-0.99,0.2s-0.54,0.32-0.74,0.55c-0.2,0.24-0.36,0.51-0.48,0.83s-0.17,0.66-0.17,1.01v5.82h-2.17V46.45z"/>
	<path class="st1" d="M144.8,53.15c0.06,0.64,0.31,1.08,0.72,1.33c0.42,0.25,0.92,0.38,1.5,0.38c0.2,0,0.44-0.02,0.7-0.05
		c0.26-0.03,0.5-0.09,0.73-0.18s0.42-0.22,0.56-0.39c0.15-0.17,0.21-0.4,0.2-0.68s-0.11-0.51-0.3-0.69s-0.43-0.32-0.73-0.43
		c-0.3-0.11-0.64-0.2-1.02-0.28s-0.77-0.16-1.16-0.25c-0.41-0.09-0.8-0.2-1.17-0.32c-0.38-0.13-0.71-0.3-1.01-0.52
		c-0.3-0.22-0.54-0.49-0.71-0.83c-0.18-0.34-0.27-0.75-0.27-1.25c0-0.53,0.13-0.98,0.39-1.34c0.26-0.36,0.59-0.65,0.99-0.88
		c0.4-0.22,0.84-0.38,1.33-0.47c0.49-0.09,0.96-0.13,1.4-0.13c0.51,0,0.99,0.05,1.46,0.16c0.46,0.11,0.88,0.28,1.26,0.52
		c0.37,0.24,0.69,0.56,0.93,0.94c0.25,0.39,0.4,0.86,0.47,1.4h-2.27c-0.1-0.52-0.34-0.87-0.71-1.05c-0.38-0.18-0.8-0.27-1.29-0.27
		c-0.15,0-0.33,0.01-0.54,0.04c-0.21,0.03-0.41,0.07-0.59,0.14c-0.18,0.07-0.34,0.17-0.47,0.3s-0.19,0.31-0.19,0.52
		c0,0.27,0.09,0.48,0.28,0.65c0.18,0.17,0.42,0.3,0.72,0.41c0.3,0.11,0.64,0.2,1.02,0.28s0.77,0.16,1.18,0.25
		c0.39,0.09,0.78,0.2,1.16,0.32s0.72,0.3,1.02,0.51c0.3,0.22,0.54,0.49,0.72,0.82c0.18,0.33,0.28,0.74,0.28,1.22
		c0,0.58-0.13,1.08-0.4,1.49s-0.61,0.74-1.04,0.99c-0.43,0.25-0.9,0.44-1.42,0.55c-0.52,0.11-1.04,0.17-1.54,0.17
		c-0.62,0-1.2-0.07-1.72-0.21c-0.53-0.14-0.98-0.35-1.37-0.64s-0.69-0.64-0.91-1.07c-0.22-0.43-0.34-0.93-0.35-1.52H144.8z"/>
	<path class="st1" d="M153.1,46.45h2.06v1.33h0.04c0.3-0.57,0.73-0.98,1.28-1.23s1.14-0.37,1.77-0.37c0.77,0,1.45,0.14,2.03,0.41
		c0.58,0.27,1.06,0.65,1.44,1.12c0.38,0.48,0.67,1.03,0.86,1.67s0.29,1.32,0.29,2.04c0,0.66-0.08,1.3-0.26,1.93
		c-0.17,0.62-0.43,1.17-0.78,1.65c-0.35,0.48-0.79,0.86-1.32,1.14s-1.16,0.43-1.89,0.43c-0.32,0-0.63-0.03-0.95-0.08
		c-0.32-0.06-0.62-0.15-0.91-0.28s-0.56-0.29-0.81-0.49c-0.25-0.2-0.45-0.43-0.62-0.7h-0.04v4.92h-2.17V46.45z M160.68,51.39
		c0-0.45-0.06-0.88-0.17-1.3c-0.12-0.42-0.29-0.79-0.51-1.12s-0.51-0.58-0.86-0.78s-0.74-0.3-1.18-0.3c-0.91,0-1.6,0.32-2.07,0.95
		c-0.46,0.64-0.7,1.48-0.7,2.54c0,0.5,0.06,0.96,0.18,1.38c0.12,0.43,0.3,0.79,0.54,1.1c0.24,0.31,0.53,0.55,0.87,0.72
		c0.34,0.18,0.73,0.27,1.17,0.27c0.5,0,0.91-0.1,1.26-0.31c0.34-0.2,0.63-0.47,0.85-0.79c0.22-0.32,0.38-0.69,0.48-1.11
		C160.64,52.25,160.68,51.83,160.68,51.39z"/>
	<path class="st1" d="M164.68,46.45h2.04v1.91h0.04c0.06-0.27,0.19-0.53,0.37-0.78c0.18-0.25,0.41-0.49,0.67-0.7
		c0.26-0.21,0.55-0.38,0.87-0.5s0.64-0.19,0.97-0.19c0.25,0,0.43,0.01,0.52,0.02c0.1,0.01,0.19,0.03,0.3,0.04v2.1
		c-0.15-0.03-0.31-0.05-0.47-0.07c-0.16-0.02-0.31-0.03-0.47-0.03c-0.37,0-0.71,0.07-1.04,0.22c-0.32,0.15-0.61,0.36-0.85,0.65
		s-0.43,0.64-0.57,1.06s-0.21,0.9-0.21,1.45v4.69h-2.17V46.45z"/>
	<path class="st1" d="M179.63,54.12c0,0.27,0.04,0.46,0.1,0.57c0.07,0.11,0.21,0.17,0.41,0.17c0.06,0,0.14,0,0.23,0
		s0.19-0.01,0.3-0.04v1.51c-0.08,0.02-0.17,0.05-0.29,0.08c-0.12,0.03-0.25,0.06-0.37,0.09s-0.25,0.04-0.38,0.06
		s-0.24,0.02-0.32,0.02c-0.45,0-0.81-0.09-1.11-0.27s-0.48-0.49-0.57-0.93c-0.43,0.42-0.96,0.72-1.59,0.92
		c-0.63,0.19-1.24,0.29-1.82,0.29c-0.44,0-0.87-0.06-1.28-0.18c-0.41-0.12-0.76-0.3-1.08-0.53c-0.31-0.24-0.56-0.53-0.74-0.9
		c-0.18-0.36-0.28-0.78-0.28-1.27c0-0.61,0.11-1.11,0.33-1.49c0.22-0.38,0.51-0.68,0.88-0.9c0.36-0.22,0.77-0.37,1.22-0.47
		c0.45-0.1,0.9-0.17,1.36-0.22c0.39-0.08,0.77-0.13,1.12-0.16c0.36-0.03,0.67-0.09,0.94-0.16c0.27-0.08,0.49-0.19,0.65-0.35
		c0.16-0.16,0.24-0.4,0.24-0.71c0-0.28-0.07-0.51-0.2-0.69c-0.13-0.18-0.3-0.31-0.5-0.41c-0.2-0.1-0.42-0.16-0.66-0.19
		c-0.24-0.03-0.47-0.05-0.69-0.05c-0.61,0-1.11,0.13-1.5,0.38c-0.39,0.25-0.62,0.65-0.67,1.18h-2.17c0.04-0.64,0.19-1.16,0.46-1.58
		c0.27-0.42,0.61-0.76,1.02-1.01c0.41-0.25,0.88-0.43,1.4-0.53c0.52-0.1,1.05-0.15,1.6-0.15c0.48,0,0.96,0.05,1.43,0.15
		s0.89,0.27,1.27,0.5c0.37,0.23,0.68,0.52,0.9,0.89c0.23,0.36,0.34,0.8,0.34,1.33V54.12z M177.46,51.37
		c-0.33,0.22-0.74,0.35-1.22,0.39c-0.48,0.04-0.97,0.11-1.45,0.2c-0.23,0.04-0.45,0.09-0.67,0.16c-0.22,0.07-0.41,0.17-0.57,0.29
		c-0.17,0.12-0.3,0.28-0.39,0.48c-0.1,0.2-0.14,0.44-0.14,0.71c0,0.24,0.07,0.45,0.21,0.61s0.31,0.3,0.5,0.39
		c0.2,0.1,0.41,0.16,0.65,0.2c0.23,0.04,0.45,0.06,0.64,0.06c0.24,0,0.5-0.03,0.78-0.1c0.28-0.06,0.54-0.17,0.79-0.32
		c0.25-0.15,0.45-0.35,0.62-0.58s0.25-0.52,0.25-0.87V51.37z"/>
	<path class="st1" d="M188.62,49.75c-0.09-0.61-0.33-1.07-0.73-1.38c-0.4-0.31-0.9-0.47-1.51-0.47c-0.28,0-0.58,0.05-0.89,0.14
		c-0.32,0.1-0.61,0.27-0.88,0.53c-0.27,0.26-0.49,0.62-0.67,1.09c-0.18,0.46-0.27,1.07-0.27,1.82c0,0.41,0.05,0.81,0.14,1.22
		c0.1,0.41,0.25,0.77,0.46,1.09c0.21,0.32,0.48,0.58,0.81,0.77s0.73,0.3,1.2,0.3c0.63,0,1.16-0.2,1.57-0.59
		c0.41-0.39,0.67-0.95,0.77-1.66h2.17c-0.2,1.28-0.69,2.27-1.46,2.95c-0.77,0.68-1.79,1.02-3.06,1.02c-0.77,0-1.46-0.13-2.05-0.39
		c-0.59-0.26-1.09-0.62-1.5-1.07c-0.41-0.45-0.71-0.99-0.92-1.61c-0.21-0.62-0.31-1.3-0.31-2.02c0-0.74,0.1-1.43,0.3-2.08
		s0.51-1.21,0.91-1.69c0.41-0.48,0.91-0.85,1.51-1.12c0.6-0.27,1.31-0.41,2.12-0.41c0.57,0,1.11,0.07,1.63,0.22
		c0.51,0.15,0.97,0.37,1.37,0.66c0.4,0.29,0.73,0.66,0.98,1.11c0.25,0.45,0.41,0.97,0.46,1.58H188.62z"/>
	<path class="st1" d="M192.57,42.7h2.17v5.05h0.04c0.27-0.45,0.66-0.82,1.19-1.12c0.53-0.3,1.11-0.45,1.76-0.45
		c1.08,0,1.93,0.28,2.55,0.84s0.93,1.4,0.93,2.52v6.77h-2.17v-6.2c-0.03-0.78-0.19-1.34-0.5-1.69s-0.78-0.52-1.43-0.52
		c-0.37,0-0.7,0.07-0.99,0.2s-0.54,0.32-0.74,0.55c-0.2,0.24-0.36,0.51-0.48,0.83s-0.17,0.66-0.17,1.01v5.82h-2.17V42.7z"/>
	<path class="st1" d="M203.56,42.7h2.17v13.62h-2.17V42.7z"/>
	<path class="st1" d="M208.15,42.7h2.17v2.06h-2.17V42.7z M208.15,46.45h2.17v9.86h-2.17V46.45z"/>
	<path class="st1" d="M219.33,49.75c-0.09-0.61-0.33-1.07-0.73-1.38c-0.4-0.31-0.9-0.47-1.51-0.47c-0.28,0-0.58,0.05-0.89,0.14
		c-0.32,0.1-0.61,0.27-0.88,0.53c-0.27,0.26-0.49,0.62-0.67,1.09c-0.18,0.46-0.27,1.07-0.27,1.82c0,0.41,0.05,0.81,0.14,1.22
		c0.1,0.41,0.25,0.77,0.46,1.09c0.21,0.32,0.48,0.58,0.81,0.77s0.73,0.3,1.2,0.3c0.63,0,1.16-0.2,1.57-0.59
		c0.41-0.39,0.67-0.95,0.77-1.66h2.17c-0.2,1.28-0.69,2.27-1.46,2.95c-0.77,0.68-1.79,1.02-3.06,1.02c-0.77,0-1.46-0.13-2.05-0.39
		c-0.59-0.26-1.09-0.62-1.5-1.07c-0.41-0.45-0.71-0.99-0.92-1.61c-0.21-0.62-0.31-1.3-0.31-2.02c0-0.74,0.1-1.43,0.3-2.08
		s0.51-1.21,0.91-1.69c0.41-0.48,0.91-0.85,1.51-1.12c0.6-0.27,1.31-0.41,2.12-0.41c0.57,0,1.11,0.07,1.63,0.22
		c0.51,0.15,0.97,0.37,1.37,0.66c0.4,0.29,0.73,0.66,0.98,1.11c0.25,0.45,0.41,0.97,0.46,1.58H219.33z"/>
	<path class="st1" d="M223.27,42.7h2.17v5.05h0.04c0.27-0.45,0.66-0.82,1.19-1.12c0.53-0.3,1.11-0.45,1.76-0.45
		c1.08,0,1.93,0.28,2.55,0.84s0.93,1.4,0.93,2.52v6.77h-2.17v-6.2c-0.03-0.78-0.19-1.34-0.5-1.69s-0.78-0.52-1.43-0.52
		c-0.37,0-0.7,0.07-0.99,0.2s-0.54,0.32-0.74,0.55c-0.2,0.24-0.36,0.51-0.48,0.83s-0.17,0.66-0.17,1.01v5.82h-2.17V42.7z"/>
	<path class="st1" d="M235.9,51.95c0,0.38,0.05,0.75,0.16,1.11c0.11,0.36,0.27,0.67,0.49,0.93c0.22,0.27,0.49,0.48,0.82,0.64
		c0.33,0.16,0.72,0.24,1.18,0.24c0.63,0,1.15-0.14,1.53-0.41c0.39-0.27,0.68-0.68,0.87-1.23H243c-0.11,0.53-0.31,1.01-0.59,1.43
		s-0.62,0.77-1.01,1.06s-0.83,0.5-1.32,0.65c-0.49,0.15-1,0.22-1.53,0.22c-0.77,0-1.46-0.13-2.06-0.38c-0.6-0.25-1.1-0.61-1.51-1.07
		c-0.41-0.46-0.72-1-0.93-1.64c-0.21-0.64-0.31-1.33-0.31-2.1c0-0.7,0.11-1.36,0.33-1.99c0.22-0.63,0.54-1.18,0.95-1.66
		c0.41-0.48,0.91-0.85,1.5-1.13c0.58-0.28,1.24-0.42,1.98-0.42c0.77,0,1.47,0.16,2.09,0.49s1.13,0.75,1.53,1.29
		c0.41,0.53,0.7,1.15,0.89,1.84c0.18,0.69,0.23,1.41,0.14,2.15H235.9z M240.96,50.52c-0.03-0.34-0.1-0.67-0.22-0.99
		c-0.12-0.32-0.29-0.59-0.5-0.83c-0.21-0.23-0.46-0.43-0.76-0.57c-0.3-0.15-0.63-0.22-1-0.22c-0.38,0-0.73,0.07-1.04,0.2
		c-0.31,0.13-0.58,0.32-0.8,0.55c-0.22,0.24-0.4,0.51-0.53,0.83c-0.13,0.32-0.21,0.66-0.22,1.03H240.96z"/>
	<path class="st1" d="M249.1,42.7h11.01v2.06h-4.32v11.56h-2.38V44.76h-4.3V42.7z"/>
	<path class="st1" d="M260.96,51.95c0,0.38,0.05,0.75,0.16,1.11c0.11,0.36,0.27,0.67,0.49,0.93c0.22,0.27,0.49,0.48,0.82,0.64
		c0.33,0.16,0.72,0.24,1.18,0.24c0.63,0,1.15-0.14,1.53-0.41c0.39-0.27,0.68-0.68,0.87-1.23h2.06c-0.11,0.53-0.31,1.01-0.59,1.43
		s-0.62,0.77-1.01,1.06s-0.83,0.5-1.32,0.65c-0.49,0.15-1,0.22-1.53,0.22c-0.77,0-1.46-0.13-2.06-0.38c-0.6-0.25-1.1-0.61-1.51-1.07
		c-0.41-0.46-0.72-1-0.93-1.64c-0.21-0.64-0.31-1.33-0.31-2.1c0-0.7,0.11-1.36,0.33-1.99c0.22-0.63,0.54-1.18,0.95-1.66
		c0.41-0.48,0.91-0.85,1.5-1.13c0.58-0.28,1.24-0.42,1.98-0.42c0.77,0,1.47,0.16,2.09,0.49s1.13,0.75,1.53,1.29
		c0.41,0.53,0.7,1.15,0.89,1.84c0.18,0.69,0.23,1.41,0.14,2.15H260.96z M266.03,50.52c-0.03-0.34-0.1-0.67-0.22-0.99
		c-0.12-0.32-0.29-0.59-0.5-0.83c-0.21-0.23-0.46-0.43-0.76-0.57c-0.3-0.15-0.63-0.22-1-0.22c-0.38,0-0.73,0.07-1.04,0.2
		c-0.31,0.13-0.58,0.32-0.8,0.55c-0.22,0.24-0.4,0.51-0.53,0.83c-0.13,0.32-0.21,0.66-0.22,1.03H266.03z"/>
	<path class="st1" d="M272.5,51.13l-3.41-4.67h2.63l2.06,3.03l2.15-3.03h2.51l-3.35,4.56l3.77,5.3h-2.61l-2.5-3.64l-2.42,3.64h-2.55
		L272.5,51.13z"/>
	<path class="st1" d="M279.09,46.45h1.64V43.5h2.17v2.96h1.96v1.62h-1.96v5.26c0,0.23,0.01,0.43,0.03,0.59
		c0.02,0.17,0.06,0.3,0.13,0.42c0.07,0.11,0.17,0.2,0.31,0.26c0.14,0.06,0.33,0.09,0.57,0.09c0.15,0,0.3,0,0.46-0.01
		c0.15-0.01,0.31-0.03,0.46-0.07v1.68c-0.24,0.03-0.48,0.05-0.71,0.08c-0.23,0.03-0.46,0.04-0.71,0.04c-0.57,0-1.03-0.05-1.38-0.16
		c-0.35-0.11-0.62-0.27-0.82-0.48c-0.2-0.21-0.33-0.47-0.4-0.79c-0.07-0.32-0.11-0.68-0.12-1.09v-5.82h-1.64V46.45z"/>
	<path class="st1" d="M288.12,51.95c0,0.38,0.05,0.75,0.16,1.11c0.11,0.36,0.27,0.67,0.49,0.93c0.22,0.27,0.49,0.48,0.82,0.64
		c0.33,0.16,0.72,0.24,1.18,0.24c0.63,0,1.15-0.14,1.53-0.41c0.39-0.27,0.68-0.68,0.87-1.23h2.06c-0.11,0.53-0.31,1.01-0.59,1.43
		s-0.62,0.77-1.01,1.06s-0.83,0.5-1.32,0.65c-0.49,0.15-1,0.22-1.53,0.22c-0.77,0-1.46-0.13-2.06-0.38c-0.6-0.25-1.1-0.61-1.51-1.07
		c-0.41-0.46-0.72-1-0.93-1.64c-0.21-0.64-0.31-1.33-0.31-2.1c0-0.7,0.11-1.36,0.33-1.99c0.22-0.63,0.54-1.18,0.95-1.66
		c0.41-0.48,0.91-0.85,1.5-1.13c0.58-0.28,1.24-0.42,1.98-0.42c0.77,0,1.47,0.16,2.09,0.49s1.13,0.75,1.53,1.29
		c0.41,0.53,0.7,1.15,0.89,1.84c0.18,0.69,0.23,1.41,0.14,2.15H288.12z M293.19,50.52c-0.03-0.34-0.1-0.67-0.22-0.99
		c-0.12-0.32-0.29-0.59-0.5-0.83c-0.21-0.23-0.46-0.43-0.76-0.57c-0.3-0.15-0.63-0.22-1-0.22c-0.38,0-0.73,0.07-1.04,0.2
		c-0.31,0.13-0.58,0.32-0.8,0.55c-0.22,0.24-0.4,0.51-0.53,0.83c-0.13,0.32-0.21,0.66-0.22,1.03H293.19z"/>
</g>
<rect x="41.27" y="25.32" class="st4" width="3" height="83.38"/>
</svg>
